<?xml version="1.0" encoding="UTF-8" standalone="no"?>
<!-- Created with Inkscape (http://www.inkscape.org/) -->

<svg
   xmlns:dc="http://purl.org/dc/elements/1.1/"
   xmlns:cc="http://creativecommons.org/ns#"
   xmlns:rdf="http://www.w3.org/1999/02/22-rdf-syntax-ns#"
   xmlns:svg="http://www.w3.org/2000/svg"
   xmlns="http://www.w3.org/2000/svg"
   xmlns:sodipodi="http://sodipodi.sourceforge.net/DTD/sodipodi-0.dtd"
   xmlns:inkscape="http://www.inkscape.org/namespaces/inkscape"
   width="650"
   height="200"
   id="svg2"
   version="1.1"
   inkscape:version="0.48.4 r9939"
   sodipodi:docname="timeModel.svg"
   inkscape:export-filename="C:\Users\yoakubera\latex-workspace\lgi2a-shared-latex-documents\kubera\meetings\2013_10_22_TimeModelPresentation\images\timeModel.png"
   inkscape:export-xdpi="141.75"
   inkscape:export-ydpi="141.75">
  <defs
     id="defs4" />
  <sodipodi:namedview
     id="base"
     pagecolor="#ffffff"
     bordercolor="#666666"
     borderopacity="1.0"
     inkscape:pageopacity="0.0"
     inkscape:pageshadow="2"
     inkscape:zoom="1.4"
     inkscape:cx="262.9806"
     inkscape:cy="132.14468"
     inkscape:document-units="px"
     inkscape:current-layer="g3076"
     showgrid="false"
     inkscape:window-width="1920"
     inkscape:window-height="1138"
     inkscape:window-x="-8"
     inkscape:window-y="-8"
     inkscape:window-maximized="1"
     fit-margin-top="0"
     fit-margin-left="0"
     fit-margin-right="0"
     fit-margin-bottom="0" />
  <metadata
     id="metadata7">
    <rdf:RDF>
      <cc:Work
         rdf:about="">
        <dc:format>image/svg+xml</dc:format>
        <dc:type
           rdf:resource="http://purl.org/dc/dcmitype/StillImage" />
        <dc:title></dc:title>
      </cc:Work>
    </rdf:RDF>
  </metadata>
  <g
     inkscape:groupmode="layer"
     id="layer2"
     inkscape:label="Border"
     style="display:inline">
    <rect
       style="fill:#ffffff;fill-opacity:1;stroke:#000000"
       id="rect3224"
       width="649"
       height="199"
       x="0.5"
       y="0.5" />
  </g>
  <g
     style="display:none"
     transform="translate(-38.78125,-52.875004)"
     id="g3224"
     inkscape:groupmode="layer"
     inkscape:label="Legend">
    <rect
       inkscape:export-ydpi="83.708908"
       inkscape:export-xdpi="83.708908"
       inkscape:export-filename="C:\Users\yoakubera\latex-workspace\lgi2a-shared-latex-documents\kubera\similar-paper-2013\images\timeModel2.png"
       y="185.54633"
       x="42.543442"
       height="57.129799"
       width="465.7012"
       id="rect3236"
       style="fill:#f9f9f9;fill-opacity:1;stroke:#000000;display:inline" />
    <text
       inkscape:export-ydpi="83.708908"
       inkscape:export-xdpi="83.708908"
       inkscape:export-filename="C:\Users\yoakubera\latex-workspace\lgi2a-shared-latex-documents\kubera\similar-paper-2013\images\timeModel2.png"
       sodipodi:linespacing="125%"
       id="text3238"
       y="200.89693"
       x="49.322639"
       style="font-size:14px;font-style:normal;font-weight:normal;line-height:125%;letter-spacing:0px;word-spacing:0px;fill:#000000;fill-opacity:1;stroke:none;display:inline;font-family:Sans"
       xml:space="preserve"><tspan
         style="font-weight:bold;-inkscape-font-specification:Sans Bold"
         y="200.89693"
         x="49.322639"
         id="tspan3240"
         sodipodi:role="line">Legend:</tspan></text>
    <text
       inkscape:export-ydpi="83.708908"
       inkscape:export-xdpi="83.708908"
       inkscape:export-filename="C:\Users\yoakubera\latex-workspace\lgi2a-shared-latex-documents\kubera\similar-paper-2013\images\timeModel2.png"
       sodipodi:linespacing="125%"
       id="text3242"
       y="217.32552"
       x="139.32265"
       style="font-size:14px;font-style:normal;font-weight:normal;line-height:125%;letter-spacing:0px;word-spacing:0px;fill:#000000;fill-opacity:1;stroke:none;display:inline;font-family:Sans"
       xml:space="preserve"><tspan
         y="217.32552"
         x="139.32265"
         id="tspan3244"
         sodipodi:role="line">: Moments when the state of the simulation is <tspan
   id="tspan3246"
   style="font-weight:bold;-inkscape-font-specification:Sans Bold">consistent</tspan>.</tspan></text>
    <g
       style="display:inline"
       inkscape:export-ydpi="83.708908"
       inkscape:export-xdpi="83.708908"
       inkscape:export-filename="C:\Users\yoakubera\latex-workspace\lgi2a-shared-latex-documents\kubera\similar-paper-2013\images\timeModel2.png"
       transform="translate(-196.82023,20.677612)"
       id="g3254">
      <path
         style="font-size:medium;font-style:normal;font-variant:normal;font-weight:normal;font-stretch:normal;text-indent:0;text-align:start;text-decoration:none;line-height:normal;letter-spacing:normal;word-spacing:normal;text-transform:none;direction:ltr;block-progression:tb;writing-mode:lr-tb;text-anchor:start;baseline-shift:baseline;color:#000000;fill:#008000;fill-opacity:1;fill-rule:nonzero;stroke:none;stroke-width:1px;marker:none;visibility:visible;display:inline;overflow:visible;enable-background:accumulate;font-family:Sans;-inkscape-font-specification:Sans"
         d="m 262.14286,192.51802 0,1 28.56696,0 0,-1 -28.56696,0 z"
         id="path3256"
         inkscape:connector-curvature="0" />
      <path
         inkscape:connector-curvature="0"
         style="font-size:medium;font-style:normal;font-variant:normal;font-weight:normal;font-stretch:normal;text-indent:0;text-align:start;text-decoration:none;line-height:normal;letter-spacing:normal;word-spacing:normal;text-transform:none;direction:ltr;block-progression:tb;writing-mode:lr-tb;text-anchor:start;baseline-shift:baseline;color:#000000;fill:#008000;fill-opacity:1;stroke:none;stroke-width:1px;marker:none;visibility:visible;display:inline;overflow:visible;enable-background:accumulate;font-family:Sans;-inkscape-font-specification:Sans"
         d="m 322.30802,188.92427 -0.6875,0.71875 3.40625,3.375 -3.40625,3.40625 0.6875,0.6875 3.40625,-3.40625 3.40625,3.40625 0.6875,-0.6875 -3.40625,-3.40625 3.40625,-3.375 -0.6875,-0.71875 -3.40625,3.40625 -3.40625,-3.40625 z"
         id="path3258" />
      <text
         xml:space="preserve"
         style="font-size:14px;font-style:normal;font-weight:normal;line-height:125%;letter-spacing:0px;word-spacing:0px;fill:#000000;fill-opacity:1;stroke:none;font-family:Sans"
         x="299.6095"
         y="196.6479"
         id="text3260"
         sodipodi:linespacing="125%"><tspan
           sodipodi:role="line"
           id="tspan3262"
           x="299.6095"
           y="196.6479">or</tspan></text>
    </g>
  </g>
  <g
     inkscape:label="Real time"
     inkscape:groupmode="layer"
     id="layer1"
     transform="translate(-38.78125,-52.875004)"
     style="display:inline">
    <path
       style="font-size:medium;font-style:normal;font-variant:normal;font-weight:normal;font-stretch:normal;text-indent:0;text-align:start;text-decoration:none;line-height:normal;letter-spacing:normal;word-spacing:normal;text-transform:none;direction:ltr;block-progression:tb;writing-mode:lr-tb;text-anchor:start;baseline-shift:baseline;color:#000000;fill:#000000;fill-opacity:1;stroke:none;stroke-width:1px;marker:none;visibility:visible;display:inline;overflow:visible;enable-background:accumulate;font-family:Sans;-inkscape-font-specification:Sans"
       d="m 42.800306,76.146362 0,1 641.957144,0 0,-1 -641.957144,0 z"
       id="path2987"
       inkscape:connector-curvature="0"
       inkscape:export-filename="C:\Users\yoakubera\latex-workspace\lgi2a-shared-latex-documents\kubera\similar-paper-2013\images\timeModel2.png"
       inkscape:export-xdpi="83.708908"
       inkscape:export-ydpi="83.708908" />
    <path
       sodipodi:type="star"
       style="fill:#000000;stroke:#000000;stroke-width:1.37699997;stroke-linecap:round;stroke-miterlimit:4;stroke-opacity:1;stroke-dasharray:none;stroke-dashoffset:0;display:inline"
       id="path2993"
       sodipodi:sides="3"
       sodipodi:cx="123.74369"
       sodipodi:cy="98.778175"
       sodipodi:r1="5.5558391"
       sodipodi:r2="2.7779195"
       sodipodi:arg1="0"
       sodipodi:arg2="1.0471976"
       inkscape:flatsided="true"
       inkscape:rounded="0"
       inkscape:randomized="0"
       d="m 129.29953,98.778175 -8.33376,4.811495 0,-9.622992 z"
       inkscape:transform-center-x="-1.3889598"
       transform="translate(554.76942,-22.131813)"
       inkscape:export-filename="C:\Users\yoakubera\latex-workspace\lgi2a-shared-latex-documents\kubera\similar-paper-2013\images\timeModel2.png"
       inkscape:export-xdpi="83.708908"
       inkscape:export-ydpi="83.708908" />
    <text
       xml:space="preserve"
       style="font-size:14px;font-style:normal;font-weight:normal;line-height:125%;letter-spacing:0px;word-spacing:0px;fill:#000000;fill-opacity:1;stroke:none;display:inline;font-family:Sans"
       x="612.52112"
       y="72.595367"
       id="text2995"
       sodipodi:linespacing="125%"
       inkscape:export-filename="C:\Users\yoakubera\latex-workspace\lgi2a-shared-latex-documents\kubera\similar-paper-2013\images\timeModel2.png"
       inkscape:export-xdpi="83.708908"
       inkscape:export-ydpi="83.708908"><tspan
         sodipodi:role="line"
         id="tspan2997"
         x="612.52112"
         y="72.595367">Real time</tspan></text>
  </g>
  <g
     style="display:none"
     transform="translate(-38.78125,-52.875004)"
     id="g3076"
     inkscape:groupmode="layer"
     inkscape:label="Simulation #1">
    <text
       inkscape:export-ydpi="83.708908"
       inkscape:export-xdpi="83.708908"
       inkscape:export-filename="C:\Users\yoakubera\latex-workspace\lgi2a-shared-latex-documents\kubera\similar-paper-2013\images\timeModel2.png"
       sodipodi:linespacing="125%"
       id="text3086"
       y="130.57211"
       x="503.2092"
       style="font-size:14px;font-style:normal;font-weight:normal;line-height:125%;letter-spacing:0px;word-spacing:0px;fill:#000000;fill-opacity:1;stroke:none;display:inline;font-family:Sans"
       xml:space="preserve"><tspan
         y="130.57211"
         x="503.2092"
         id="tspan3088"
         sodipodi:role="line">Time model of a simulation</tspan></text>
    <path
       inkscape:connector-curvature="0"
       inkscape:export-ydpi="83.708908"
       inkscape:export-xdpi="83.708908"
       inkscape:export-filename="C:\Users\yoakubera\latex-workspace\lgi2a-shared-latex-documents\kubera\similar-paper-2013\images\timeModel2.png"
       id="path3090"
       d="m 99.894056,138.74011 -0.6875,0.71875 2.906254,2.875 -58.562504,0 0,1 58.562504,0 -2.906254,2.90625 0.6875,0.6875 3.406254,-3.40625 3.40625,3.40625 0.6875,-0.6875 -3.40625,-3.40625 3.40625,-3.375 -0.6875,-0.71875 -3.40625,3.40625 -3.406254,-3.40625 z"
       style="font-size:medium;font-style:normal;font-variant:normal;font-weight:normal;font-stretch:normal;text-indent:0;text-align:start;text-decoration:none;line-height:normal;letter-spacing:normal;word-spacing:normal;text-transform:none;direction:ltr;block-progression:tb;writing-mode:lr-tb;text-anchor:start;baseline-shift:baseline;color:#000000;fill:#008000;fill-opacity:1;stroke:none;stroke-width:1px;marker:none;visibility:visible;display:inline;overflow:visible;enable-background:accumulate;font-family:Sans;-inkscape-font-specification:Sans" />
    <path
       inkscape:connector-curvature="0"
       inkscape:export-ydpi="83.708908"
       inkscape:export-xdpi="83.708908"
       inkscape:export-filename="C:\Users\yoakubera\latex-workspace\lgi2a-shared-latex-documents\kubera\similar-paper-2013\images\timeModel2.png"
       id="path3092"
       d="m 159.89406,138.74011 -0.6875,0.71875 3.40625,3.375 -3.40625,3.40625 0.6875,0.6875 3.40625,-3.40625 3.40625,3.40625 0.6875,-0.6875 -3.40625,-3.40625 3.40625,-3.375 -0.6875,-0.71875 -3.40625,3.40625 -3.40625,-3.40625 z"
       style="font-size:medium;font-style:normal;font-variant:normal;font-weight:normal;font-stretch:normal;text-indent:0;text-align:start;text-decoration:none;line-height:normal;letter-spacing:normal;word-spacing:normal;text-transform:none;direction:ltr;block-progression:tb;writing-mode:lr-tb;text-anchor:start;baseline-shift:baseline;color:#000000;fill:#008000;fill-opacity:1;stroke:none;stroke-width:1px;marker:none;visibility:visible;display:inline;overflow:visible;enable-background:accumulate;font-family:Sans;-inkscape-font-specification:Sans" />
    <path
       inkscape:connector-curvature="0"
       inkscape:export-ydpi="83.708908"
       inkscape:export-xdpi="83.708908"
       inkscape:export-filename="C:\Users\yoakubera\latex-workspace\lgi2a-shared-latex-documents\kubera\similar-paper-2013\images\timeModel2.png"
       id="path3096"
       d="m 579.89406,138.74011 -0.6875,0.71875 3.40625,3.375 -3.40625,3.40625 0.6875,0.6875 3.40625,-3.40625 3.40625,3.40625 0.6875,-0.6875 -2.90625,-2.90625 101.03125,0 0,-1 -101.03125,0 2.90625,-2.875 -0.6875,-0.71875 -3.40625,3.40625 -3.40625,-3.40625 z"
       style="font-size:medium;font-style:normal;font-variant:normal;font-weight:normal;font-stretch:normal;text-indent:0;text-align:start;text-decoration:none;line-height:normal;letter-spacing:normal;word-spacing:normal;text-transform:none;direction:ltr;block-progression:tb;writing-mode:lr-tb;text-anchor:start;baseline-shift:baseline;color:#000000;fill:#008000;fill-opacity:1;stroke:none;stroke-width:1px;marker:none;visibility:visible;display:inline;overflow:visible;enable-background:accumulate;font-family:Sans;-inkscape-font-specification:Sans" />
    <path
       inkscape:export-ydpi="83.708908"
       inkscape:export-xdpi="83.708908"
       inkscape:export-filename="C:\Users\yoakubera\latex-workspace\lgi2a-shared-latex-documents\kubera\similar-paper-2013\images\timeModel2.png"
       transform="translate(555.51921,44.06538)"
       inkscape:transform-center-x="-1.3889598"
       d="m 129.29953,98.778175 -8.33376,4.811495 0,-9.622992 z"
       inkscape:randomized="0"
       inkscape:rounded="0"
       inkscape:flatsided="true"
       sodipodi:arg2="1.0471976"
       sodipodi:arg1="0"
       sodipodi:r2="2.7779195"
       sodipodi:r1="5.5558391"
       sodipodi:cy="98.778175"
       sodipodi:cx="123.74369"
       sodipodi:sides="3"
       id="path3098"
       style="fill:#000000;stroke:#000000;stroke-width:1.37699997;stroke-linecap:round;stroke-miterlimit:4;stroke-opacity:1;stroke-dasharray:none;stroke-dashoffset:0;display:inline"
       sodipodi:type="star" />
    <g
       style="display:inline"
       transform="translate(2.894056,31.677612)"
       inkscape:export-ydpi="83.708908"
       inkscape:export-xdpi="83.708908"
       inkscape:export-filename="C:\Users\yoakubera\latex-workspace\lgi2a-shared-latex-documents\kubera\similar-paper-2013\images\timeModel2.png"
       id="g3100">
      <text
         xml:space="preserve"
         style="font-size:14px;font-style:normal;font-weight:normal;line-height:125%;letter-spacing:0px;word-spacing:0px;fill:#000000;fill-opacity:1;stroke:none;font-family:Sans"
         x="90.714287"
         y="128.07646"
         id="text3102"
         sodipodi:linespacing="125%"><tspan
           sodipodi:role="line"
           id="tspan3104"
           x="90.714287"
           y="128.07646"
           style="font-size:14px">t</tspan></text>
      <text
         xml:space="preserve"
         style="font-size:14px;font-style:normal;font-weight:normal;line-height:125%;letter-spacing:0px;word-spacing:0px;fill:#000000;fill-opacity:1;stroke:none;font-family:Sans"
         x="95.35714"
         y="132.71933"
         id="text3106"
         sodipodi:linespacing="125%"><tspan
           sodipodi:role="line"
           id="tspan3108"
           x="95.35714"
           y="132.71933"
           style="font-size:11px">min</tspan></text>
    </g>
    <g
       style="display:inline"
       inkscape:export-ydpi="83.708908"
       inkscape:export-xdpi="83.708908"
       inkscape:export-filename="C:\Users\yoakubera\latex-workspace\lgi2a-shared-latex-documents\kubera\similar-paper-2013\images\timeModel2.png"
       transform="translate(451.90929,-2.633483)"
       id="g3110">
      <text
         xml:space="preserve"
         style="font-size:14px;font-style:normal;font-weight:normal;line-height:125%;letter-spacing:0px;word-spacing:0px;fill:#000000;fill-opacity:1;stroke:none;font-family:Sans"
         x="126.56383"
         y="166.95265"
         id="text3112"
         sodipodi:linespacing="125%"><tspan
           sodipodi:role="line"
           id="tspan3114"
           x="126.56383"
           y="166.95265"
           style="font-size:11px">max</tspan></text>
      <text
         xml:space="preserve"
         style="font-size:14px;font-style:normal;font-weight:normal;line-height:125%;letter-spacing:0px;word-spacing:0px;fill:#000000;fill-opacity:1;stroke:none;font-family:Sans"
         x="121.92097"
         y="162.43869"
         id="text3116"
         sodipodi:linespacing="125%"><tspan
           sodipodi:role="line"
           id="tspan3118"
           x="121.92097"
           y="162.43869"
           style="font-size:14px">t</tspan></text>
    </g>
    <path
       inkscape:export-ydpi="83.708908"
       inkscape:export-xdpi="83.708908"
       inkscape:export-filename="C:\Users\yoakubera\latex-workspace\lgi2a-shared-latex-documents\kubera\similar-paper-2013\images\timeModel2.png"
       inkscape:connector-curvature="0"
       style="font-size:medium;font-style:normal;font-variant:normal;font-weight:normal;font-stretch:normal;text-indent:0;text-align:start;text-decoration:none;line-height:normal;letter-spacing:normal;word-spacing:normal;text-transform:none;direction:ltr;block-progression:tb;writing-mode:lr-tb;text-anchor:start;baseline-shift:baseline;color:#000000;fill:#008000;fill-opacity:1;stroke:none;stroke-width:1px;marker:none;visibility:visible;display:inline;overflow:visible;enable-background:accumulate;font-family:Sans;-inkscape-font-specification:Sans"
       d="m 219.89406,138.74011 -0.6875,0.71875 3.40625,3.375 -3.40625,3.40625 0.6875,0.6875 3.40625,-3.40625 3.40625,3.40625 0.6875,-0.6875 -3.40625,-3.40625 3.40625,-3.375 -0.6875,-0.71875 -3.40625,3.40625 -3.40625,-3.40625 z"
       id="path3132" />
    <path
       inkscape:export-ydpi="83.708908"
       inkscape:export-xdpi="83.708908"
       inkscape:export-filename="C:\Users\yoakubera\latex-workspace\lgi2a-shared-latex-documents\kubera\similar-paper-2013\images\timeModel2.png"
       id="path3134"
       d="m 279.89406,138.74011 -0.6875,0.71875 3.40625,3.375 -3.40625,3.40625 0.6875,0.6875 3.40625,-3.40625 3.40625,3.40625 0.6875,-0.6875 -3.40625,-3.40625 3.40625,-3.375 -0.6875,-0.71875 -3.40625,3.40625 -3.40625,-3.40625 z"
       style="font-size:medium;font-style:normal;font-variant:normal;font-weight:normal;font-stretch:normal;text-indent:0;text-align:start;text-decoration:none;line-height:normal;letter-spacing:normal;word-spacing:normal;text-transform:none;direction:ltr;block-progression:tb;writing-mode:lr-tb;text-anchor:start;baseline-shift:baseline;color:#000000;fill:#008000;fill-opacity:1;stroke:none;stroke-width:1px;marker:none;visibility:visible;display:inline;overflow:visible;enable-background:accumulate;font-family:Sans;-inkscape-font-specification:Sans"
       inkscape:connector-curvature="0" />
    <path
       inkscape:export-ydpi="83.708908"
       inkscape:export-xdpi="83.708908"
       inkscape:export-filename="C:\Users\yoakubera\latex-workspace\lgi2a-shared-latex-documents\kubera\similar-paper-2013\images\timeModel2.png"
       id="path3136"
       d="m 459.89406,138.74011 -0.6875,0.71875 3.40625,3.375 -3.40625,3.40625 0.6875,0.6875 3.40625,-3.40625 3.40625,3.40625 0.6875,-0.6875 -3.40625,-3.40625 3.40625,-3.375 -0.6875,-0.71875 -3.40625,3.40625 -3.40625,-3.40625 z"
       style="font-size:medium;font-style:normal;font-variant:normal;font-weight:normal;font-stretch:normal;text-indent:0;text-align:start;text-decoration:none;line-height:normal;letter-spacing:normal;word-spacing:normal;text-transform:none;direction:ltr;block-progression:tb;writing-mode:lr-tb;text-anchor:start;baseline-shift:baseline;color:#000000;fill:#008000;fill-opacity:1;stroke:none;stroke-width:1px;marker:none;visibility:visible;display:inline;overflow:visible;enable-background:accumulate;font-family:Sans;-inkscape-font-specification:Sans"
       inkscape:connector-curvature="0" />
    <path
       inkscape:export-ydpi="83.708908"
       inkscape:export-xdpi="83.708908"
       inkscape:export-filename="C:\Users\yoakubera\latex-workspace\lgi2a-shared-latex-documents\kubera\similar-paper-2013\images\timeModel2.png"
       inkscape:connector-curvature="0"
       style="font-size:medium;font-style:normal;font-variant:normal;font-weight:normal;font-stretch:normal;text-indent:0;text-align:start;text-decoration:none;line-height:normal;letter-spacing:normal;word-spacing:normal;text-transform:none;direction:ltr;block-progression:tb;writing-mode:lr-tb;text-anchor:start;baseline-shift:baseline;color:#000000;fill:#008000;fill-opacity:1;stroke:none;stroke-width:1px;marker:none;visibility:visible;display:inline;overflow:visible;enable-background:accumulate;font-family:Sans;-inkscape-font-specification:Sans"
       d="m 519.89406,138.74011 -0.6875,0.71875 3.40625,3.375 -3.40625,3.40625 0.6875,0.6875 3.40625,-3.40625 3.40625,3.40625 0.6875,-0.6875 -3.40625,-3.40625 3.40625,-3.375 -0.6875,-0.71875 -3.40625,3.40625 -3.40625,-3.40625 z"
       id="path3138" />
    <g
       style="display:inline"
       inkscape:export-ydpi="83.708908"
       inkscape:export-xdpi="83.708908"
       inkscape:export-filename="C:\Users\yoakubera\latex-workspace\lgi2a-shared-latex-documents\kubera\similar-paper-2013\images\timeModel2.png"
       id="g3142"
       transform="translate(62.253305,31.677612)">
      <text
         xml:space="preserve"
         style="font-size:14px;font-style:normal;font-weight:normal;line-height:125%;letter-spacing:0px;word-spacing:0px;fill:#000000;fill-opacity:1;stroke:none;font-family:Sans"
         x="90.714287"
         y="128.07646"
         id="text3144"
         sodipodi:linespacing="125%"><tspan
           sodipodi:role="line"
           id="tspan3146"
           x="90.714287"
           y="128.07646"
           style="font-size:14px">t</tspan></text>
      <text
         xml:space="preserve"
         style="font-size:14px;font-style:normal;font-weight:normal;line-height:125%;letter-spacing:0px;word-spacing:0px;fill:#000000;fill-opacity:1;stroke:none;font-family:Sans"
         x="95.35714"
         y="132.71933"
         id="text3148"
         sodipodi:linespacing="125%"><tspan
           sodipodi:role="line"
           id="tspan3150"
           x="95.35714"
           y="132.71933"
           style="font-size:11px">1</tspan></text>
    </g>
    <g
       style="display:inline"
       inkscape:export-ydpi="83.708908"
       inkscape:export-xdpi="83.708908"
       inkscape:export-filename="C:\Users\yoakubera\latex-workspace\lgi2a-shared-latex-documents\kubera\similar-paper-2013\images\timeModel2.png"
       id="g3152"
       transform="translate(125.38784,31.677612)">
      <text
         xml:space="preserve"
         style="font-size:14px;font-style:normal;font-weight:normal;line-height:125%;letter-spacing:0px;word-spacing:0px;fill:#000000;fill-opacity:1;stroke:none;font-family:Sans"
         x="90.714287"
         y="128.07646"
         id="text3154"
         sodipodi:linespacing="125%"><tspan
           sodipodi:role="line"
           id="tspan3156"
           x="90.714287"
           y="128.07646"
           style="font-size:14px">t</tspan></text>
      <text
         xml:space="preserve"
         style="font-size:14px;font-style:normal;font-weight:normal;line-height:125%;letter-spacing:0px;word-spacing:0px;fill:#000000;fill-opacity:1;stroke:none;font-family:Sans"
         x="95.35714"
         y="132.71933"
         id="text3158"
         sodipodi:linespacing="125%"><tspan
           sodipodi:role="line"
           id="tspan3160"
           x="95.35714"
           y="132.71933"
           style="font-size:11px">2</tspan></text>
    </g>
    <g
       style="display:inline"
       inkscape:export-ydpi="83.708908"
       inkscape:export-xdpi="83.708908"
       inkscape:export-filename="C:\Users\yoakubera\latex-workspace\lgi2a-shared-latex-documents\kubera\similar-paper-2013\images\timeModel2.png"
       id="g3162"
       transform="translate(184.48177,31.677612)">
      <text
         xml:space="preserve"
         style="font-size:14px;font-style:normal;font-weight:normal;line-height:125%;letter-spacing:0px;word-spacing:0px;fill:#000000;fill-opacity:1;stroke:none;font-family:Sans"
         x="90.714287"
         y="128.07646"
         id="text3164"
         sodipodi:linespacing="125%"><tspan
           sodipodi:role="line"
           id="tspan3166"
           x="90.714287"
           y="128.07646"
           style="font-size:14px">t</tspan></text>
      <text
         xml:space="preserve"
         style="font-size:14px;font-style:normal;font-weight:normal;line-height:125%;letter-spacing:0px;word-spacing:0px;fill:#000000;fill-opacity:1;stroke:none;font-family:Sans"
         x="95.35714"
         y="132.71933"
         id="text3168"
         sodipodi:linespacing="125%"><tspan
           sodipodi:role="line"
           id="tspan3170"
           x="95.35714"
           y="132.71933"
           style="font-size:11px">3</tspan></text>
    </g>
    <g
       style="display:inline"
       inkscape:export-ydpi="83.708908"
       inkscape:export-xdpi="83.708908"
       inkscape:export-filename="C:\Users\yoakubera\latex-workspace\lgi2a-shared-latex-documents\kubera\similar-paper-2013\images\timeModel2.png"
       id="g3172"
       transform="translate(423.88792,31.677612)">
      <text
         xml:space="preserve"
         style="font-size:14px;font-style:normal;font-weight:normal;line-height:125%;letter-spacing:0px;word-spacing:0px;fill:#000000;fill-opacity:1;stroke:none;font-family:Sans"
         x="90.714287"
         y="128.07646"
         id="text3174"
         sodipodi:linespacing="125%"><tspan
           sodipodi:role="line"
           id="tspan3176"
           x="90.714287"
           y="128.07646"
           style="font-size:14px">t</tspan></text>
      <text
         xml:space="preserve"
         style="font-size:14px;font-style:normal;font-weight:normal;line-height:125%;letter-spacing:0px;word-spacing:0px;fill:#000000;fill-opacity:1;stroke:none;font-family:Sans"
         x="95.35714"
         y="132.71933"
         id="text3178"
         sodipodi:linespacing="125%"><tspan
           sodipodi:role="line"
           id="tspan3180"
           x="95.35714"
           y="132.71933"
           style="font-size:11px">max - 1</tspan></text>
    </g>
    <g
       style="display:inline"
       inkscape:export-ydpi="83.708908"
       inkscape:export-xdpi="83.708908"
       inkscape:export-filename="C:\Users\yoakubera\latex-workspace\lgi2a-shared-latex-documents\kubera\similar-paper-2013\images\timeModel2.png"
       id="g3182"
       transform="translate(361.25846,31.677612)">
      <text
         xml:space="preserve"
         style="font-size:14px;font-style:normal;font-weight:normal;line-height:125%;letter-spacing:0px;word-spacing:0px;fill:#000000;fill-opacity:1;stroke:none;font-family:Sans"
         x="90.714287"
         y="128.07646"
         id="text3184"
         sodipodi:linespacing="125%"><tspan
           sodipodi:role="line"
           id="tspan3186"
           x="90.714287"
           y="128.07646"
           style="font-size:14px">t</tspan></text>
      <text
         xml:space="preserve"
         style="font-size:14px;font-style:normal;font-weight:normal;line-height:125%;letter-spacing:0px;word-spacing:0px;fill:#000000;fill-opacity:1;stroke:none;font-family:Sans"
         x="95.35714"
         y="132.71933"
         id="text3188"
         sodipodi:linespacing="125%"><tspan
           sodipodi:role="line"
           id="tspan3190"
           x="95.35714"
           y="132.71933"
           style="font-size:11px">max - 2</tspan></text>
    </g>
  </g>
  <g
     inkscape:label="Simulation #2"
     inkscape:groupmode="layer"
     id="g3266"
     transform="translate(-38.78125,-52.875004)"
     style="display:none">
    <path
       style="font-size:medium;font-style:normal;font-variant:normal;font-weight:normal;font-stretch:normal;text-indent:0;text-align:start;text-decoration:none;line-height:normal;letter-spacing:normal;word-spacing:normal;text-transform:none;direction:ltr;block-progression:tb;writing-mode:lr-tb;text-anchor:start;baseline-shift:baseline;color:#000000;fill:#ff0000;fill-opacity:1;stroke:none;stroke-width:1px;marker:none;visibility:visible;display:inline;overflow:visible;enable-background:accumulate;font-family:Sans;-inkscape-font-specification:Sans"
       d="m 108.76906,136.83386 0,1.1875 c 0.0103,-6e-5 0.0209,0 0.0312,0 2.67155,0 4.78125,2.16447 4.78125,4.84375 0,2.67929 -2.1097,4.8125 -4.78125,4.8125 -0.0103,0 -0.0209,6e-5 -0.0312,0 l 0,1.15625 c 3.12775,-0.0159 5.70293,-2.43455 5.96875,-5.5 l 37.625,0 c 0.26582,3.06545 2.841,5.48414 5.96875,5.5 l 0,-1.15625 c -0.0103,6e-5 -0.0209,0 -0.0312,0 -2.67155,0 -4.78125,-2.13321 -4.78125,-4.8125 0,-2.67928 2.1097,-4.84375 4.78125,-4.84375 0.0103,0 0.0209,-6e-5 0.0312,0 l 0,-1.1875 c -3.14835,0.0157 -5.73198,2.4113 -5.96875,5.5 l -37.625,0 c -0.23677,-3.0887 -2.8204,-5.48427 -5.96875,-5.5 z"
       id="path3276"
       inkscape:connector-curvature="0"
       inkscape:export-filename="C:\Users\yoakubera\latex-workspace\lgi2a-shared-latex-documents\kubera\similar-paper-2013\images\timeModel.png"
       inkscape:export-xdpi="83.708908"
       inkscape:export-ydpi="83.708908"
       sodipodi:nodetypes="ccsssccccccsssccccc" />
    <path
       inkscape:connector-curvature="0"
       id="path3302"
       d="m 168.76906,136.83386 0,1.1875 c 0.0103,-6e-5 0.0209,0 0.0312,0 2.67155,0 4.78125,2.16447 4.78125,4.84375 0,2.67929 -2.1097,4.8125 -4.78125,4.8125 -0.0103,0 -0.0209,6e-5 -0.0312,0 l 0,1.15625 c 3.12775,-0.0159 5.70293,-2.43455 5.96875,-5.5 l 37.625,0 c 0.26582,3.06545 2.841,5.48414 5.96875,5.5 l 0,-1.15625 c -0.0103,6e-5 -0.0209,0 -0.0312,0 -2.67155,0 -4.78125,-2.13321 -4.78125,-4.8125 0,-2.67928 2.1097,-4.84375 4.78125,-4.84375 0.0103,0 0.0209,-6e-5 0.0312,0 l 0,-1.1875 c -3.14835,0.0157 -5.73198,2.4113 -5.96875,5.5 l -37.625,0 c -0.23677,-3.0887 -2.8204,-5.48427 -5.96875,-5.5 z"
       style="font-size:medium;font-style:normal;font-variant:normal;font-weight:normal;font-stretch:normal;text-indent:0;text-align:start;text-decoration:none;line-height:normal;letter-spacing:normal;word-spacing:normal;text-transform:none;direction:ltr;block-progression:tb;writing-mode:lr-tb;text-anchor:start;baseline-shift:baseline;color:#000000;fill:#ff0000;fill-opacity:1;stroke:none;stroke-width:1px;marker:none;visibility:visible;display:inline;overflow:visible;enable-background:accumulate;font-family:Sans;-inkscape-font-specification:Sans"
       inkscape:export-filename="C:\Users\yoakubera\latex-workspace\lgi2a-shared-latex-documents\kubera\similar-paper-2013\images\timeModel.png"
       inkscape:export-xdpi="83.708908"
       inkscape:export-ydpi="83.708908"
       sodipodi:nodetypes="ccsssccccccsssccccc" />
    <path
       style="font-size:medium;font-style:normal;font-variant:normal;font-weight:normal;font-stretch:normal;text-indent:0;text-align:start;text-decoration:none;line-height:normal;letter-spacing:normal;word-spacing:normal;text-transform:none;direction:ltr;block-progression:tb;writing-mode:lr-tb;text-anchor:start;baseline-shift:baseline;color:#000000;fill:#ff0000;fill-opacity:1;stroke:none;stroke-width:1px;marker:none;visibility:visible;display:inline;overflow:visible;enable-background:accumulate;font-family:Sans;-inkscape-font-specification:Sans"
       d="m 228.76906,136.83386 0,1.1875 c 0.0103,-6e-5 0.0209,0 0.0312,0 2.67155,0 4.78125,2.16447 4.78125,4.84375 0,2.67929 -2.1097,4.8125 -4.78125,4.8125 -0.0103,0 -0.0209,6e-5 -0.0312,0 l 0,1.15625 c 3.12775,-0.0159 5.70293,-2.43455 5.96875,-5.5 l 37.625,0 c 0.26582,3.06545 2.841,5.48414 5.96875,5.5 l 0,-1.15625 c -0.0103,6e-5 -0.0209,0 -0.0312,0 -2.67155,0 -4.78125,-2.13321 -4.78125,-4.8125 0,-2.67928 2.1097,-4.84375 4.78125,-4.84375 0.0103,0 0.0209,-6e-5 0.0312,0 l 0,-1.1875 c -3.14835,0.0157 -5.73198,2.4113 -5.96875,5.5 l -37.625,0 c -0.23677,-3.0887 -2.8204,-5.48427 -5.96875,-5.5 z"
       id="path3304"
       inkscape:connector-curvature="0"
       inkscape:export-filename="C:\Users\yoakubera\latex-workspace\lgi2a-shared-latex-documents\kubera\similar-paper-2013\images\timeModel.png"
       inkscape:export-xdpi="83.708908"
       inkscape:export-ydpi="83.708908"
       sodipodi:nodetypes="ccsssccccccsssccccc" />
    <path
       style="font-size:medium;font-style:normal;font-variant:normal;font-weight:normal;font-stretch:normal;text-indent:0;text-align:start;text-decoration:none;line-height:normal;letter-spacing:normal;word-spacing:normal;text-transform:none;direction:ltr;block-progression:tb;writing-mode:lr-tb;text-anchor:start;baseline-shift:baseline;color:#000000;fill:#ff0000;fill-opacity:1;stroke:none;stroke-width:1px;marker:none;visibility:visible;display:inline;overflow:visible;enable-background:accumulate;font-family:Sans;-inkscape-font-specification:Sans"
       d="m 288.76906,136.83386 0,1.1875 c 0.0103,-6e-5 0.021,0 0.0312,0 2.67155,0 4.78125,2.16447 4.78125,4.84375 0,2.67929 -2.1097,4.8125 -4.78125,4.8125 -0.0103,0 -0.021,6e-5 -0.0312,0 l 0,1.15625 c 3.12775,-0.0159 5.70293,-2.43455 5.96875,-5.5 l 37.09375,0 0,-1 -37.09375,0 c -0.23677,-3.0887 -2.8204,-5.48427 -5.96875,-5.5 z"
       id="path3306"
       inkscape:export-filename="C:\Users\yoakubera\latex-workspace\lgi2a-shared-latex-documents\kubera\similar-paper-2013\images\timeModel.png"
       inkscape:export-xdpi="83.708908"
       inkscape:export-ydpi="83.708908"
       inkscape:connector-curvature="0"
       sodipodi:nodetypes="ccsssccccccc" />
    <path
       style="font-size:medium;font-style:normal;font-variant:normal;font-weight:normal;font-stretch:normal;text-indent:0;text-align:start;text-decoration:none;line-height:normal;letter-spacing:normal;word-spacing:normal;text-transform:none;direction:ltr;block-progression:tb;writing-mode:lr-tb;text-anchor:start;baseline-shift:baseline;color:#000000;fill:#ff0000;fill-opacity:1;stroke:none;stroke-width:1px;marker:none;visibility:visible;display:inline;overflow:visible;enable-background:accumulate;font-family:Sans;-inkscape-font-specification:Sans"
       d="m 458.33156,136.83386 c -3.14835,0.0157 -5.73198,2.4113 -5.96875,5.5 l -33.78125,0 0,1 33.78125,0 c 0.26582,3.06545 2.841,5.48414 5.96875,5.5 l 0,-1.15625 c -0.0103,6e-5 -0.021,0 -0.0312,0 -2.67155,0 -4.78125,-2.13321 -4.78125,-4.8125 0,-2.67928 2.1097,-4.84375 4.78125,-4.84375 0.0103,0 0.021,-6e-5 0.0312,0 z"
       id="path3308"
       inkscape:export-filename="C:\Users\yoakubera\latex-workspace\lgi2a-shared-latex-documents\kubera\similar-paper-2013\images\timeModel.png"
       inkscape:export-xdpi="83.708908"
       inkscape:export-ydpi="83.708908"
       inkscape:connector-curvature="0"
       sodipodi:nodetypes="cccccccssscc" />
    <path
       inkscape:connector-curvature="0"
       id="path3310"
       d="m 468.76906,136.83386 0,1.1875 c 0.0103,-6e-5 0.0209,0 0.0312,0 2.67155,0 4.78125,2.16447 4.78125,4.84375 0,2.67929 -2.1097,4.8125 -4.78125,4.8125 -0.0103,0 -0.0209,6e-5 -0.0312,0 l 0,1.15625 c 3.12775,-0.0159 5.70293,-2.43455 5.96875,-5.5 l 37.625,0 c 0.26582,3.06545 2.841,5.48414 5.96875,5.5 l 0,-1.15625 c -0.0103,6e-5 -0.0209,0 -0.0312,0 -2.67155,0 -4.78125,-2.13321 -4.78125,-4.8125 0,-2.67928 2.1097,-4.84375 4.78125,-4.84375 0.0103,0 0.0209,-6e-5 0.0312,0 l 0,-1.1875 c -3.14835,0.0157 -5.73198,2.4113 -5.96875,5.5 l -37.625,0 c -0.23677,-3.0887 -2.8204,-5.48427 -5.96875,-5.5 z"
       style="font-size:medium;font-style:normal;font-variant:normal;font-weight:normal;font-stretch:normal;text-indent:0;text-align:start;text-decoration:none;line-height:normal;letter-spacing:normal;word-spacing:normal;text-transform:none;direction:ltr;block-progression:tb;writing-mode:lr-tb;text-anchor:start;baseline-shift:baseline;color:#000000;fill:#ff0000;fill-opacity:1;stroke:none;stroke-width:1px;marker:none;visibility:visible;display:inline;overflow:visible;enable-background:accumulate;font-family:Sans;-inkscape-font-specification:Sans"
       inkscape:export-filename="C:\Users\yoakubera\latex-workspace\lgi2a-shared-latex-documents\kubera\similar-paper-2013\images\timeModel.png"
       inkscape:export-xdpi="83.708908"
       inkscape:export-ydpi="83.708908"
       sodipodi:nodetypes="ccsssccccccsssccccc" />
    <path
       style="font-size:medium;font-style:normal;font-variant:normal;font-weight:normal;font-stretch:normal;text-indent:0;text-align:start;text-decoration:none;line-height:normal;letter-spacing:normal;word-spacing:normal;text-transform:none;direction:ltr;block-progression:tb;writing-mode:lr-tb;text-anchor:start;baseline-shift:baseline;color:#000000;fill:#ff0000;fill-opacity:1;stroke:none;stroke-width:1px;marker:none;visibility:visible;display:inline;overflow:visible;enable-background:accumulate;font-family:Sans;-inkscape-font-specification:Sans"
       d="m 528.76906,136.83386 0,1.1875 c 0.0103,-6e-5 0.0209,0 0.0312,0 2.67155,0 4.78125,2.16447 4.78125,4.84375 0,2.67929 -2.1097,4.8125 -4.78125,4.8125 -0.0103,0 -0.0209,6e-5 -0.0312,0 l 0,1.15625 c 3.12775,-0.0159 5.70293,-2.43455 5.96875,-5.5 l 37.625,0 c 0.26582,3.06545 2.841,5.48414 5.96875,5.5 l 0,-1.15625 c -0.0103,6e-5 -0.0209,0 -0.0312,0 -2.67155,0 -4.78125,-2.13321 -4.78125,-4.8125 0,-2.67928 2.1097,-4.84375 4.78125,-4.84375 0.0103,0 0.0209,-6e-5 0.0312,0 l 0,-1.1875 c -3.14835,0.0157 -5.73198,2.4113 -5.96875,5.5 l -37.625,0 c -0.23677,-3.0887 -2.8204,-5.48427 -5.96875,-5.5 z"
       id="path3312"
       inkscape:connector-curvature="0"
       inkscape:export-filename="C:\Users\yoakubera\latex-workspace\lgi2a-shared-latex-documents\kubera\similar-paper-2013\images\timeModel.png"
       inkscape:export-xdpi="83.708908"
       inkscape:export-ydpi="83.708908"
       sodipodi:nodetypes="ccsssccccccsssccccc" />
    <path
       style="font-size:medium;font-style:normal;font-variant:normal;font-weight:normal;font-stretch:normal;text-indent:0;text-align:start;text-decoration:none;line-height:normal;letter-spacing:normal;word-spacing:normal;text-transform:none;direction:ltr;block-progression:tb;writing-mode:lr-tb;text-anchor:start;baseline-shift:baseline;color:#000000;fill:#ff0000;fill-opacity:1;stroke:none;stroke-width:1;marker:none;visibility:visible;display:inline;overflow:visible;enable-background:accumulate;font-family:Sans;-inkscape-font-specification:Sans"
       d="m 330.76906,143.33386 8,0 0,-1 -8,0 z m 16,0 8,0 0,-1 -8,0 z m 16,0 8,0 0,-1 -8,0 z m 16,0 8,0 0,-1 -8,0 z m 16,0 8,0 0,-1 -8,0 z m 16,0 8,0 0,-1 -8,0 z"
       id="path3322"
       inkscape:connector-curvature="0"
       inkscape:export-filename="C:\Users\yoakubera\latex-workspace\lgi2a-shared-latex-documents\kubera\similar-paper-2013\images\timeModel.png"
       inkscape:export-xdpi="83.708908"
       inkscape:export-ydpi="83.708908" />
    <text
       inkscape:export-ydpi="83.708908"
       inkscape:export-xdpi="83.708908"
       inkscape:export-filename="C:\Users\yoakubera\latex-workspace\lgi2a-shared-latex-documents\kubera\similar-paper-2013\images\timeModel.png"
       sodipodi:linespacing="125%"
       id="text3248"
       y="233.80569"
       x="138.70607"
       style="font-size:14px;font-style:normal;font-weight:normal;line-height:125%;letter-spacing:0px;word-spacing:0px;fill:#000000;fill-opacity:1;stroke:none;display:inline;font-family:Sans"
       xml:space="preserve"><tspan
         y="233.80569"
         x="138.70607"
         id="tspan3250"
         sodipodi:role="line">: Moments when the state of the simulation is <tspan
   id="tspan3252"
   style="font-weight:bold;-inkscape-font-specification:Sans Bold">transitory</tspan>.</tspan></text>
    <path
       sodipodi:nodetypes="ccsssccccccsssccccc"
       inkscape:export-ydpi="83.708908"
       inkscape:export-xdpi="83.708908"
       inkscape:export-filename="C:\Users\yoakubera\latex-workspace\lgi2a-shared-latex-documents\kubera\similar-paper-2013\images\timeModel.png"
       inkscape:connector-curvature="0"
       id="path3264"
       d="m 65.251199,222.55261 0,1.1875 c 0.0103,-6e-5 0.0209,0 0.0312,0 2.67155,0 4.78125,2.16447 4.78125,4.84375 0,2.67929 -2.1097,4.8125 -4.78125,4.8125 -0.0103,0 -0.0209,6e-5 -0.0312,0 l 0,1.15625 c 3.12775,-0.0159 5.70293,-2.43455 5.96875,-5.5 l 55.625001,0 c 0.26582,3.06545 2.841,5.48414 5.96875,5.5 l 0,-1.15625 c -0.0103,6e-5 -0.0209,0 -0.0312,0 -2.67155,0 -4.78125,-2.13321 -4.78125,-4.8125 0,-2.67928 2.1097,-4.84375 4.78125,-4.84375 0.0103,0 0.0209,-6e-5 0.0312,0 l 0,-1.1875 c -3.14835,0.0157 -5.73198,2.4113 -5.96875,5.5 l -55.625001,0 c -0.23677,-3.0887 -2.8204,-5.48427 -5.96875,-5.5 z"
       style="font-size:medium;font-style:normal;font-variant:normal;font-weight:normal;font-stretch:normal;text-indent:0;text-align:start;text-decoration:none;line-height:normal;letter-spacing:normal;word-spacing:normal;text-transform:none;direction:ltr;block-progression:tb;writing-mode:lr-tb;text-anchor:start;baseline-shift:baseline;color:#000000;fill:#ff0000;fill-opacity:1;stroke:none;stroke-width:1px;marker:none;visibility:visible;display:inline;overflow:visible;enable-background:accumulate;font-family:Sans;-inkscape-font-specification:Sans" />
  </g>
</svg>
