<?xml version="1.0" encoding="UTF-8" standalone="no"?>
<!-- Created with Inkscape (http://www.inkscape.org/) -->

<svg
   xmlns:dc="http://purl.org/dc/elements/1.1/"
   xmlns:cc="http://creativecommons.org/ns#"
   xmlns:rdf="http://www.w3.org/1999/02/22-rdf-syntax-ns#"
   xmlns:svg="http://www.w3.org/2000/svg"
   xmlns="http://www.w3.org/2000/svg"
   xmlns:sodipodi="http://sodipodi.sourceforge.net/DTD/sodipodi-0.dtd"
   xmlns:inkscape="http://www.inkscape.org/namespaces/inkscape"
   width="1123.1981"
   height="425.42877"
   id="svg2"
   version="1.1"
   inkscape:version="0.48.4 r9939"
   sodipodi:docname="similarMicroKernelStructure.svg"
   inkscape:export-filename="C:\Users\yoakubera\eclipse-workspaces\similar\similarRoot\similar-microKernel\src\site\resources\images\similarMicroKernelStructure.png"
   inkscape:export-xdpi="64.056549"
   inkscape:export-ydpi="64.056549">
  <defs
     id="defs4">
    <inkscape:path-effect
       effect="bend_path"
       id="path-effect5311"
       is_visible="true"
       bendpath="M 347.93762,178.79921 C 597.53149,192.73558 635.20728,144.88802 742.72554,86.656349"
       prop_scale="1"
       scale_y_rel="false"
       vertical="false"
       bendpath-nodetypes="cc" />
    <inkscape:path-effect
       effect="bend_path"
       id="path-effect5289"
       is_visible="true"
       bendpath="M 172.88686,51.48154 C 316.47783,-92.109432 505.83975,-87.089889 737.67478,-87.089889"
       prop_scale="1"
       scale_y_rel="false"
       vertical="false"
       bendpath-nodetypes="cc" />
    <inkscape:path-effect
       effect="bend_path"
       id="path-effect5265"
       is_visible="true"
       bendpath="m 139.54877,120.72293 c 37.49874,-2.32265 74.86092,-5.98459 113.0804,-1.23859"
       prop_scale="1"
       scale_y_rel="false"
       vertical="false"
       bendpath-nodetypes="cc" />
    <inkscape:path-effect
       effect="bend_path"
       id="path-effect5263"
       is_visible="true"
       bendpath="m 247.80851,98.669214 c 23.65883,-8.069552 53.1743,-11.258566 84.87458,-12.626907"
       prop_scale="1"
       scale_y_rel="false"
       vertical="false"
       bendpath-nodetypes="cc" />
    <inkscape:path-effect
       effect="bend_path"
       id="path-effect5075"
       is_visible="true"
       bendpath="m 59.990542,385.6615 c 62.596158,3.15848 439.079338,-2.03087 678.039418,-4.04061"
       prop_scale="1"
       scale_y_rel="false"
       vertical="false"
       bendpath-nodetypes="cc" />
  </defs>
  <sodipodi:namedview
     id="base"
     pagecolor="#ffffff"
     bordercolor="#666666"
     borderopacity="1.0"
     inkscape:pageopacity="0.0"
     inkscape:pageshadow="2"
     inkscape:zoom="0.98994949"
     inkscape:cx="496.49707"
     inkscape:cy="251.08902"
     inkscape:document-units="px"
     inkscape:current-layer="layer3"
     showgrid="false"
     inkscape:window-width="1920"
     inkscape:window-height="1138"
     inkscape:window-x="-8"
     inkscape:window-y="-8"
     inkscape:window-maximized="1"
     fit-margin-top="0"
     fit-margin-left="0"
     fit-margin-right="0"
     fit-margin-bottom="0" />
  <metadata
     id="metadata7">
    <rdf:RDF>
      <cc:Work
         rdf:about="">
        <dc:format>image/svg+xml</dc:format>
        <dc:type
           rdf:resource="http://purl.org/dc/dcmitype/StillImage" />
        <dc:title></dc:title>
      </cc:Work>
    </rdf:RDF>
  </metadata>
  <g
     inkscape:groupmode="layer"
     id="layer4"
     inkscape:label="Inheritance"
     style="display:inline"
     transform="translate(-15.683686,149.49205)">
    <path
       style="font-size:medium;font-style:normal;font-variant:normal;font-weight:normal;font-stretch:normal;text-indent:0;text-align:start;text-decoration:none;line-height:normal;letter-spacing:normal;word-spacing:normal;text-transform:none;direction:ltr;block-progression:tb;writing-mode:lr-tb;text-anchor:start;baseline-shift:baseline;color:#000000;fill:#b1b1ff;fill-opacity:1;stroke:#000000;stroke-width:0.94206548px;marker:none;visibility:visible;display:inline;overflow:visible;enable-background:accumulate;font-family:Sans;-inkscape-font-specification:Sans"
       d="m 305.45655,66.220536 c -2.86629,0.449546 -6.4384,1.966512 -8.84491,1.768129 -19.64297,3.529432 -39.27346,8.283417 -57.68784,17.058187 -0.58612,0.07838 -1.2226,0.247366 -1.87951,0.491543 -2.86574,1.0652 -6.18257,3.380277 -8.64322,3.755849 -27.63683,11.707376 -51.40692,27.509266 -75.8415,43.008726 2.37939,-3.95873 3.99666,-9.65356 -1.04346,-8.42711 -0.14532,0.28427 -0.30816,0.58279 -0.45356,0.86702 -0.56167,2.27374 -2.74095,5.27517 -4.39686,8.02662 -1.65591,2.75145 -2.76347,5.26074 -1.18077,6.56992 4.4913,0.69865 10.84338,5.06781 14.21834,3.60232 2.68918,-4.59774 -1.83156,-4.91427 -5.28754,-5.66267 2.87007,-1.74287 6.16728,-5.30092 8.75634,-5.967 23.49905,-14.98132 46.71537,-29.66093 73.75481,-40.107126 l 0.1045,0.239653 c 0.82813,-0.425983 1.67775,-0.813186 2.51224,-1.221431 1.01581,-0.378556 2.02045,-0.789111 3.04741,-1.155271 -0.007,-0.09949 -0.0155,-0.184723 -0.0245,-0.279955 21.23976,-9.78136 44.3594,-14.253525 67.41458,-17.982064 0.48357,-4.418477 -1.65833,-5.034883 -4.52462,-4.585335 z"
       id="path4242-3-8-0-8"
       inkscape:connector-curvature="0" />
    <path
       style="font-size:medium;font-style:normal;font-variant:normal;font-weight:normal;font-stretch:normal;text-indent:0;text-align:start;text-decoration:none;line-height:normal;letter-spacing:normal;word-spacing:normal;text-transform:none;direction:ltr;block-progression:tb;writing-mode:lr-tb;text-anchor:start;baseline-shift:baseline;color:#000000;fill:#b1b1ff;fill-opacity:1;stroke:#000000;stroke-width:1px;marker:none;visibility:visible;display:inline;overflow:visible;enable-background:accumulate;font-family:Sans;-inkscape-font-specification:Sans"
       d="m 741.84375,86.5625 c -0.81818,-0.07387 -2.00137,0.151121 -3.46875,0.625 -3.91302,1.263677 -9.90611,4.34406 -16.71875,8.21875 -6.81263,3.874689 -14.45698,8.53811 -21.8125,12.96875 -7.35552,4.43065 -14.4103,8.59115 -20.0625,11.4375 -3.37193,1.91092 -6.7663,3.81509 -10.15625,5.6875 -23.01159,12.706 -46.83762,23.97304 -71.75,32.03125 -31.73127,10.27905 -64.93311,15.71413 -98.28125,18.5625 -50.30844,4.29229 -101.00057,3.16129 -151.53125,0.34375 -3.17893,-0.7081 -8.12082,-0.009 -10.90625,-1.03125 l -93.5,-10.53125 c 4.47042,-1.638 9.28013,-5.20362 4,-7.53125 L 246.75,157.75 c -3.68205,2.9369 -14.91716,3.97383 -13.59375,8.15625 3.6367,3.48479 6.83037,11.21187 10.75,12.25 5.13541,-1.94317 1.184,-5.18873 -1.5,-8.0625 3.61485,0.47516 8.69402,-0.23235 11.4375,0.9375 L 350.5,181.9375 c 0.0527,-0.1362 0.11147,-0.24512 0.15625,-0.375 49.69331,2.71448 99.66631,3.76317 149.375,-0.46875 33.60888,-2.85783 67.16099,-8.39296 99.375,-18.8125 25.3166,-8.20176 49.46376,-19.59028 72.65625,-32.40625 23.78939,-13.141 46.90019,-27.31227 70.625,-40.21875 0.89421,-2.014328 0.51989,-2.970634 -0.84375,-3.09375 z"
       id="path4242-3-8-0-8-2-3"
       inkscape:connector-curvature="0" />
    <path
       style="font-size:medium;font-style:normal;font-variant:normal;font-weight:normal;font-stretch:normal;text-indent:0;text-align:start;text-decoration:none;line-height:normal;letter-spacing:normal;word-spacing:normal;text-transform:none;direction:ltr;block-progression:tb;writing-mode:lr-tb;text-anchor:start;baseline-shift:baseline;color:#000000;fill:#b1b1ff;fill-opacity:1;stroke:#000000;stroke-width:1px;marker:none;visibility:visible;display:inline;overflow:visible;enable-background:accumulate;font-family:Sans;-inkscape-font-specification:Sans"
       d="m 705,-89.75 c -11.30348,-0.02187 -24.24838,0.203245 -36.65625,0.375 -12.40787,0.171754 -24.28255,0.317322 -33.4375,0.09375 -21.05914,0.199831 -42.1276,0.571654 -63.1875,1.28125 -50.16421,1.687499 -100.40765,5.232974 -149.9375,14 -45.99532,8.138842 -91.39062,21.034122 -133.6875,41.09375 -43.14341,20.471816 -82.59711,48.544922 -116.40625,82.25 -2.77406,1.708717 -5.30183,7.170399 -8.0625,9.09375 l -62.25,70.53125 c 1.22157,-4.60169 1.05973,-10.55351 -3.875,-7.5625 l -0.1875,0.96875 c 0.294641,4.70065 -5.310337,14.49835 -1.125,15.8125 4.94033,-0.98107 13.08935,0.83461 16.1875,-1.78125 1.35288,-5.32147 -3.54406,-3.95719 -7.4375,-3.40625 2.46217,-2.68898 4.78089,-7.23574 7.3125,-8.8125 l 62.5,-70.84375 c 0.0625,-0.06252 0.12494,-0.125015 0.1875,-0.1875 33.47556,-33.432889 72.58154,-61.2598916 115.3125,-81.53125 41.78703,-19.835181 86.74866,-32.594909 132.40625,-40.6875 49.18453,-8.71468 99.20945,-12.246833 149.25,-13.9375 54.47915,-1.837327 109.03211,-1.478069 163.625,-1.46875 C 743.64112,-88.762308 727.60696,-89.706265 705,-89.75 z"
       id="path4242-3-8-0-8-2-5"
       inkscape:connector-curvature="0" />
  </g>
  <g
     inkscape:groupmode="layer"
     id="layer2"
     inkscape:label="Dependencies"
     style="display:inline"
     transform="translate(-15.683686,149.49205)">
    <path
       inkscape:connector-curvature="0"
       style="font-size:medium;font-style:normal;font-variant:normal;font-weight:normal;font-stretch:normal;text-indent:0;text-align:start;text-decoration:none;line-height:normal;letter-spacing:normal;word-spacing:normal;text-transform:none;direction:ltr;block-progression:tb;writing-mode:lr-tb;text-anchor:start;baseline-shift:baseline;color:#000000;fill:#ffaaaa;fill-opacity:1;stroke:#000000;stroke-width:0.9023816px;marker:none;visibility:visible;display:inline;overflow:visible;enable-background:accumulate;font-family:Sans;-inkscape-font-specification:Sans"
       d="m 656.68356,96.263715 -0.68674,0.500236 c -2.70989,3.332859 -11.70225,5.620029 -10.25017,9.629539 3.25935,3.0564 6.52751,10.3816 9.79235,10.97392 3.97603,-2.50799 0.50001,-5.29158 -1.93304,-7.84745 2.96698,0.0668 7.00889,-1.19912 9.33452,-0.34391 l 79.17804,0 c 1.83657,-8.59387 -7.25064,-3.76002 -11.39472,-5.00236 l -76.58371,0 c 3.46606,-2.12998 7.02636,-6.188334 2.54347,-7.909975 z"
       id="path4242-3-8" />
    <path
       inkscape:connector-curvature="0"
       style="font-size:medium;font-style:normal;font-variant:normal;font-weight:normal;font-stretch:normal;text-indent:0;text-align:start;text-decoration:none;line-height:normal;letter-spacing:normal;word-spacing:normal;text-transform:none;direction:ltr;block-progression:tb;writing-mode:lr-tb;text-anchor:start;baseline-shift:baseline;color:#000000;fill:#ffaaaa;fill-opacity:1;stroke:#000000;stroke-width:1px;marker:none;visibility:visible;display:inline;overflow:visible;enable-background:accumulate;font-family:Sans;-inkscape-font-specification:Sans"
       d="m 938.49093,23.923838 -0.50709,0.839511 c -3.3592,3.301314 -5.73823,14.330035 -9.73069,12.512276 -3.02113,-4.030149 -10.30882,-8.107032 -10.86706,-12.123184 2.54785,-4.863831 5.29407,-0.569787 7.82347,2.440956 -0.0361,-3.645773 1.27102,-8.600994 0.4403,-11.46545 l 0.81906,-51.277791 c 8.60851,-2.184079 3.68311,8.939746 4.88195,14.0416 l -0.79222,48.090405 c 2.16476,-4.240454 6.25788,-8.580476 7.93228,-3.058323 z"
       id="path4242-3-8-9"
       sodipodi:nodetypes="cccccccccc" />
    <path
       inkscape:connector-curvature="0"
       style="font-size:medium;font-style:normal;font-variant:normal;font-weight:normal;font-stretch:normal;text-indent:0;text-align:start;text-decoration:none;line-height:normal;letter-spacing:normal;word-spacing:normal;text-transform:none;direction:ltr;block-progression:tb;writing-mode:lr-tb;text-anchor:start;baseline-shift:baseline;color:#000000;fill:#ffaaaa;fill-opacity:1;stroke:#000000;stroke-width:1px;marker:none;visibility:visible;display:inline;overflow:visible;enable-background:accumulate;font-family:Sans;-inkscape-font-specification:Sans"
       d="m 639.40102,15.897845 -0.93393,0.299504 c -4.7015,0.28064 -13.74262,7.029767 -15.55721,3.035867 0.37148,-5.023079 -2.44213,-12.8853313 -0.2235,-16.2792693 5.11684,-1.99155798 4.36472,3.049757 4.29255,6.981325 2.36877,-2.771629 6.6105,-5.647467 7.86687,-8.352417 L 736.8427,-111.27943 c 7.9238,4.01125 -3.09908,9.15861 -5.54838,13.791863 L 631.41237,12.989947 c 4.41842,-1.773468 10.35573,-2.35468 7.98865,2.907898 z"
       id="path4242-3-8-9-3"
       sodipodi:nodetypes="cccccccccc" />
  </g>
  <g
     transform="translate(-15.683686,149.49205)"
     style="display:none"
     inkscape:label="SubModules"
     id="g27"
     inkscape:groupmode="layer">
    <path
       inkscape:connector-curvature="0"
       id="path29"
       d="m 305.45655,66.220536 c -2.86629,0.449546 -6.4384,1.966512 -8.84491,1.768129 -19.64297,3.529432 -39.27346,8.283417 -57.68784,17.058187 -0.58612,0.07838 -1.2226,0.247366 -1.87951,0.491543 -2.86574,1.0652 -6.18257,3.380277 -8.64322,3.755849 -27.63683,11.707376 -51.40692,27.509266 -75.8415,43.008726 2.37939,-3.95873 3.99666,-9.65356 -1.04346,-8.42711 -0.14532,0.28427 -0.30816,0.58279 -0.45356,0.86702 -0.56167,2.27374 -2.74095,5.27517 -4.39686,8.02662 -1.65591,2.75145 -2.76347,5.26074 -1.18077,6.56992 4.4913,0.69865 10.84338,5.06781 14.21834,3.60232 2.68918,-4.59774 -1.83156,-4.91427 -5.28754,-5.66267 2.87007,-1.74287 6.16728,-5.30092 8.75634,-5.967 23.49905,-14.98132 46.71537,-29.66093 73.75481,-40.107126 l 0.1045,0.239653 c 0.82813,-0.425983 1.67775,-0.813186 2.51224,-1.221431 1.01581,-0.378556 2.02045,-0.789111 3.04741,-1.155271 -0.007,-0.09949 -0.0155,-0.184723 -0.0245,-0.279955 21.23976,-9.78136 44.3594,-14.253525 67.41458,-17.982064 0.48357,-4.418477 -1.65833,-5.034883 -4.52462,-4.585335 z"
       style="font-size:medium;font-style:normal;font-variant:normal;font-weight:normal;font-stretch:normal;text-indent:0;text-align:start;text-decoration:none;line-height:normal;letter-spacing:normal;word-spacing:normal;text-transform:none;direction:ltr;block-progression:tb;writing-mode:lr-tb;text-anchor:start;baseline-shift:baseline;color:#000000;fill:#b7fbb7;fill-opacity:1;stroke:#000000;stroke-width:0.94206548px;marker:none;visibility:visible;display:inline;overflow:visible;enable-background:accumulate;font-family:Sans;-inkscape-font-specification:Sans" />
    <path
       inkscape:connector-curvature="0"
       id="path31"
       d="m 741.84375,86.5625 c -0.81818,-0.07387 -2.00137,0.151121 -3.46875,0.625 -3.91302,1.263677 -9.90611,4.34406 -16.71875,8.21875 -6.81263,3.874689 -14.45698,8.53811 -21.8125,12.96875 -7.35552,4.43065 -14.4103,8.59115 -20.0625,11.4375 -3.37193,1.91092 -6.7663,3.81509 -10.15625,5.6875 -23.01159,12.706 -46.83762,23.97304 -71.75,32.03125 -31.73127,10.27905 -64.93311,15.71413 -98.28125,18.5625 -50.30844,4.29229 -101.00057,3.16129 -151.53125,0.34375 -3.17893,-0.7081 -8.12082,-0.009 -10.90625,-1.03125 l -93.5,-10.53125 c 4.47042,-1.638 9.28013,-5.20362 4,-7.53125 L 246.75,157.75 c -3.68205,2.9369 -14.91716,3.97383 -13.59375,8.15625 3.6367,3.48479 6.83037,11.21187 10.75,12.25 5.13541,-1.94317 1.184,-5.18873 -1.5,-8.0625 3.61485,0.47516 8.69402,-0.23235 11.4375,0.9375 L 350.5,181.9375 c 0.0527,-0.1362 0.11147,-0.24512 0.15625,-0.375 49.69331,2.71448 99.66631,3.76317 149.375,-0.46875 33.60888,-2.85783 67.16099,-8.39296 99.375,-18.8125 25.3166,-8.20176 49.46376,-19.59028 72.65625,-32.40625 23.78939,-13.141 46.90019,-27.31227 70.625,-40.21875 0.89421,-2.014328 0.51989,-2.970634 -0.84375,-3.09375 z"
       style="font-size:medium;font-style:normal;font-variant:normal;font-weight:normal;font-stretch:normal;text-indent:0;text-align:start;text-decoration:none;line-height:normal;letter-spacing:normal;word-spacing:normal;text-transform:none;direction:ltr;block-progression:tb;writing-mode:lr-tb;text-anchor:start;baseline-shift:baseline;color:#000000;fill:#b7fbb7;fill-opacity:1;stroke:#000000;stroke-width:1px;marker:none;visibility:visible;display:inline;overflow:visible;enable-background:accumulate;font-family:Sans;-inkscape-font-specification:Sans" />
    <path
       inkscape:connector-curvature="0"
       id="path33"
       d="m 705,-89.75 c -11.30348,-0.02187 -24.24838,0.203245 -36.65625,0.375 -12.40787,0.171754 -24.28255,0.317322 -33.4375,0.09375 -21.05914,0.199831 -42.1276,0.571654 -63.1875,1.28125 -50.16421,1.687499 -100.40765,5.232974 -149.9375,14 -45.99532,8.138842 -91.39062,21.034122 -133.6875,41.09375 -43.14341,20.471816 -82.59711,48.544922 -116.40625,82.25 -2.77406,1.708717 -5.30183,7.170399 -8.0625,9.09375 l -62.25,70.53125 c 1.22157,-4.60169 1.05973,-10.55351 -3.875,-7.5625 l -0.1875,0.96875 c 0.294641,4.70065 -5.310337,14.49835 -1.125,15.8125 4.94033,-0.98107 13.08935,0.83461 16.1875,-1.78125 1.35288,-5.32147 -3.54406,-3.95719 -7.4375,-3.40625 2.46217,-2.68898 4.78089,-7.23574 7.3125,-8.8125 l 62.5,-70.84375 c 0.0625,-0.06252 0.12494,-0.125015 0.1875,-0.1875 33.47556,-33.432889 72.58154,-61.2598916 115.3125,-81.53125 41.78703,-19.835181 86.74866,-32.594909 132.40625,-40.6875 49.18453,-8.71468 99.20945,-12.246833 149.25,-13.9375 54.47915,-1.837327 109.03211,-1.478069 163.625,-1.46875 C 743.64112,-88.762308 727.60696,-89.706265 705,-89.75 z"
       style="font-size:medium;font-style:normal;font-variant:normal;font-weight:normal;font-stretch:normal;text-indent:0;text-align:start;text-decoration:none;line-height:normal;letter-spacing:normal;word-spacing:normal;text-transform:none;direction:ltr;block-progression:tb;writing-mode:lr-tb;text-anchor:start;baseline-shift:baseline;color:#000000;fill:#b7fbb7;fill-opacity:1;stroke:#000000;stroke-width:1px;marker:none;visibility:visible;display:inline;overflow:visible;enable-background:accumulate;font-family:Sans;-inkscape-font-specification:Sans" />
    <path
       inkscape:connector-curvature="0"
       id="path35"
       d="m 306.67392,331.54519 c -2.86629,-0.44955 -6.4384,-1.96651 -8.84492,-1.76814 -19.64296,-3.52943 -39.27345,-8.2834 -57.68783,-17.05818 -0.58612,-0.0784 -1.2226,-0.24736 -1.87952,-0.49154 -2.86573,-1.0652 -6.18255,-3.38028 -8.64321,-3.75585 -27.63683,-11.70737 -51.40691,-27.50926 -75.84149,-43.00872 2.37938,3.95873 3.99665,9.65356 -1.04346,8.42711 -0.14532,-0.28427 -0.30817,-0.58279 -0.45356,-0.86702 -0.56167,-2.27374 -2.74096,-5.27517 -4.39686,-8.02662 -1.65591,-2.75145 -2.76348,-5.26074 -1.18077,-6.56992 4.4913,-0.69865 10.84337,-5.06781 14.21834,-3.60232 2.68917,4.59774 -1.83156,4.91427 -5.28755,5.66267 2.87007,1.74287 6.16728,5.30092 8.75634,5.967 23.49906,14.98132 46.71537,29.66093 73.75481,40.10712 l 0.10449,-0.23965 c 0.82814,0.42598 1.67776,0.81319 2.51225,1.22143 1.0158,0.37856 2.02045,0.78911 3.04741,1.15527 -0.007,0.0995 -0.0155,0.18473 -0.0245,0.27996 21.23977,9.78135 44.3594,14.25352 67.41459,17.98206 0.48356,4.41847 -1.65833,5.03488 -4.52462,4.58533 z"
       style="font-size:medium;font-style:normal;font-variant:normal;font-weight:normal;font-stretch:normal;text-indent:0;text-align:start;text-decoration:none;line-height:normal;letter-spacing:normal;word-spacing:normal;text-transform:none;direction:ltr;block-progression:tb;writing-mode:lr-tb;text-anchor:start;baseline-shift:baseline;color:#000000;fill:#b7fbb7;fill-opacity:1;stroke:#000000;stroke-width:0.94206548px;marker:none;visibility:visible;display:inline;overflow:visible;enable-background:accumulate;font-family:Sans;-inkscape-font-specification:Sans" />
    <path
       id="path37"
       d="m 698.85214,489.90157 c -11.30348,0.0219 -24.24838,-0.20325 -36.65625,-0.375 -12.40787,-0.17176 -24.28255,-0.31733 -33.4375,-0.0937 -21.05914,-0.19984 -42.1276,-0.57166 -63.1875,-1.28125 -50.16421,-1.6875 -100.40765,-5.23298 -149.9375,-14 -45.99532,-8.13885 -91.39062,-21.03413 -133.6875,-41.09375 -43.14341,-20.47182 -82.59711,-48.54492 -116.40625,-82.25 -2.77406,-1.70872 -5.30183,-7.1704 -8.0625,-9.09375 L 95.227144,271.18287 c 1.22157,4.60169 1.05973,10.55351 -3.875,7.5625 l -0.1875,-0.96875 c 0.294641,-4.70065 -5.310337,-14.49835 -1.125,-15.8125 4.94033,0.98107 13.089346,-0.83461 16.187496,1.78125 1.35288,5.32147 -3.54406,3.95719 -7.437497,3.40625 2.462167,2.68898 4.780887,7.23574 7.312497,8.8125 l 62.5,70.84375 c 0.0625,0.0625 0.12494,0.12502 0.1875,0.1875 33.47556,33.43289 72.58154,61.25989 115.3125,81.53125 41.78703,19.83518 86.74866,32.5949 132.40625,40.6875 49.18453,8.71468 99.20945,12.24683 149.25,13.9375 54.47915,1.83732 109.03211,1.47806 163.625,1.46875 8.10987,4.29355 -7.92429,5.23751 -30.53125,5.28125 z"
       style="font-size:medium;font-style:normal;font-variant:normal;font-weight:normal;font-stretch:normal;text-indent:0;text-align:start;text-decoration:none;line-height:normal;letter-spacing:normal;word-spacing:normal;text-transform:none;direction:ltr;block-progression:tb;writing-mode:lr-tb;text-anchor:start;baseline-shift:baseline;color:#000000;fill:#b7fbb7;fill-opacity:1;stroke:#000000;stroke-width:1px;marker:none;visibility:visible;display:inline;overflow:visible;enable-background:accumulate;font-family:Sans;-inkscape-font-specification:Sans"
       inkscape:connector-curvature="0" />
    <path
       inkscape:connector-curvature="0"
       style="font-size:medium;font-style:normal;font-variant:normal;font-weight:normal;font-stretch:normal;text-indent:0;text-align:start;text-decoration:none;line-height:normal;letter-spacing:normal;word-spacing:normal;text-transform:none;direction:ltr;block-progression:tb;writing-mode:lr-tb;text-anchor:start;baseline-shift:baseline;color:#000000;fill:#b7fbb7;fill-opacity:1;stroke:#000000;stroke-width:1px;marker:none;visibility:visible;display:inline;overflow:visible;enable-background:accumulate;font-family:Sans;-inkscape-font-specification:Sans"
       d="m 737.55804,306.78088 c -0.81818,0.0739 -2.00137,-0.15112 -3.46875,-0.625 -3.91302,-1.26367 -9.90611,-4.34406 -16.71875,-8.21875 -6.81263,-3.87469 -14.45698,-8.53811 -21.8125,-12.96875 -7.35552,-4.43065 -14.4103,-8.59115 -20.0625,-11.4375 -3.37193,-1.91092 -6.7663,-3.81509 -10.15625,-5.6875 -23.01159,-12.706 -46.83762,-23.97304 -71.75,-32.03125 -31.73127,-10.27905 -64.93311,-15.71413 -98.28125,-18.5625 -50.30844,-4.29229 -101.00057,-3.16129 -151.53125,-0.34375 -3.17893,0.7081 -8.12082,0.01 -10.90625,1.03125 l -93.5,10.53125 c 4.47042,1.638 9.28013,5.20362 4,7.53125 l -0.90625,-0.40625 c -3.68205,-2.9369 -14.91716,-3.97383 -13.59375,-8.15625 3.6367,-3.48479 6.83037,-11.21187 10.75,-12.25 5.13541,1.94317 1.184,5.18873 -1.5,8.0625 3.61485,-0.47516 8.69402,0.23235 11.4375,-0.9375 l 96.65625,-10.90625 c 0.0527,0.1362 0.11147,0.24512 0.15625,0.375 49.69331,-2.71448 99.66631,-3.76317 149.375,0.46875 33.60888,2.85783 67.16099,8.39296 99.375,18.8125 25.3166,8.20176 49.46376,19.59028 72.65625,32.40625 23.78939,13.141 46.90019,27.31227 70.625,40.21875 0.89421,2.01433 0.51989,2.97064 -0.84375,3.09375 z"
       id="path39" />
  </g>
  <g
     inkscape:groupmode="layer"
     id="layer3"
     inkscape:label="Projects"
     style="display:inline"
     transform="translate(-15.683686,149.49205)">
    <g
       id="g4206"
       transform="translate(-25.253814,43.436559)">
      <g
         id="g4139">
        <rect
           style="fill:#b1b1ff;fill-opacity:1;stroke:#000000;stroke-width:1.25;stroke-linecap:round;stroke-miterlimit:4;stroke-opacity:1;stroke-dasharray:none;stroke-dashoffset:0"
           id="rect2985"
           width="210.85283"
           height="101.75636"
           x="41.550777"
           y="101.94318" />
        <text
           xml:space="preserve"
           style="font-size:14px;font-style:normal;font-weight:normal;line-height:125%;letter-spacing:0px;word-spacing:0px;fill:#000000;fill-opacity:1;stroke:none;font-family:Sans"
           x="67.802055"
           y="179.59039"
           id="text3755"
           sodipodi:linespacing="125%"><tspan
             sodipodi:role="line"
             id="tspan3757"
             x="67.802055"
             y="179.59039"
             style="font-size:22px;font-weight:bold;-inkscape-font-specification:Sans Bold">SIMILAR suite</tspan></text>
        <text
           xml:space="preserve"
           style="font-size:14px;font-style:normal;font-weight:normal;line-height:125%;letter-spacing:0px;word-spacing:0px;fill:#000000;fill-opacity:1;stroke:none;font-family:Sans"
           x="123.23861"
           y="117.97108"
           id="text3759"
           sodipodi:linespacing="125%"><tspan
             sodipodi:role="line"
             id="tspan3761"
             x="123.23861"
             y="117.97108"
             style="font-style:oblique;-inkscape-font-specification:Sans Oblique">fr.lgi2a</tspan></text>
        <text
           xml:space="preserve"
           style="font-size:14px;font-style:normal;font-weight:normal;line-height:125%;letter-spacing:0px;word-spacing:0px;fill:#000000;fill-opacity:1;stroke:none;font-family:Sans"
           x="123.23861"
           y="139.18428"
           id="text3763"
           sodipodi:linespacing="125%"><tspan
             sodipodi:role="line"
             id="tspan3765"
             x="123.23861"
             y="139.18428"
             style="font-style:oblique;-inkscape-font-specification:Sans Oblique">similar</tspan></text>
        <text
           xml:space="preserve"
           style="font-size:14px;font-style:normal;font-weight:normal;line-height:125%;letter-spacing:0px;word-spacing:0px;fill:#000000;fill-opacity:1;stroke:none;font-family:Sans"
           x="48.487316"
           y="139.18428"
           id="text3767"
           sodipodi:linespacing="125%"><tspan
             sodipodi:role="line"
             id="tspan3769"
             x="48.487316"
             y="139.18428"
             style="font-style:normal;font-weight:bold;-inkscape-font-specification:Sans Bold">artifactId:</tspan></text>
        <text
           xml:space="preserve"
           style="font-size:14px;font-style:normal;font-weight:normal;line-height:125%;letter-spacing:0px;word-spacing:0px;fill:#000000;fill-opacity:1;stroke:none;font-family:Sans"
           x="48.487316"
           y="117.97108"
           id="text3771"
           sodipodi:linespacing="125%"><tspan
             sodipodi:role="line"
             id="tspan3773"
             x="48.487316"
             y="117.97108"
             style="font-style:normal;font-weight:bold;-inkscape-font-specification:Sans Bold">groupId:</tspan></text>
      </g>
    </g>
    <rect
       style="fill:#b7fbb7;fill-opacity:1;stroke:#000000;stroke-width:1;stroke-linecap:round;stroke-miterlimit:4;stroke-opacity:1;stroke-dasharray:none;stroke-dashoffset:0"
       id="rect2985-1"
       width="321.68762"
       height="101.47439"
       x="317.03073"
       y="22.787178" />
    <text
       xml:space="preserve"
       style="font-size:14px;font-style:normal;font-weight:normal;line-height:125%;letter-spacing:0px;word-spacing:0px;fill:#000000;fill-opacity:1;stroke:none;font-family:Sans"
       x="331.46927"
       y="100.29341"
       id="text3755-7"
       sodipodi:linespacing="125%"><tspan
         sodipodi:role="line"
         id="tspan3757-4"
         x="331.46927"
         y="100.29341"
         style="font-size:22px;font-weight:bold;-inkscape-font-specification:Sans Bold">SIMILAR micro kernel API</tspan></text>
    <g
       id="g3915">
      <text
         sodipodi:linespacing="125%"
         id="text3763-4"
         y="59.887291"
         x="417.77051"
         style="font-size:14px;font-style:normal;font-weight:normal;line-height:125%;letter-spacing:0px;word-spacing:0px;fill:#000000;fill-opacity:1;stroke:none;font-family:Sans"
         xml:space="preserve"><tspan
           style="font-style:oblique;-inkscape-font-specification:Sans Oblique"
           y="59.887291"
           x="417.77051"
           id="tspan3765-8"
           sodipodi:role="line">similar-microKernel</tspan></text>
      <text
         sodipodi:linespacing="125%"
         id="text3767-8"
         y="59.887291"
         x="343.0192"
         style="font-size:14px;font-style:normal;font-weight:normal;line-height:125%;letter-spacing:0px;word-spacing:0px;fill:#000000;fill-opacity:1;stroke:none;font-family:Sans"
         xml:space="preserve"><tspan
           style="font-style:normal;font-weight:bold;-inkscape-font-specification:Sans Bold"
           y="59.887291"
           x="343.0192"
           id="tspan3769-2"
           sodipodi:role="line">artifactId:</tspan></text>
    </g>
    <g
       id="g3909">
      <text
         sodipodi:linespacing="125%"
         id="text3759-0"
         y="38.674084"
         x="417.77051"
         style="font-size:14px;font-style:normal;font-weight:normal;line-height:125%;letter-spacing:0px;word-spacing:0px;fill:#000000;fill-opacity:1;stroke:none;font-family:Sans"
         xml:space="preserve"><tspan
           style="font-style:oblique;-inkscape-font-specification:Sans Oblique"
           y="38.674084"
           x="417.77051"
           id="tspan3761-9"
           sodipodi:role="line">fr.lgi2a</tspan></text>
      <text
         sodipodi:linespacing="125%"
         id="text3771-4"
         y="38.674084"
         x="343.0192"
         style="font-size:14px;font-style:normal;font-weight:normal;line-height:125%;letter-spacing:0px;word-spacing:0px;fill:#000000;fill-opacity:1;stroke:none;font-family:Sans"
         xml:space="preserve"><tspan
           style="font-style:normal;font-weight:bold;-inkscape-font-specification:Sans Bold"
           y="38.674084"
           x="343.0192"
           id="tspan3773-5"
           sodipodi:role="line">groupId:</tspan></text>
    </g>
    <g
       id="g4152"
       transform="translate(21.194336,170.95877)">
      <rect
         y="-124.61771"
         x="725.98083"
         height="78.086128"
         width="391.20578"
         id="rect2985-1-2"
         style="fill:#b7fbb7;fill-opacity:1;stroke:#000000;stroke-opacity:1" />
      <text
         sodipodi:linespacing="125%"
         id="text3755-7-3"
         y="-61.414322"
         x="741.95709"
         style="font-size:14px;font-style:normal;font-weight:normal;line-height:125%;letter-spacing:0px;word-spacing:0px;fill:#000000;fill-opacity:1;stroke:none;font-family:Sans"
         xml:space="preserve"><tspan
           id="tspan3921"
           style="font-size:22px;font-weight:bold;-inkscape-font-specification:Sans Bold"
           y="-61.414322"
           x="741.95709"
           sodipodi:role="line">SIMILAR common libraries API</tspan></text>
      <text
         sodipodi:linespacing="125%"
         id="text3759-0-2"
         y="-108.80819"
         x="807.617"
         style="font-size:14px;font-style:normal;font-weight:normal;line-height:125%;letter-spacing:0px;word-spacing:0px;fill:#000000;fill-opacity:1;stroke:none;font-family:Sans"
         xml:space="preserve"><tspan
           style="font-style:oblique;-inkscape-font-specification:Sans Oblique"
           y="-108.80819"
           x="807.617"
           id="tspan3761-9-16"
           sodipodi:role="line">fr.lgi2a</tspan></text>
      <text
         sodipodi:linespacing="125%"
         id="text3763-4-8"
         y="-87.594986"
         x="807.617"
         style="font-size:14px;font-style:normal;font-weight:normal;line-height:125%;letter-spacing:0px;word-spacing:0px;fill:#000000;fill-opacity:1;stroke:none;font-family:Sans"
         xml:space="preserve"><tspan
           style="font-style:oblique;-inkscape-font-specification:Sans Oblique"
           y="-87.594986"
           x="807.617"
           id="tspan3765-8-5"
           sodipodi:role="line">similar-microKernel-commonLibs</tspan></text>
      <text
         sodipodi:linespacing="125%"
         id="text3767-8-76"
         y="-87.594986"
         x="732.86566"
         style="font-size:14px;font-style:normal;font-weight:normal;line-height:125%;letter-spacing:0px;word-spacing:0px;fill:#000000;fill-opacity:1;stroke:none;font-family:Sans"
         xml:space="preserve"><tspan
           style="font-style:normal;font-weight:bold;-inkscape-font-specification:Sans Bold"
           y="-87.594986"
           x="732.86566"
           id="tspan3769-2-1"
           sodipodi:role="line">artifactId:</tspan></text>
      <text
         sodipodi:linespacing="125%"
         id="text3771-4-8"
         y="-108.80819"
         x="732.86566"
         style="font-size:14px;font-style:normal;font-weight:normal;line-height:125%;letter-spacing:0px;word-spacing:0px;fill:#000000;fill-opacity:1;stroke:none;font-family:Sans"
         xml:space="preserve"><tspan
           style="font-style:normal;font-weight:bold;-inkscape-font-specification:Sans Bold"
           y="-108.80819"
           x="732.86566"
           id="tspan3773-5-9"
           sodipodi:role="line">groupId:</tspan></text>
    </g>
    <g
       id="g4165"
       transform="translate(24.014954,-209.3983)">
      <rect
         y="60.396038"
         x="723.16022"
         height="108.07897"
         width="390.89752"
         id="rect2985-1-2-2"
         style="fill:#b7fbb7;fill-opacity:1;stroke:#000000;stroke-opacity:1" />
      <text
         sodipodi:linespacing="125%"
         id="text3755-7-3-7"
         y="126.06175"
         x="741.95709"
         style="font-size:14px;font-style:normal;font-weight:normal;line-height:125%;letter-spacing:0px;word-spacing:0px;fill:#000000;fill-opacity:1;stroke:none;font-family:Sans"
         xml:space="preserve"><tspan
           id="tspan3982"
           style="font-size:22px;font-weight:bold;-inkscape-font-specification:Sans Bold"
           y="126.06175"
           x="741.95709"
           sodipodi:role="line">SIMILAR micro kernel and </tspan><tspan
           id="tspan3986"
           style="font-size:22px;font-weight:bold;-inkscape-font-specification:Sans Bold"
           y="153.56175"
           x="741.95709"
           sodipodi:role="line">common libs usage examples</tspan></text>
      <text
         sodipodi:linespacing="125%"
         id="text3759-0-2-4"
         y="76.049721"
         x="804.58655"
         style="font-size:14px;font-style:normal;font-weight:normal;line-height:125%;letter-spacing:0px;word-spacing:0px;fill:#000000;fill-opacity:1;stroke:none;font-family:Sans"
         xml:space="preserve"><tspan
           style="font-style:oblique;-inkscape-font-specification:Sans Oblique"
           y="76.049721"
           x="804.58655"
           id="tspan3761-9-16-3"
           sodipodi:role="line">fr.lgi2a</tspan></text>
      <text
         sodipodi:linespacing="125%"
         id="text3763-4-8-1"
         y="97.262924"
         x="804.58655"
         style="font-size:14px;font-style:normal;font-weight:normal;line-height:125%;letter-spacing:0px;word-spacing:0px;fill:#000000;fill-opacity:1;stroke:none;font-family:Sans"
         xml:space="preserve"><tspan
           style="font-style:oblique;-inkscape-font-specification:Sans Oblique"
           y="97.262924"
           x="804.58655"
           id="tspan3765-8-5-2"
           sodipodi:role="line">similar-microKernel-examples</tspan></text>
      <text
         sodipodi:linespacing="125%"
         id="text3767-8-76-3"
         y="97.262924"
         x="729.83521"
         style="font-size:14px;font-style:normal;font-weight:normal;line-height:125%;letter-spacing:0px;word-spacing:0px;fill:#000000;fill-opacity:1;stroke:none;font-family:Sans"
         xml:space="preserve"><tspan
           style="font-style:normal;font-weight:bold;-inkscape-font-specification:Sans Bold"
           y="97.262924"
           x="729.83521"
           id="tspan3769-2-1-3"
           sodipodi:role="line">artifactId:</tspan></text>
      <text
         sodipodi:linespacing="125%"
         id="text3771-4-8-4"
         y="76.049721"
         x="729.83521"
         style="font-size:14px;font-style:normal;font-weight:normal;line-height:125%;letter-spacing:0px;word-spacing:0px;fill:#000000;fill-opacity:1;stroke:none;font-family:Sans"
         xml:space="preserve"><tspan
           style="font-style:normal;font-weight:bold;-inkscape-font-specification:Sans Bold"
           y="76.049721"
           x="729.83521"
           id="tspan3773-5-9-1"
           sodipodi:role="line">groupId:</tspan></text>
    </g>
    <g
       id="g3137"
       transform="translate(-1.0101525,3.0304576)">
      <rect
         y="144.72217"
         x="794.20728"
         height="127.69287"
         width="343.26868"
         id="rect3106"
         style="fill:#f2f2f2;fill-opacity:1;stroke:#000000" />
      <text
         sodipodi:linespacing="125%"
         id="text3876"
         y="205.77629"
         x="803.23505"
         style="font-size:14px;font-style:normal;font-weight:normal;line-height:125%;letter-spacing:0px;word-spacing:0px;fill:#000000;fill-opacity:1;stroke:none;font-family:Sans"
         xml:space="preserve"><tspan
           style="font-size:24px;font-weight:bold;stroke:none;-inkscape-font-specification:Sans Bold"
           y="205.77629"
           x="803.23505"
           id="tspan3878"
           sodipodi:role="line">A</tspan></text>
      <text
         sodipodi:linespacing="125%"
         id="text3876-1"
         y="205.77629"
         x="870.45856"
         style="font-size:14px;font-style:normal;font-weight:normal;line-height:125%;letter-spacing:0px;word-spacing:0px;fill:#000000;fill-opacity:1;stroke:none;display:inline;font-family:Sans"
         xml:space="preserve"><tspan
           style="font-size:24px;font-weight:bold;stroke:none;-inkscape-font-specification:Sans Bold"
           y="205.77629"
           x="870.45856"
           id="tspan3878-7"
           sodipodi:role="line">B</tspan></text>
      <path
         sodipodi:nodetypes="cccccccccc"
         id="path4242-3-8-4"
         d="m 852.24709,188.65489 0.68674,0.50024 c 2.70989,3.33286 11.70225,5.62003 10.25017,9.62954 -3.25935,3.0564 -6.52751,10.3816 -9.79235,10.97392 -3.97603,-2.50799 -0.50001,-5.29158 1.93304,-7.84745 -2.96698,0.0668 -7.00889,-1.19912 -9.33452,-0.34391 l -19.17804,0 c -1.83657,-8.59387 7.25064,-3.76002 11.39472,-5.00236 l 16.58371,0 c -3.46606,-2.12998 -7.02636,-6.18834 -2.54347,-7.90998 z"
         style="font-size:medium;font-style:normal;font-variant:normal;font-weight:normal;font-stretch:normal;text-indent:0;text-align:start;text-decoration:none;line-height:normal;letter-spacing:normal;word-spacing:normal;text-transform:none;direction:ltr;block-progression:tb;writing-mode:lr-tb;text-anchor:start;baseline-shift:baseline;color:#000000;fill:#b1b1ff;fill-opacity:1;stroke:none;stroke-width:0.9023816px;marker:none;visibility:visible;display:inline;overflow:visible;enable-background:accumulate;font-family:Sans;-inkscape-font-specification:Sans"
         inkscape:connector-curvature="0" />
      <text
         sodipodi:linespacing="125%"
         id="text3921"
         y="221.82748"
         x="815.34814"
         style="font-size:14px;font-style:normal;font-weight:normal;line-height:125%;letter-spacing:0px;word-spacing:0px;fill:#000000;fill-opacity:1;stroke:none;font-family:Sans"
         xml:space="preserve"><tspan
           y="221.82748"
           x="815.34814"
           id="tspan3923"
           sodipodi:role="line">Project A inherits from the project B</tspan></text>
      <text
         sodipodi:linespacing="125%"
         id="text3876-0"
         y="246.8293"
         x="803.7887"
         style="font-size:14px;font-style:normal;font-weight:normal;line-height:125%;letter-spacing:0px;word-spacing:0px;fill:#000000;fill-opacity:1;stroke:none;display:inline;font-family:Sans"
         xml:space="preserve"><tspan
           style="font-size:24px;font-weight:bold;stroke:none;-inkscape-font-specification:Sans Bold"
           y="246.8293"
           x="803.7887"
           id="tspan3878-9"
           sodipodi:role="line">A</tspan></text>
      <text
         sodipodi:linespacing="125%"
         id="text3876-1-4"
         y="246.8293"
         x="871.01227"
         style="font-size:14px;font-style:normal;font-weight:normal;line-height:125%;letter-spacing:0px;word-spacing:0px;fill:#000000;fill-opacity:1;stroke:none;display:inline;font-family:Sans"
         xml:space="preserve"><tspan
           style="font-size:24px;font-weight:bold;stroke:none;-inkscape-font-specification:Sans Bold"
           y="246.8293"
           x="871.01227"
           id="tspan3878-7-8"
           sodipodi:role="line">B</tspan></text>
      <path
         sodipodi:nodetypes="cccccccccc"
         id="path4242-3-8-4-8"
         d="m 852.80079,229.70793 0.68674,0.50024 c 2.70989,3.33286 11.70225,5.62003 10.25017,9.62954 -3.25935,3.0564 -6.52751,10.3816 -9.79235,10.97392 -3.97603,-2.50799 -0.50001,-5.29158 1.93304,-7.84745 -2.96698,0.0668 -7.00889,-1.19912 -9.33452,-0.34391 l -19.17804,0 c -1.83657,-8.59387 7.25064,-3.76002 11.39472,-5.00236 l 16.58371,0 c -3.46606,-2.12998 -7.02636,-6.18834 -2.54347,-7.90998 z"
         style="font-size:medium;font-style:normal;font-variant:normal;font-weight:normal;font-stretch:normal;text-indent:0;text-align:start;text-decoration:none;line-height:normal;letter-spacing:normal;word-spacing:normal;text-transform:none;direction:ltr;block-progression:tb;writing-mode:lr-tb;text-anchor:start;baseline-shift:baseline;color:#000000;fill:#ffaaaa;fill-opacity:1;stroke:none;stroke-width:0.9023816px;marker:none;visibility:visible;display:inline;overflow:visible;enable-background:accumulate;font-family:Sans;-inkscape-font-specification:Sans"
         inkscape:connector-curvature="0" />
      <text
         sodipodi:linespacing="125%"
         id="text3921-2"
         y="262.88052"
         x="815.90186"
         style="font-size:14px;font-style:normal;font-weight:normal;line-height:125%;letter-spacing:0px;word-spacing:0px;fill:#000000;fill-opacity:1;stroke:none;display:inline;font-family:Sans"
         xml:space="preserve"><tspan
           y="262.88052"
           x="815.90186"
           id="tspan3923-4"
           sodipodi:role="line">Project A uses the classes defined in the project B</tspan></text>
      <text
         sodipodi:linespacing="125%"
         id="text3116"
         y="167.90186"
         x="800.57739"
         style="font-size:18px;font-style:normal;font-weight:normal;line-height:125%;letter-spacing:0px;word-spacing:0px;fill:#000000;fill-opacity:1;stroke:none;font-family:Sans"
         xml:space="preserve"><tspan
           style="font-size:24px;font-weight:bold;-inkscape-font-specification:Sans Bold"
           y="167.90186"
           x="800.57739"
           id="tspan3118"
           sodipodi:role="line">Legend:</tspan></text>
    </g>
  </g>
</svg>
