<?xml version="1.0" encoding="UTF-8" standalone="no"?>
<!-- Created with Inkscape (http://www.inkscape.org/) -->

<svg
   xmlns:dc="http://purl.org/dc/elements/1.1/"
   xmlns:cc="http://creativecommons.org/ns#"
   xmlns:rdf="http://www.w3.org/1999/02/22-rdf-syntax-ns#"
   xmlns:svg="http://www.w3.org/2000/svg"
   xmlns="http://www.w3.org/2000/svg"
   xmlns:sodipodi="http://sodipodi.sourceforge.net/DTD/sodipodi-0.dtd"
   xmlns:inkscape="http://www.inkscape.org/namespaces/inkscape"
   width="549"
   height="231.94678"
   id="svg2"
   version="1.1"
   inkscape:version="0.48.4 r9939"
   sodipodi:docname="SimilarLogo.svg">
  <defs
     id="defs4">
    <filter
       id="filter4417"
       inkscape:label="Drop Shadow"
       color-interpolation-filters="sRGB">
      <feFlood
         id="feFlood4419"
         flood-opacity="0.5"
         flood-color="rgb(0,0,0)"
         result="flood" />
      <feComposite
         id="feComposite4421"
         in2="SourceGraphic"
         in="flood"
         operator="in"
         result="composite1" />
      <feGaussianBlur
         id="feGaussianBlur4423"
         stdDeviation="1.6"
         result="blur" />
      <feOffset
         id="feOffset4425"
         dx="5.9"
         dy="4.1"
         result="offset" />
      <feComposite
         id="feComposite4427"
         in2="offset"
         in="SourceGraphic"
         operator="over"
         result="composite2" />
    </filter>
    <filter
       id="filter4477"
       inkscape:label="Drop Shadow"
       color-interpolation-filters="sRGB">
      <feFlood
         id="feFlood4479"
         flood-opacity="0.5"
         flood-color="rgb(0,0,0)"
         result="flood" />
      <feComposite
         id="feComposite4481"
         in2="SourceGraphic"
         in="flood"
         operator="in"
         result="composite1" />
      <feGaussianBlur
         id="feGaussianBlur4483"
         stdDeviation="1"
         result="blur" />
      <feOffset
         id="feOffset4485"
         dx="2"
         dy="2"
         result="offset" />
      <feComposite
         id="feComposite4487"
         in2="offset"
         in="SourceGraphic"
         operator="over"
         result="composite2" />
    </filter>
    <filter
       id="filter4504"
       inkscape:label="Darken edges"
       inkscape:menu="Shadows and Glows"
       inkscape:menu-tooltip="Darken the edges with an inner blur"
       color-interpolation-filters="sRGB">
      <feGaussianBlur
         id="feGaussianBlur4506"
         result="result6"
         stdDeviation="1.5" />
      <feComposite
         id="feComposite4508"
         in2="result6"
         operator="atop"
         in="SourceGraphic"
         result="result8" />
      <feComposite
         id="feComposite4510"
         in2="SourceAlpha"
         in="result8"
         operator="atop"
         result="result9" />
    </filter>
    <filter
       id="filter4512"
       inkscape:label="Darken edges"
       inkscape:menu="Shadows and Glows"
       inkscape:menu-tooltip="Darken the edges with an inner blur"
       color-interpolation-filters="sRGB">
      <feGaussianBlur
         id="feGaussianBlur4514"
         result="result6"
         stdDeviation="1.5" />
      <feComposite
         id="feComposite4516"
         in2="result6"
         operator="atop"
         in="SourceGraphic"
         result="result8" />
      <feComposite
         id="feComposite4518"
         in2="SourceAlpha"
         in="result8"
         operator="atop"
         result="result9" />
    </filter>
    <filter
       id="filter4532"
       inkscape:label="Darken edges"
       inkscape:menu="Shadows and Glows"
       inkscape:menu-tooltip="Darken the edges with an inner blur"
       color-interpolation-filters="sRGB">
      <feGaussianBlur
         id="feGaussianBlur4534"
         result="result6"
         stdDeviation="1.5" />
      <feComposite
         id="feComposite4536"
         in2="result6"
         operator="atop"
         in="SourceGraphic"
         result="result8" />
      <feComposite
         id="feComposite4538"
         in2="SourceAlpha"
         in="result8"
         operator="atop"
         result="result9" />
    </filter>
    <filter
       id="filter4540"
       inkscape:label="Darken edges"
       inkscape:menu="Shadows and Glows"
       inkscape:menu-tooltip="Darken the edges with an inner blur"
       color-interpolation-filters="sRGB">
      <feGaussianBlur
         id="feGaussianBlur4542"
         result="result6"
         stdDeviation="1.5" />
      <feComposite
         id="feComposite4544"
         in2="result6"
         operator="atop"
         in="SourceGraphic"
         result="result8" />
      <feComposite
         id="feComposite4546"
         in2="SourceAlpha"
         in="result8"
         operator="atop"
         result="result9" />
    </filter>
    <filter
       id="filter4548"
       inkscape:label="Darken edges"
       inkscape:menu="Shadows and Glows"
       inkscape:menu-tooltip="Darken the edges with an inner blur"
       color-interpolation-filters="sRGB">
      <feGaussianBlur
         id="feGaussianBlur4550"
         result="result6"
         stdDeviation="1.5" />
      <feComposite
         id="feComposite4552"
         in2="result6"
         operator="atop"
         in="SourceGraphic"
         result="result8" />
      <feComposite
         id="feComposite4554"
         in2="SourceAlpha"
         in="result8"
         operator="atop"
         result="result9" />
    </filter>
  </defs>
  <sodipodi:namedview
     id="base"
     pagecolor="#ffffff"
     bordercolor="#666666"
     borderopacity="1.0"
     inkscape:pageopacity="0.0"
     inkscape:pageshadow="2"
     inkscape:zoom="0.98994949"
     inkscape:cx="-44.980699"
     inkscape:cy="-2.3292438"
     inkscape:document-units="px"
     inkscape:current-layer="layer4"
     showgrid="false"
     inkscape:window-width="1920"
     inkscape:window-height="1138"
     inkscape:window-x="-8"
     inkscape:window-y="-8"
     inkscape:window-maximized="1"
     fit-margin-top="0"
     fit-margin-left="0"
     fit-margin-right="0"
     fit-margin-bottom="0" />
  <metadata
     id="metadata7">
    <rdf:RDF>
      <cc:Work
         rdf:about="">
        <dc:format>image/svg+xml</dc:format>
        <dc:type
           rdf:resource="http://purl.org/dc/dcmitype/StillImage" />
        <dc:title></dc:title>
      </cc:Work>
    </rdf:RDF>
  </metadata>
  <g
     inkscape:label="Similar text"
     inkscape:groupmode="layer"
     id="layer1"
     style="display:inline"
     transform="translate(24.4375,80.055202)">
    <path
       style="font-size:144px;font-style:normal;font-variant:normal;font-weight:normal;font-stretch:normal;line-height:125%;letter-spacing:0px;word-spacing:0px;fill:#000000;fill-opacity:1;stroke:none;filter:url(#filter4417);font-family:Impact;-inkscape-font-specification:Impact"
       d="m 53.4375,13.28125 c -7.031279,1.16e-4 -13.031273,1.132928 -18,3.40625 -4.968763,2.273548 -8.554697,5.437608 -10.78125,9.46875 -2.226567,4.03135 -3.343753,10.406343 -3.34375,19.125 -3e-6,6.046954 0.773433,11.015699 2.34375,14.90625 1.570305,3.890691 3.546866,6.921938 5.9375,9.125 2.390611,2.203183 7.265606,5.750054 14.625,10.625 7.359341,4.82817 11.968711,8.281292 13.84375,10.34375 1.828083,2.062538 2.749957,6.421906 2.75,13.125 -4.3e-5,3.0469 -0.476605,5.3594 -1.4375,6.90625 -0.960978,1.5469 -2.43754,2.31251 -4.40625,2.3125 -1.968786,1e-5 -3.320346,-0.59373 -4.09375,-1.8125 -0.773469,-1.21873 -1.156282,-3.98435 -1.15625,-8.25 l 0,-13.84375 -27.5,0 0,7.46875 c -5e-6,8.53128 0.85937,15.1094 2.59375,19.75 1.734366,4.64064 5.398425,8.46876 11,11.46875 5.601539,3 12.359344,4.5 20.28125,4.5 7.218704,0 13.562448,-1.30469 19,-3.90625 5.437437,-2.60156 9.101496,-5.84374 11,-9.6875 1.898367,-3.84374 2.843679,-9.79685 2.84375,-17.90625 C 88.937429,89.250041 87.234305,81.140673 83.8125,76.125 80.390562,71.109433 72.07807,64.70319 58.90625,56.875 54.312463,54.156325 51.546841,51.828203 50.5625,49.90625 49.531218,47.984457 48.999969,45.14071 49,41.34375 c -3.1e-5,-2.953033 0.460906,-5.171781 1.375,-6.625 0.914029,-1.453028 2.249965,-2.187403 4.03125,-2.1875 1.640586,9.7e-5 2.828085,0.546972 3.53125,1.625 0.703084,1.07822 1.062459,3.593842 1.0625,7.53125 l 0,8.4375 27.46875,0 0,-4.5 C 86.468681,36.578218 85.601495,30.179787 83.84375,26.40625 82.085873,22.63292 78.507752,19.484485 73.09375,17 67.679638,14.51574 61.124956,13.281366 53.4375,13.28125 z m 44.84375,2.375 0,113.84375 29.625,0 0,-113.84375 -29.625,0 z m 41.625,0 0,113.84375 25.875,0 0,-75.09375 10.90625,75.09375 18.34375,0 10.34375,-76.84375 0,76.84375 25.875,0 0,-113.84375 -38.59375,0 -6.75,53.15625 -4.09375,-28.96875 c -1.26567,-9.281151 -2.43754,-17.343643 -3.5625,-24.1875 l -38.34375,0 z m 103.21875,0 0,113.84375 29.625,0 0,-113.84375 -29.625,0 z m 41.625,0 0,113.84375 47.625,0 0,-22.78125 -18,0 0,-91.0625 -29.625,0 z m 63.15625,0 -15.0625,113.84375 30.65625,0 1.78125,-20.46875 10.59375,0 1.5,20.46875 30.28125,0 -16.9375,-113.84375 -42.8125,0 z m 64.8125,0 0,113.84375 29.625,0 0,-51.3125 c 4.07809,5.2e-5 6.60152,0.703176 7.5625,2.15625 0.96089,1.453173 1.43746,5.250044 1.4375,11.34375 l 0,37.8125 27.46875,0 0,-30.03125 c -7e-5,-9.187461 -0.22664,-14.773393 -0.71875,-16.8125 -0.49226,-2.039013 -1.76569,-4.281198 -3.78125,-6.71875 -2.01569,-2.437444 -5.95319,-4.390567 -11.8125,-5.84375 6.46869,-0.609315 10.82806,-2.453063 13.03125,-5.5 2.20306,-3.046807 3.28118,-8.984301 3.28125,-17.84375 -7e-5,-9.703033 -1.53913,-16.757713 -4.65625,-21.1875 -3.11725,-4.429579 -7.1485,-7.203013 -12.09375,-8.28125 -4.94536,-1.078011 -14.40629,-1.624886 -28.375,-1.625 l -20.96875,0 z m 29.625,19.5 c 3.42184,9.5e-5 5.77339,0.562594 7.0625,1.6875 1.28902,1.125092 1.93746,3.484464 1.9375,7.09375 l 0,6.25 c -4e-5,5.0157 -0.66411,7.992258 -2,8.90625 -1.33598,0.914132 -3.67191,1.375069 -7,1.375 l 0,-25.3125 z m -71.8125,5.96875 c 1.49996,18.937569 2.99996,34.859429 4.5,47.75 l -10.125,0 c 0.74997,-10.078074 2.62497,-25.999933 5.625,-47.75 z"
       id="path4311"
       inkscape:connector-curvature="0"
       inkscape:export-filename="C:\Users\yoakubera\AppData\Local\Eclipse\workspace\similar\src\site\resources\images\similarLogo.png"
       inkscape:export-xdpi="116.39344"
       inkscape:export-ydpi="116.39344" />
    <text
       xml:space="preserve"
       style="font-size:14px;font-style:normal;font-weight:normal;line-height:125%;letter-spacing:0px;word-spacing:0px;fill:#000000;fill-opacity:1;stroke:none;filter:url(#filter4477);font-family:Sans"
       x="148.57143"
       y="147.36218"
       id="text2989"
       sodipodi:linespacing="125%"
       inkscape:export-filename="C:\Users\yoakubera\AppData\Local\Eclipse\workspace\similar\src\site\resources\images\similarLogo.png"
       inkscape:export-xdpi="116.39344"
       inkscape:export-ydpi="116.39344"><tspan
         sodipodi:role="line"
         id="tspan2991"
         x="148.57143"
         y="147.36218"><tspan
   style="font-size:16px;font-weight:bold;-inkscape-font-specification:Sans Bold"
   id="tspan2993">SI</tspan>mulations with <tspan
   style="font-size:18px;font-weight:bold;-inkscape-font-specification:Sans Bold"
   id="tspan2995">M</tspan>ult<tspan
   style="font-size:18px;font-weight:bold;-inkscape-font-specification:Sans Bold"
   id="tspan3003">I</tspan>-<tspan
   style="font-size:18px;font-weight:bold;-inkscape-font-specification:Sans Bold"
   id="tspan3007">L</tspan>evel <tspan
   style="font-size:18px;font-weight:bold;-inkscape-font-specification:Sans Bold"
   id="tspan3011">A</tspan>gents and <tspan
   style="font-size:18px;font-weight:bold;-inkscape-font-specification:Sans Bold"
   id="tspan3015">R</tspan>eactions</tspan></text>
  </g>
  <g
     inkscape:groupmode="layer"
     id="layer4"
     inkscape:label="Stickmen"
     style="display:inline"
     transform="translate(24.4375,80.055202)">
    <g
       id="g4524"
       style="filter:url(#filter4548)"
       inkscape:export-filename="C:\Users\yoakubera\AppData\Local\Eclipse\workspace\similar\src\site\resources\images\similarLogo.png"
       inkscape:export-xdpi="116.39344"
       inkscape:export-ydpi="116.39344">
      <path
         transform="translate(320,1.4285714)"
         d="m 4.2857146,42.897896 c 0,5.424225 -4.31725435,9.821428 -9.6428575,9.821428 C -10.682746,52.719324 -15,48.322121 -15,42.897896 c 0,-5.424225 4.317254,-9.821428 9.6428571,-9.821428 5.32560315,0 9.6428575,4.397203 9.6428575,9.821428 z"
         sodipodi:ry="9.8214283"
         sodipodi:rx="9.6428576"
         sodipodi:cy="42.897896"
         sodipodi:cx="-5.3571429"
         id="path4208"
         style="fill:#ffffff;fill-opacity:1;stroke:none"
         sodipodi:type="arc" />
      <path
         inkscape:connector-curvature="0"
         id="path3917"
         d="m 314.68304,31.120535 c -7.06644,0 -12.65625,6.13001 -12.65625,13.4375 0,5.00947 2.72518,9.29319 6.65625,11.59375 -1.01023,2.11934 -1.90761,4.20111 -2.71875,6.25 l -7.25,0 c -2.34573,0.0199 -4.16301,0.099 -5.625,0.375 -0.7048,0.13309 -1.35198,0.31034 -2,0.65625 -0.68782,0.36715 -1.38468,0.91438 -1.75,1.875 -0.33844,0.88993 -0.2483,1.79386 0,2.5 0.25885,0.73566 0.64892,1.28628 1.03125,1.8125 0.8023,1.10425 1.89403,2.26904 3.3125,3.6875 l 6.96875,6.96875 a 1.8212605,1.8212605 0 0 0 0.125,0.125 c 0.0448,0.03497 0.0784,0.0937 0.125,0.125 a 1.8212605,1.8212605 0 0 0 0.0312,0 c 0.0316,0.02069 0.0614,0.04348 0.0937,0.0625 a 1.8212605,1.8212605 0 0 0 0.0312,0.03125 c 0.88713,0.49962 2.02182,0.37479 2.78125,-0.375 0.91975,-0.90808 0.93933,-2.3615 0.0312,-3.28125 l -1.8125,-1.84375 -0.25,-0.25 -4.84375,-4.84375 c -1.20311,-1.20311 -1.99221,-2.07375 -2.53125,-2.75 0.92641,-0.13689 2.2567,-0.23279 4.28125,-0.25 l 5.5625,0 c -0.81554,2.44749 -1.45718,4.85052 -2,7.21875 l 2.125,2.125 c 1.20744,1.22295 1.19169,3.23006 -0.0312,4.4375 -0.92795,0.91619 -2.27594,1.11034 -3.40625,0.625 -1.31957,10.56812 -0.0946,20.555945 2.71875,30.593745 1.36658,-0.8343 2.72734,-1.66169 4.09375,-2.5 -1.85122,-6.89508 -2.86804,-13.651535 -2.75,-20.593745 l 7.3125,12.562495 0.0312,0.0625 a 1.8212605,1.8212605 0 0 0 0.1875,0.40625 c 1.3128,2.00362 1.6646,3.47424 1.59375,4.125 -0.0742,0.68191 -0.30391,1.00738 -1.34375,1.5 -0.0105,0.005 -0.0206,-0.005 -0.0312,0 a 1.8212605,1.8212605 0 0 0 -0.34375,0.1875 c -1.50926,0.87136 -2.96643,1.71379 -4.4375,2.5625 -0.003,-0.01 0.003,-0.0215 0,-0.0312 l -4.125,2.40625 c 0.003,0.01 -0.003,0.0216 0,0.0312 l -2.96875,1.71875 c -0.53224,0.31021 -1.06734,0.63343 -1.59375,0.9375 -0.0199,0.0115 -0.0427,0.02 -0.0625,0.0312 -0.0474,0.0274 -0.10895,0.0352 -0.15625,0.0625 -0.0389,0.016 -0.0937,0.0312 -0.0937,0.0312 -1.83107,0.94264 -3.16165,1.68689 -4.21875,2.59375 -0.53345,0.45765 -1.04154,0.9959 -1.375,1.75 -0.33545,0.75858 -0.44169,1.624 -0.21875,2.5 0.37783,1.48467 1.31327,2.4286 2.34375,3.5 1.05295,1.09476 2.40567,2.37442 4.0625,4.03125 a 1.8212605,1.8212605 0 0 0 2.5625,0 l 0.71875,-0.71875 a 1.8212605,1.8212605 0 0 0 0,-2.5625 c -1.71307,-1.71307 -3.09419,-2.99572 -4,-3.9375 -0.7117,-0.73996 -0.87592,-1.03289 -0.96875,-1.125 0.43736,-0.35311 1.5704,-1.02616 3.28125,-1.90625 a 1.8212605,1.8212605 0 0 0 0.0625,-0.0625 c 1.31794,-0.76091 2.68122,-1.53414 4.03125,-2.3125 l 4.09375,-2.375 c 1.0435,-0.60278 2.10805,-1.20217 3.15625,-1.8125 0.68993,-0.40172 1.35673,-0.81128 2.0625,-1.21875 0.0285,-0.0165 0.0652,-0.0149 0.0937,-0.0312 0.0254,-0.0141 0.008,-0.0174 0.0312,-0.0312 l 0,-0.0312 c 0.16659,-0.0791 0.27729,-0.22335 0.4375,-0.3125 0.004,-0.006 0.0285,-0.0267 0.0312,-0.0312 0.008,-0.013 0.0949,-0.0953 0.0937,-0.0937 1.81655,-1.06208 3.27171,-2.65321 3.5,-4.75 0.25452,-2.33763 -0.67102,-4.68713 -2.28125,-7.156245 a 1.8212605,1.8212605 0 0 0 -0.125,-0.15625 1.8212605,1.8212605 0 0 0 -0.0937,-0.125 l -10.625,-18.25 c 0.64487,-4.44695 1.84701,-9.06324 3.5625,-13.875 l 25.375,0 4.75,0 c 1.24007,0 2.33688,-0.21049 3.28125,-0.6875 0.99639,-0.50329 1.77013,-1.35079 2.1875,-2.3125 0.77969,-1.79659 0.55021,-3.57115 0.34375,-5.25 -0.41359,-3.3632 -0.93572,-6.63066 0.84375,-9.15625 a 1.8212605,1.8212605 0 0 0 -0.46875,-2.5625 l -0.8125,-0.5625 a 1.8212605,1.8212605 0 0 0 -2.53125,0.4375 c -3.04974,4.32849 -2.03921,9.29214 -1.65625,12.40625 0.1888,1.5353 0.0957,2.76718 0.0625,2.84375 -0.007,0.0173 0.002,0.02245 0,0.03125 -0.003,-0.005 -0.004,-0.0137 -0.0312,0 -0.099,0.05 -0.48157,0.1875 -1.21875,0.1875 l -4.75,0 -23.5625,0 c 0.63697,-1.52867 1.2447,-3.05431 2,-4.625 0.54941,0.0772 1.08563,0.1875 1.65625,0.1875 7.06013,0 12.65625,-6.09876 12.65625,-13.40625 0,-7.30749 -5.58981,-13.4375 -12.65625,-13.4375 z m 0,4.625 c 4.36831,0 8.03125,3.83836 8.03125,8.8125 0,4.97414 -3.65595,8.78125 -8.03125,8.78125 -4.3753,0 -8.03125,-3.80711 -8.03125,-8.78125 0,-4.97414 3.66294,-8.8125 8.03125,-8.8125 z m -5.03125,80.031245 c -1.27293,0.85188 -2.68829,1.61018 -4.09375,2.375 1.05688,3.15896 2.19324,6.32978 3.5,9.5625 a 1.8212605,1.8212605 0 0 0 2.375,1 l 0.9375,-0.375 a 1.8212605,1.8212605 0 0 0 1,-2.375 c -1.4074,-3.48171 -2.62326,-6.84667 -3.71875,-10.1875 z"
         style="font-size:medium;font-style:normal;font-variant:normal;font-weight:normal;font-stretch:normal;text-indent:0;text-align:start;text-decoration:none;line-height:normal;letter-spacing:normal;word-spacing:normal;text-transform:none;direction:ltr;block-progression:tb;writing-mode:lr-tb;text-anchor:start;baseline-shift:baseline;color:#000000;fill:#ff0000;fill-opacity:1;stroke:none;stroke-width:1px;marker:none;visibility:visible;display:inline;overflow:visible;enable-background:accumulate;font-family:Sans;-inkscape-font-specification:Sans" />
    </g>
    <g
       id="g4520"
       style="filter:url(#filter4540)"
       inkscape:export-filename="C:\Users\yoakubera\AppData\Local\Eclipse\workspace\similar\src\site\resources\images\similarLogo.png"
       inkscape:export-xdpi="116.39344"
       inkscape:export-ydpi="116.39344">
      <path
         transform="translate(-0.35714286,-0.71428572)"
         d="m 173.92858,33.969322 c 0,6.213204 -4.39721,11.25 -9.82143,11.25 -5.42423,0 -9.82143,-5.036796 -9.82143,-11.25 0,-6.213203 4.3972,-11.25 9.82143,-11.25 5.42422,0 9.82143,5.036797 9.82143,11.25 z"
         sodipodi:ry="11.25"
         sodipodi:rx="9.8214283"
         sodipodi:cy="33.969322"
         sodipodi:cx="164.10715"
         id="path4201"
         style="fill:#ffffff;fill-opacity:1;stroke:none"
         sodipodi:type="arc" />
      <path
         id="path4076"
         d="m 218,15.625 a 0.79867559,0.79867559 0 0 0 -0.59375,0.5 c -11.30638,25.76216 -27.75232,43.39545 -45.125,46.40625 a 0.79867559,0.79867559 0 0 0 -0.65625,0.9375 l 0.1875,0.96875 a 0.79867559,0.79867559 0 0 0 0.90625,0.625 C 191.48082,61.810908 208.24857,43.362838 219.75,17.15625 A 0.79867559,0.79867559 0 0 0 219.34375,16.125 L 218.4375,15.71875 A 0.79867559,0.79867559 0 0 0 218.15625,15.625 0.79867559,0.79867559 0 0 0 218,15.625 z m -53.84375,4.34375 c -6.47449,0.04643 -11.93297,5.340523 -12.625,12.15625 -0.73819,7.270111 4.19473,13.880559 11.21875,14.59375 0.5677,0.05764 1.10185,0.0213 1.65625,0 0.52303,1.446211 0.95595,2.820423 1.375,4.21875 l -13.5625,3.625 c -0.0104,-1.02e-4 -0.0208,-1.02e-4 -0.0312,0 -1.64733,0.485409 -2.80942,0.754334 -3.09375,0.71875 -0.20452,-0.02559 -0.28121,-0.03565 -0.53125,-0.25 -0.25005,-0.214349 -0.61249,-0.673647 -1.09375,-1.53125 -0.0103,-0.01056 -0.0207,-0.02098 -0.0312,-0.03125 L 141.46875,43.125 c -0.42523,-0.703526 -1.44154,-0.968652 -2.15625,-0.5625 l -0.875,0.5 c -0.73022,0.415155 -1.01385,1.460115 -0.59375,2.1875 l 5.9375,10.3125 0.0312,0.03125 c 1.26715,2.239378 2.89674,3.639157 4.78125,3.875 1.72852,0.216322 3.08707,-0.383021 4.46875,-0.8125 0.0421,-0.0087 0.0838,-0.01916 0.125,-0.03125 0.009,-0.0029 0.0221,0.0028 0.0312,0 0.0316,-0.0095 0.0628,-0.01987 0.0937,-0.03125 l 12.71875,-3.40625 0,18.4375 -19.4375,38.9375 c -0.37735,0.75911 -0.017,1.79518 0.75,2.15625 l 0.90625,0.4375 c 0.74562,0.3623 1.75239,0.0218 2.125,-0.71875 L 169.59375,76 184.5625,71.96875 c 0.0208,4.08e-4 0.0417,4.08e-4 0.0625,0 1.20776,-0.35836 2.09283,-0.56084 2.625,-0.625 0.26349,-0.0318 0.37553,-0.03365 0.4375,-0.03125 0.0579,0.0748 0.16241,0.22576 0.28125,0.5 0.22862,0.5276 0.52425,1.46713 0.875,2.71875 l 4.5625,16.25 c 0.23043,0.814118 1.19023,1.33901 2,1.09375 l 0.9375,-0.28125 c 0.7892,-0.24424 1.29151,-1.175 1.0625,-1.96875 L 192.875,73.375 c -0.36368,-1.29772 -0.67209,-2.31777 -1.0625,-3.21875 -0.40127,-0.92601 -0.95718,-1.87298 -1.9375,-2.46875 -0.99231,-0.60306 -2.1194,-0.65249 -3.125,-0.53125 -0.96699,0.11658 -2.01833,0.40794 -3.28125,0.78125 -0.0228,0.007 -0.0396,-0.007 -0.0625,0 l -13.1875,3.5625 0,-18.09375 24,-24.03125 c 0.57615,-0.5802 0.59091,-1.622579 0.0312,-2.21875 l -0.6875,-0.71875 c -0.33099,-0.354141 -0.82978,-0.544155 -1.3125,-0.5 -0.36379,0.0391 -0.71233,0.207747 -0.96875,0.46875 l -16.6562,16.65625 -4.78125,5.21875 c -0.001,-0.0031 -0.0302,0.0031 -0.0312,0 -0.29498,-0.908719 -0.57518,-1.824724 -0.90625,-2.75 4.14336,-1.891689 7.27521,-5.891156 7.78125,-10.875 0.73818,-7.270111 -4.18846,-13.911171 -11.21875,-14.625 -0.43939,-0.04461 -0.88087,-0.06559 -1.3125,-0.0625 z m 0.0312,4.625 c 0.26838,-0.0022 0.54088,0.0037 0.8125,0.03125 4.34596,0.441274 7.59622,4.613807 7.09375,9.5625 -0.50247,4.948697 -4.52208,8.379477 -8.875,7.9375 -4.35292,-0.441979 -7.59622,-4.582553 -7.09375,-9.53125 0.47107,-4.639402 4.03674,-7.966588 8.0625,-8 z"
         style="font-size:medium;font-style:normal;font-variant:normal;font-weight:normal;font-stretch:normal;text-indent:0;text-align:start;text-decoration:none;line-height:normal;letter-spacing:normal;word-spacing:normal;text-transform:none;direction:ltr;block-progression:tb;writing-mode:lr-tb;text-anchor:start;baseline-shift:baseline;color:#000000;fill:#ff0000;fill-opacity:1;stroke:none;stroke-width:1px;marker:none;visibility:visible;display:inline;overflow:visible;enable-background:accumulate;font-family:Sans;-inkscape-font-specification:Sans"
         inkscape:connector-curvature="0" />
    </g>
    <g
       id="g4528"
       style="filter:url(#filter4532)"
       inkscape:export-filename="C:\Users\yoakubera\AppData\Local\Eclipse\workspace\similar\src\site\resources\images\similarLogo.png"
       inkscape:export-xdpi="116.39344"
       inkscape:export-ydpi="116.39344">
      <path
         transform="translate(0,0.71428572)"
         d="m 484.28571,-37.637817 c 0,6.50907 -4.8769,11.785714 -10.89286,11.785714 -6.01596,0 -10.89285,-5.276644 -10.89285,-11.785714 0,-6.509071 4.87689,-11.785715 10.89285,-11.785715 6.01596,0 10.89286,5.276644 10.89286,11.785715 z"
         sodipodi:ry="11.785714"
         sodipodi:rx="10.892858"
         sodipodi:cy="-37.637817"
         sodipodi:cx="473.39285"
         id="path4214"
         style="fill:#ffffff;fill-opacity:1;stroke:none"
         sodipodi:type="arc" />
      <path
         id="path4164"
         d="m 490.9375,-56.25 a 0.71991644,0.71991644 0 0 0 -0.53125,0.3125 L 487,-51.25 a 0.71991644,0.71991644 0 0 0 0.1875,1 L 488,-49.65625 a 0.71991644,0.71991644 0 0 0 1,-0.1875 l 3.40625,-4.6875 a 0.71991644,0.71991644 0 0 0 0.15625,-0.53125 0.71991644,0.71991644 0 0 0 -0.3125,-0.46875 l -0.84375,-0.5625 A 0.71991644,0.71991644 0 0 0 490.9375,-56.25 z m 5.21875,4.21875 a 0.71991644,0.71991644 0 0 0 -0.3125,0.125 l -5.6875,3.84375 a 0.71991644,0.71991644 0 0 0 -0.21875,1 L 490.5,-46.25 a 0.71991644,0.71991644 0 0 0 1,0.21875 l 5.6875,-3.84375 a 0.71991644,0.71991644 0 0 0 0.3125,-0.6875 0.71991644,0.71991644 0 0 0 -0.125,-0.3125 l -0.53125,-0.8125 a 0.71991644,0.71991644 0 0 0 -0.6875,-0.34375 z m -22.25,2.625 c -4.28147,0.01943 -8.56173,2.214944 -11.1875,6.125 -2.79278,4.158747 -2.91842,9.242308 -0.9375,13.34375 -0.31735,0.187916 -0.59445,0.373061 -0.90625,0.5625 a 1.9234655,1.9234655 0 0 0 -0.5625,0.21875 c -0.21206,0.107008 -0.3784,0.18801 -0.5625,0.28125 l -7.9375,1.4375 c -1.75593,0.313048 -3.18808,0.85099 -4.8125,1.84375 a 1.9234655,1.9234655 0 0 0 -0.6875,0.34375 l 0,0.03125 -0.0312,0 c -3.1702,2.629677 -5.83338,4.848259 -9.15625,7.40625 a 1.9234655,1.9234655 0 0 0 -0.34375,2.71875 l 0.625,0.8125 a 1.9234655,1.9234655 0 0 0 2.6875,0.34375 c 2.55156,-1.964225 4.74525,-3.756971 7,-5.625 0.28469,-0.235857 0.5549,-0.479349 0.84375,-0.71875 l 1.90625,-1.625 2.84375,-0.5625 c -2.20596,1.284655 -4.17639,3.060994 -6.125,4.84375 -1.03533,2.424872 -1.75896,5.343641 -2.75,9.3125 L 413.9063,16.21875 a 1.9234655,1.9234655 0 0 0 -0.0312,0 l -0.84375,0.6875 a 1.9234655,1.9234655 0 0 0 0.90625,3.375 l 1.125,0.21875 a 1.9234655,1.9234655 0 0 0 0.0312,0 l 2.03125,0.3125 a 1.9234655,1.9234655 0 0 0 2.1875,-1.59375 l 0.15625,-1 a 1.9234655,1.9234655 0 0 0 0.0312,-0.3125 l 0,-0.03125 26.46875,-21.59375 6.21875,4.96875 0.21875,0.1875 0,0.03125 a 1.9234655,1.9234655 0 0 0 0.28125,0.1875 1.9234655,1.9234655 0 0 0 0.0312,0.03125 c 0.0355,0.021484 0.0586,0.00998 0.0937,0.03125 a 1.9234655,1.9234655 0 0 0 0.0937,0.0625 c 3.78552,2.2789611 5.83454,3.3011523 7.1875,4.78125 1.36168,1.4896235 2.58938,4.011594 4.5,9.59375 a 1.9234655,1.9234655 0 0 0 0.0312,0.15625 c 0.01,0.02884 0.0213,0.0335 0.0312,0.0625 a 1.9234655,1.9234655 0 0 0 0.0625,0.15625 1.9234655,1.9234655 0 0 0 0.15625,0.3125 l 0,0.03125 a 1.9234655,1.9234655 0 0 0 0.0937,0.125 l 4.1875,8.375 a 1.9234655,1.9234655 0 0 0 0,0.0625 l 0.125,0.1875 a 1.9234655,1.9234655 0 0 0 1,0.875 l 0.1875,0.09375 a 1.9234655,1.9234655 0 0 0 0.21875,0.0625 L 472.875,27.25 a 1.9234655,1.9234655 0 0 0 2.34375,-1.40625 l 0.25,-0.96875 a 1.9234655,1.9234655 0 0 0 -1.375,-2.375 L 472.9375,22.21875 469.25,14.8125 c -0.0552,-0.16421 -0.0679,-0.170465 -0.0312,-0.0625 -0.0241,-0.0708 -0.0385,-0.08622 -0.0625,-0.15625 -1.96996,-5.7609144 -3.36598,-8.9154694 -5.5,-11.25 -2.11938,-2.3185241 -4.59591,-3.49304086 -8.25,-5.6875 l -0.125,-0.09375 -0.0312,0 -0.0312,-0.03125 -6.5,-5.28125 c 1.33196,-5.280482 2.11858,-8.374816 3.40625,-10.1875 1.01938,-1.434995 3.18264,-2.901802 6.3125,-4.65625 -0.10083,1.410088 -0.18685,2.826573 -0.28125,4.21875 -0.17363,2.561129 0.29586,4.760243 0.59375,6.71875 a 1.9234655,1.9234655 0 0 0 0,0.03125 1.9234655,1.9234655 0 0 0 0.0312,0.15625 l 2.28125,10.3125 a 1.9234655,1.9234655 0 0 0 2.3125,1.46875 l 1,-0.25 a 1.9234655,1.9234655 0 0 0 1.46875,-2.3125 l -2.28125,-10.15625 c -0.006,-0.03693 -0.0253,-0.05701 -0.0312,-0.09375 -0.31967,-2.086842 -0.64758,-3.816203 -0.53125,-5.53125 0.168,-2.477084 0.35479,-5.012308 0.53125,-7.53125 0.31789,-0.197775 0.63845,-0.430938 0.96875,-0.625 0.41307,0.370386 0.77629,0.77563 1.25,1.09375 5.86116,3.936021 13.89483,2.004011 17.96875,-4.0625 4.07392,-6.066511 2.8664,-14.247961 -3,-18.1875 -1.83325,-1.231107 -3.89592,-1.899382 -5.96875,-2.03125 -0.28501,-0.01813 -0.55832,-0.03254 -0.84375,-0.03125 z m 24.625,4.375 A 0.71991644,0.71991644 0 0 0 498.46875,-45 l -5.75,0.9375 a 0.71991644,0.71991644 0 0 0 -0.59375,0.84375 l 0.15625,1 a 0.71991644,0.71991644 0 0 0 0.84375,0.625 l 5.75,-1 a 0.71991644,0.71991644 0 0 0 0.59375,-0.84375 l -0.15625,-0.96875 a 0.71991644,0.71991644 0 0 0 -0.78125,-0.625 z m -25.21875,0.25 c 0.36384,-0.02772 0.73187,-0.02201 1.09375,0 1.31594,0.08002 2.61672,0.520209 3.75,1.28125 3.62647,2.435331 4.52309,7.620583 1.75,11.75 -2.77308,4.129417 -7.96148,5.251728 -11.59375,2.8125 -3.63228,-2.439228 -4.52308,-7.651833 -1.75,-11.78125 1.66818,-2.484102 4.20312,-3.868436 6.75,-4.0625 z"
         style="font-size:medium;font-style:normal;font-variant:normal;font-weight:normal;font-stretch:normal;text-indent:0;text-align:start;text-decoration:none;line-height:normal;letter-spacing:normal;word-spacing:normal;text-transform:none;direction:ltr;block-progression:tb;writing-mode:lr-tb;text-anchor:start;baseline-shift:baseline;color:#000000;fill:#ff0000;fill-opacity:1;stroke:none;stroke-width:1px;marker:none;visibility:visible;display:inline;overflow:visible;enable-background:accumulate;font-family:Sans;-inkscape-font-specification:Sans"
         inkscape:connector-curvature="0" />
    </g>
    <path
       sodipodi:type="arc"
       style="fill:#ffffff;fill-opacity:1;stroke:none"
       id="path4208-4"
       sodipodi:cx="-5.3571429"
       sodipodi:cy="42.897896"
       sodipodi:rx="9.6428576"
       sodipodi:ry="9.8214283"
       d="m 4.2857146,42.897896 c 0,5.424225 -4.31725435,9.821428 -9.6428575,9.821428 C -10.682746,52.719324 -15,48.322121 -15,42.897896 c 0,-5.424225 4.317254,-9.821428 9.6428571,-9.821428 5.32560315,0 9.6428575,4.397203 9.6428575,9.821428 z"
       transform="matrix(-1,0,0,1,66.29553,-101.09094)"
       inkscape:export-filename="C:\Users\yoakubera\AppData\Local\Eclipse\workspace\similar\src\site\resources\images\similarLogo.png"
       inkscape:export-xdpi="116.39344"
       inkscape:export-ydpi="116.39344" />
    <path
       inkscape:connector-curvature="0"
       style="font-size:medium;font-style:normal;font-variant:normal;font-weight:normal;font-stretch:normal;text-indent:0;text-align:start;text-decoration:none;line-height:normal;letter-spacing:normal;word-spacing:normal;text-transform:none;direction:ltr;block-progression:tb;writing-mode:lr-tb;text-anchor:start;baseline-shift:baseline;color:#000000;fill:#ff0000;fill-opacity:1;stroke:none;stroke-width:1px;marker:none;visibility:visible;display:inline;overflow:visible;filter:url(#filter4512);enable-background:accumulate;font-family:Sans;-inkscape-font-specification:Sans"
       d="m 71.96875,-71.209822 c -7.066433,0 -12.65625,6.13001 -12.65625,13.4375 0,7.30749 5.596127,13.40625 12.65625,13.40625 0.57062,0 1.10684,-0.1103 1.65625,-0.1875 0.10648,0.221428 0.18014,0.436478 0.28125,0.65625 l -2.15625,8.53125 0,0.03125 c -1.15019,4.15451 -1.15709,4.335534 -5.15625,8.34375 -0.016,0.01603 -0.0152,0.0151 -0.0312,0.03125 l -7.31255,6.84375 c -0.61308,0.591264 -0.65698,1.673574 -0.09375,2.3125 l 0.65625,0.75 c 0.58829,0.676437 1.75104,0.73684 2.40625,0.125 l 7.1875,-6.75 c 0.0211,-0.01 0.0419,-0.0204 0.0625,-0.03125 0.0438,-0.03943 0.0856,-0.08117 0.125,-0.125 0.0211,-0.01 0.0419,-0.0204 0.0625,-0.03125 4.19415,-4.202192 5.11568,-6.022404 6.3125,-10.34375 1e-4,-0.01042 1e-4,-0.02083 0,-0.03125 l 0.65625,-2.65625 5.53125,16.34375 -16.21875,34.96875 c -0.36098,0.765443 -0.0259,1.78533 0.71875,2.1875 l 0.875,0.46875 c 0.79088,0.41363 1.89015,0.0523 2.28125,-0.75 l 14.65625,-31.75 3.46875,7.65625 0.0312,0.125 c 0.0273,0.06438 0.0587,0.12704 0.0937,0.1875 l 0.03135,0.03125 c 0.041,0.109231 0.0935,0.214156 0.15625,0.3125 0.0297,0.0421 0.0332,0.05217 0.0625,0.09375 1.43239,2.034182 2.34648,3.482363 3.09375,4.5625 0.76254,1.102214 1.44829,1.963756 2.46875,2.53125 1.08844,0.605298 2.22179,0.590853 3.28125,0.53125 1.04933,-0.05899 2.25681,-0.166818 4.125,-0.1875 l 0.0312,0 0.0312,0 0.0625,0 c 0.1373,-0.0041 0.27409,-0.02511 0.40625,-0.0625 l 11.78135,-3.03125 c 0.86684,-0.223959 1.44018,-1.234846 1.1875,-2.09375 L 114.5,-5.741072 c -0.2392,-0.815432 -1.17397,-1.355847 -2,-1.15625 l -11.40625,2.9375 c -1.96157,0.02889 -3.36775,0.203887 -4.1875,0.25 -0.88429,0.04979 -0.95987,-0.02982 -0.90625,0 0.12831,0.07136 -0.28962,-0.287029 -0.96875,-1.25 -0.65704,-0.931657 -1.66664,-2.409607 -3.09375,-4.4375 l -0.0937,-0.125 c -0.007,-0.0098 0.007,-0.02143 0,-0.03125 l -5.125,-11.125 c -0.0286,-0.162822 -0.0814,-0.32136 -0.15625,-0.46875 l -0.0937,-0.1875 -6.34385,-18.59375 0.15625,0 4.40625,2.28125 c 0.0208,3.89e-4 0.0417,3.89e-4 0.0625,0 3.57554,1.725439 5.55281,3.572902 7.65625,8.15625 l 3.25,9.0625 c 0.3195,0.867137 1.44434,1.329399 2.28125,0.9375 l 0.90625,-0.4375 c 0.73023,-0.356751 1.1146,-1.296241 0.84375,-2.0625 l -3.28125,-9.1875 c -0.009,-0.04205 -0.0192,-0.08375 -0.0312,-0.125 -2.38817,-5.203757 -5.4871,-8.211421 -9.6875,-10.25 l -0.0312,0 -8.625,-4.46875 c -0.0243,-0.05132 -0.038,-0.104888 -0.0625,-0.15625 3.93107,-2.30056 6.65625,-6.58428 6.65625,-11.59375 0,-7.30749 -5.58981,-13.4375 -12.65625,-13.4375 z m 0,4.625 c 4.36831,0 8.03125,3.83836 8.03125,8.8125 0,4.97414 -3.65595,8.78125 -8.03125,8.78125 -4.37529,0 -8.03125,-3.80711 -8.03125,-8.78125 0,-4.97414 3.66295,-8.8125 8.03125,-8.8125 z"
       id="path4275"
       inkscape:export-filename="C:\Users\yoakubera\AppData\Local\Eclipse\workspace\similar\src\site\resources\images\similarLogo.png"
       inkscape:export-xdpi="116.39344"
       inkscape:export-ydpi="116.39344" />
  </g>
</svg>
