<?xml version="1.0" encoding="UTF-8" standalone="no"?>
<!-- Created with Inkscape (http://www.inkscape.org/) -->

<svg
   xmlns:dc="http://purl.org/dc/elements/1.1/"
   xmlns:cc="http://creativecommons.org/ns#"
   xmlns:rdf="http://www.w3.org/1999/02/22-rdf-syntax-ns#"
   xmlns:svg="http://www.w3.org/2000/svg"
   xmlns="http://www.w3.org/2000/svg"
   xmlns:xlink="http://www.w3.org/1999/xlink"
   xmlns:sodipodi="http://sodipodi.sourceforge.net/DTD/sodipodi-0.dtd"
   xmlns:inkscape="http://www.inkscape.org/namespaces/inkscape"
   width="650"
   height="235"
   id="svg2"
   version="1.1"
   inkscape:version="0.48.4 r9939"
   sodipodi:docname="generalTimeModelTransitory.svg"
   inkscape:export-filename="C:\Users\yoakubera\Desktop\similarDocNew\images\generalTimeModel2.png"
   inkscape:export-xdpi="143.35631"
   inkscape:export-ydpi="143.35631">
  <defs
     id="defs4">
    <inkscape:path-effect
       effect="bend_path"
       id="path-effect4123"
       is_visible="true"
       bendpath="m 292.88064,173.57803 c 47.69883,-39.64785 142.12703,-29.4739 152.91448,-13.41609"
       prop_scale="1"
       scale_y_rel="false"
       vertical="false"
       bendpath-nodetypes="cc" />
    <inkscape:path-effect
       effect="bend_path"
       id="path-effect4021"
       is_visible="true"
       bendpath="m 103.98212,175.59833 c 12.66644,-23.49492 39.87407,-26.8833 46.8169,-14.45781"
       prop_scale="1"
       scale_y_rel="false"
       vertical="false"
       bendpath-nodetypes="cc" />
    <inkscape:path-effect
       effect="bend_path"
       id="path-effect3960"
       is_visible="true"
       bendpath="m 107.70775,174.33563 c 23.21289,-53.56529 58.07012,-28.03323 57.62309,0"
       prop_scale="1"
       scale_y_rel="false"
       vertical="false"
       bendpath-nodetypes="cc" />
    <inkscape:path-effect
       effect="bend_path"
       id="path-effect3919"
       is_visible="true"
       bendpath="M 169.13323,173.57803 229.65779,163.4765"
       prop_scale="1"
       scale_y_rel="false"
       vertical="false"
       bendpath-nodetypes="cc" />
    <inkscape:path-effect
       effect="bend_path"
       id="path-effect3917"
       is_visible="true"
       bendpath="m 105.29011,173.57803 c 25.70416,-47.23141 32.46343,-24.99429 57.99918,-0.50507"
       prop_scale="1"
       scale_y_rel="false"
       vertical="false"
       bendpath-nodetypes="cc" />
    <inkscape:path-effect
       effect="bend_path"
       id="path-effect3858"
       is_visible="true"
       bendpath="m 107.74331,172.82041 c 26.99973,-38.47314 31.03461,-19.21116 53.06489,2.52538"
       prop_scale="1"
       scale_y_rel="false"
       vertical="false"
       bendpath-nodetypes="cc" />
    <inkscape:path-effect
       effect="bend_path"
       id="path-effect3917-8"
       is_visible="true"
       bendpath="m 167.52588,175.15289 c 10.0468,-38.64511 20.84668,-20.4486 57.99918,-0.50507"
       prop_scale="1"
       scale_y_rel="false"
       vertical="false"
       bendpath-nodetypes="cc" />
  </defs>
  <sodipodi:namedview
     id="base"
     pagecolor="#ffffff"
     bordercolor="#666666"
     borderopacity="1.0"
     inkscape:pageopacity="0.0"
     inkscape:pageshadow="2"
     inkscape:zoom="2"
     inkscape:cx="256.44845"
     inkscape:cy="108.72103"
     inkscape:document-units="px"
     inkscape:current-layer="layer1"
     showgrid="false"
     inkscape:window-width="1920"
     inkscape:window-height="1138"
     inkscape:window-x="-8"
     inkscape:window-y="-8"
     inkscape:window-maximized="1"
     fit-margin-top="0"
     fit-margin-left="0"
     fit-margin-right="0"
     fit-margin-bottom="0"
     showguides="true"
     inkscape:guide-bbox="true" />
  <metadata
     id="metadata7">
    <rdf:RDF>
      <cc:Work
         rdf:about="">
        <dc:format>image/svg+xml</dc:format>
        <dc:type
           rdf:resource="http://purl.org/dc/dcmitype/StillImage" />
        <dc:title />
      </cc:Work>
    </rdf:RDF>
  </metadata>
  <g
     inkscape:groupmode="layer"
     id="layer1"
     inkscape:label="Time model with transitory"
     style="display:inline"
     transform="translate(7.5,-253)">
    <g
       transform="translate(-46.659682,196.37371)"
       id="g4013"
       style="display:inline">
      <path
         style="font-size:medium;font-style:normal;font-variant:normal;font-weight:normal;font-stretch:normal;text-indent:0;text-align:start;text-decoration:none;line-height:normal;letter-spacing:normal;word-spacing:normal;text-transform:none;direction:ltr;block-progression:tb;writing-mode:lr-tb;text-anchor:start;baseline-shift:baseline;color:#000000;fill:#000000;fill-opacity:1;stroke:none;stroke-width:1px;marker:none;visibility:visible;display:inline;overflow:visible;enable-background:accumulate;font-family:Sans;-inkscape-font-specification:Sans"
         d="m 42.800306,76.146362 0,1 641.957144,0 0,-1 -641.957144,0 z"
         id="path4015"
         inkscape:connector-curvature="0"
         inkscape:export-filename="C:\Users\yoakubera\latex-workspace\lgi2a-shared-latex-documents\kubera\similar-paper-2013\images\timeModel2.png"
         inkscape:export-xdpi="83.708908"
         inkscape:export-ydpi="83.708908" />
      <path
         sodipodi:type="star"
         style="fill:#000000;stroke:#000000;stroke-width:1.37699997;stroke-linecap:round;stroke-miterlimit:4;stroke-opacity:1;stroke-dasharray:none;stroke-dashoffset:0;display:inline"
         id="path4017"
         sodipodi:sides="3"
         sodipodi:cx="123.74369"
         sodipodi:cy="98.778175"
         sodipodi:r1="5.5558391"
         sodipodi:r2="2.7779195"
         sodipodi:arg1="0"
         sodipodi:arg2="1.0471976"
         inkscape:flatsided="true"
         inkscape:rounded="0"
         inkscape:randomized="0"
         d="m 129.29953,98.778175 -8.33376,4.811495 0,-9.622992 z"
         inkscape:transform-center-x="-1.3889598"
         transform="translate(554.76942,-22.131813)"
         inkscape:export-filename="C:\Users\yoakubera\latex-workspace\lgi2a-shared-latex-documents\kubera\similar-paper-2013\images\timeModel2.png"
         inkscape:export-xdpi="83.708908"
         inkscape:export-ydpi="83.708908" />
    </g>
    <text
       inkscape:export-ydpi="83.708908"
       inkscape:export-xdpi="83.708908"
       inkscape:export-filename="C:\Users\yoakubera\latex-workspace\lgi2a-shared-latex-documents\kubera\similar-paper-2013\images\timeModel2.png"
       sodipodi:linespacing="125%"
       id="text4019"
       y="268.96909"
       x="565.86145"
       style="font-size:14px;font-style:normal;font-weight:normal;line-height:125%;letter-spacing:0px;word-spacing:0px;fill:#000000;fill-opacity:1;stroke:none;display:inline;font-family:Sans"
       xml:space="preserve"><tspan
         y="268.96909"
         x="565.86145"
         id="tspan4021"
         sodipodi:role="line">Real time</tspan></text>
    <text
       xml:space="preserve"
       style="font-size:14px;font-style:normal;font-weight:normal;line-height:125%;letter-spacing:0px;word-spacing:0px;fill:#008000;fill-opacity:1;stroke:none;display:inline;font-family:Sans"
       x="456.54953"
       y="412.94583"
       id="text4023"
       sodipodi:linespacing="125%"
       inkscape:export-filename="C:\Users\yoakubera\latex-workspace\lgi2a-shared-latex-documents\kubera\similar-paper-2013\images\timeModel2.png"
       inkscape:export-xdpi="83.708908"
       inkscape:export-ydpi="83.708908"><tspan
         sodipodi:role="line"
         id="tspan4025"
         x="456.54953"
         y="412.94583">Time model of a simulation</tspan></text>
    <path
       style="font-size:medium;font-style:normal;font-variant:normal;font-weight:normal;font-stretch:normal;text-indent:0;text-align:start;text-decoration:none;line-height:normal;letter-spacing:normal;word-spacing:normal;text-transform:none;direction:ltr;block-progression:tb;writing-mode:lr-tb;text-anchor:start;baseline-shift:baseline;color:#000000;fill:#008000;fill-opacity:1;stroke:none;stroke-width:1px;marker:none;visibility:visible;display:inline;overflow:visible;enable-background:accumulate;font-family:Sans;-inkscape-font-specification:Sans"
       d="m 53.234377,375.11382 -0.6875,0.71875 2.90625,2.875 -58.562503,0 0,1 58.562503,0 -2.90625,2.90625 0.6875,0.6875 3.40625,-3.40625 3.40625,3.40625 0.6875,-0.6875 -3.40625,-3.40625 3.40625,-3.375 -0.6875,-0.71875 -3.40625,3.40625 -3.40625,-3.40625 z"
       id="path4027"
       inkscape:export-filename="C:\Users\yoakubera\latex-workspace\lgi2a-shared-latex-documents\kubera\similar-paper-2013\images\timeModel2.png"
       inkscape:export-xdpi="83.708908"
       inkscape:export-ydpi="83.708908"
       inkscape:connector-curvature="0" />
    <path
       style="font-size:medium;font-style:normal;font-variant:normal;font-weight:normal;font-stretch:normal;text-indent:0;text-align:start;text-decoration:none;line-height:normal;letter-spacing:normal;word-spacing:normal;text-transform:none;direction:ltr;block-progression:tb;writing-mode:lr-tb;text-anchor:start;baseline-shift:baseline;color:#000000;fill:#008000;fill-opacity:1;stroke:none;stroke-width:1px;marker:none;visibility:visible;display:inline;overflow:visible;enable-background:accumulate;font-family:Sans;-inkscape-font-specification:Sans"
       d="m 533.23438,375.11382 -0.6875,0.71875 3.40625,3.375 -3.40625,3.40625 0.6875,0.6875 3.40625,-3.40625 3.40625,3.40625 0.6875,-0.6875 -2.90625,-2.90625 101.03125,0 0,-1 -101.03125,0 2.90625,-2.875 -0.6875,-0.71875 -3.40625,3.40625 -3.40625,-3.40625 z"
       id="path4029"
       inkscape:export-filename="C:\Users\yoakubera\latex-workspace\lgi2a-shared-latex-documents\kubera\similar-paper-2013\images\timeModel2.png"
       inkscape:export-xdpi="83.708908"
       inkscape:export-ydpi="83.708908"
       inkscape:connector-curvature="0" />
    <path
       sodipodi:type="star"
       style="fill:#008000;fill-opacity:1;stroke:#008000;stroke-width:1.37699997;stroke-linecap:round;stroke-miterlimit:4;stroke-opacity:1;stroke-dasharray:none;stroke-dashoffset:0;display:inline"
       id="path4031"
       sodipodi:sides="3"
       sodipodi:cx="123.74369"
       sodipodi:cy="98.778175"
       sodipodi:r1="5.5558391"
       sodipodi:r2="2.7779195"
       sodipodi:arg1="0"
       sodipodi:arg2="1.0471976"
       inkscape:flatsided="true"
       inkscape:rounded="0"
       inkscape:randomized="0"
       d="m 129.29953,98.778175 -8.33376,4.811495 0,-9.622992 z"
       inkscape:transform-center-x="-1.3889598"
       transform="translate(508.85953,280.43909)"
       inkscape:export-filename="C:\Users\yoakubera\latex-workspace\lgi2a-shared-latex-documents\kubera\similar-paper-2013\images\timeModel2.png"
       inkscape:export-xdpi="83.708908"
       inkscape:export-ydpi="83.708908" />
    <path
       transform="translate(-41.656243,-56.484459)"
       d="m 522.25,175.53125 a 0.72894185,0.72894185 0 0 0 -0.375,0.21875 l -0.6875,0.71875 a 0.72894185,0.72894185 0 0 0 0.0312,1.03125 l 2.875,2.875 -2.875,2.875 a 0.72894185,0.72894185 0 0 0 0,1 l 0.6875,0.6875 a 0.72894185,0.72894185 0 0 0 1,0 l 2.90625,-2.90625 2.90625,2.90625 a 0.72894185,0.72894185 0 0 0 1,0 l 0.6875,-0.6875 a 0.72894185,0.72894185 0 0 0 0,-1 l -2.875,-2.875 2.875,-2.875 a 0.72894185,0.72894185 0 0 0 0.0312,-1.03125 L 529.75,175.75 a 0.72894185,0.72894185 0 0 0 -1.03125,0 l -2.90625,2.90625 -2.90625,-2.90625 A 0.72894185,0.72894185 0 0 0 522.25,175.53125 z"
       id="path4033"
       style="font-size:medium;font-style:normal;font-variant:normal;font-weight:normal;font-stretch:normal;text-indent:0;text-align:start;text-decoration:none;line-height:normal;letter-spacing:normal;word-spacing:normal;text-transform:none;direction:ltr;block-progression:tb;writing-mode:lr-tb;text-anchor:start;baseline-shift:baseline;color:#000000;fill:#008000;fill-opacity:1;stroke:none;stroke-width:1px;marker:none;visibility:visible;display:inline;overflow:visible;enable-background:accumulate;font-family:Sans;-inkscape-font-specification:Sans"
       xlink:href="#path3138"
       inkscape:original="M 522.40625 176.25 L 521.71875 176.96875 L 525.125 180.34375 L 521.71875 183.75 L 522.40625 184.4375 L 525.8125 181.03125 L 529.21875 184.4375 L 529.90625 183.75 L 526.5 180.34375 L 529.90625 176.96875 L 529.21875 176.25 L 525.8125 179.65625 L 522.40625 176.25 z "
       inkscape:radius="0.72886896"
       sodipodi:type="inkscape:offset"
       inkscape:href="#path3138" />
    <path
       inkscape:connector-curvature="0"
       id="path4035"
       d="m 89.246567,342.71746 c -2.47158,0.0265 -4.92649,0.35565 -7.25,0.9375 -5.60399,1.36418 -10.77845,4.00355 -15.25,7.46875 -5.27195,4.08217 -9.56836,9.29299 -12.6875,15.09375 l 6.53125,3.5 c 2.67198,-4.94115 6.29905,-9.3442 10.6875,-12.71875 3.73703,-2.87087 7.99204,-5.05888 12.46875,-6.125 3.73835,-0.85814 7.56173,-1.09813 10.90625,-0.0937 2.59726,0.8037 5.03411,2.30012 6.156253,4.34375 l 0.0937,0.1875 3.90625,6.75 -5.375003,-0.1875 14.906253,9.8125 0.46875,-0.25 -1.03125,-17.8125 -2.5625,4.71875 -3.96875,-6.90625 -0.0312,0.0312 c -2.45686,-4.01562 -6.35646,-6.68501 -10.531253,-7.8125 -2.47512,-0.68084 -4.96592,-0.96399 -7.4375,-0.9375 z"
       style="opacity:0.3;fill:#008000;fill-opacity:1;stroke:none;display:inline" />
    <path
       id="path4037"
       d="m 153.00266,342.71744 c -2.47158,0.0265 -4.92649,0.35565 -7.25,0.9375 -5.60399,1.36418 -10.77845,4.00355 -15.25,7.46875 -5.27195,4.08217 -9.56836,9.29299 -12.6875,15.09375 l 6.53125,3.5 c 2.67198,-4.94115 6.29905,-9.3442 10.6875,-12.71875 3.73703,-2.87087 7.99204,-5.05888 12.46875,-6.125 3.73835,-0.85814 7.56173,-1.09813 10.90625,-0.0937 2.59726,0.8037 5.03411,2.30012 6.15625,4.34375 l 0.0937,0.1875 3.90625,6.75 -5.375,-0.1875 14.90625,9.8125 0.46875,-0.25 -1.03125,-17.8125 -2.5625,4.71875 -3.96875,-6.90625 -0.0312,0.0312 c -2.45686,-4.01562 -6.35646,-6.68501 -10.53125,-7.8125 -2.47512,-0.68084 -4.96592,-0.96399 -7.4375,-0.9375 z"
       style="opacity:0.3;fill:#008000;fill-opacity:1;stroke:none;display:inline"
       inkscape:connector-curvature="0" />
    <path
       id="path4039"
       d="m 216.1169,342.71744 c -2.47159,0.0265 -4.92649,0.35564 -7.25,0.9375 -5.60399,1.36418 -10.77845,4.00355 -15.25,7.46875 -5.27195,4.08217 -9.56836,9.29299 -12.6875,15.09375 l 6.53125,3.5 c 2.67198,-4.94115 6.29905,-9.3442 10.6875,-12.71875 3.73703,-2.87087 7.99204,-5.05888 12.46875,-6.125 3.73835,-0.85814 7.56173,-1.09813 10.90625,-0.0937 2.59726,0.8037 5.03411,2.30012 6.15625,4.34375 l 0.0937,0.1875 3.90625,6.75 -5.375,-0.1875 14.90625,9.8125 0.46875,-0.25 -1.03125,-17.8125 -2.5625,4.71875 -3.96875,-6.90625 -0.0312,0.0312 c -2.45686,-4.01562 -6.35646,-6.68502 -10.53125,-7.8125 -2.47512,-0.68085 -4.96592,-0.964 -7.4375,-0.9375 z"
       style="opacity:0.3;fill:#008000;fill-opacity:1;stroke:none;display:inline"
       inkscape:connector-curvature="0" />
    <path
       id="path4041"
       d="m 447.9672,342.71744 c -2.47159,0.0265 -4.92649,0.35564 -7.25,0.9375 -5.60399,1.36418 -10.77845,4.00355 -15.25,7.46875 -5.27195,4.08217 -9.56836,9.29299 -12.6875,15.09375 l 6.53125,3.5 c 2.67198,-4.94115 6.29905,-9.3442 10.6875,-12.71875 3.73703,-2.87087 7.99204,-5.05888 12.46875,-6.125 3.73835,-0.85814 7.56173,-1.09813 10.90625,-0.0937 2.59726,0.8037 5.03411,2.30012 6.15625,4.34375 l 0.0937,0.1875 3.90625,6.75 -5.375,-0.1875 14.90625,9.8125 0.46875,-0.25 -1.03125,-17.8125 -2.5625,4.71875 -3.96875,-6.90625 -0.0312,0.0312 c -2.45686,-4.01562 -6.35646,-6.68502 -10.53125,-7.8125 -2.47512,-0.68085 -4.96592,-0.964 -7.4375,-0.9375 z"
       style="opacity:0.3;fill:#008000;fill-opacity:1;stroke:none;display:inline"
       inkscape:connector-curvature="0" />
    <path
       id="path4043"
       d="m 511.60682,342.71744 c -2.47159,0.0265 -4.92649,0.35564 -7.25,0.9375 -5.60399,1.36418 -10.77845,4.00355 -15.25,7.46875 -5.27195,4.08217 -9.56836,9.29299 -12.6875,15.09375 l 6.53125,3.5 c 2.67198,-4.94115 6.29905,-9.3442 10.6875,-12.71875 3.73703,-2.87087 7.99204,-5.05888 12.46875,-6.125 3.73835,-0.85814 7.56173,-1.09813 10.90625,-0.0937 2.59726,0.8037 5.03411,2.30012 6.15625,4.34375 l 0.0937,0.1875 3.90625,6.75 -5.375,-0.1875 14.90625,9.8125 0.46875,-0.25 -1.03125,-17.8125 -2.5625,4.71875 -3.96875,-6.90625 -0.0312,0.0312 c -2.45686,-4.01562 -6.35646,-6.68502 -10.53125,-7.8125 -2.47512,-0.68085 -4.96592,-0.964 -7.4375,-0.9375 z"
       style="opacity:0.3;fill:#008000;fill-opacity:1;stroke:none;display:inline"
       inkscape:connector-curvature="0" />
    <path
       id="path4045"
       d="m 341.71532,338.62371 c -1.74544,-0.0157 -3.50867,0.007 -5.25,0.0312 -16.39554,0.20858 -32.85718,2.24633 -48.75,6.65625 -15.71629,4.33509 -31.07309,11.18727 -43.875,21.78125 l 4.75,5.71875 c 11.70016,-9.77244 26.14319,-16.17963 41.125,-20.375 15.17892,-4.22437 30.99296,-6.16091 46.84375,-6.375 13.50873,-0.16583 27.02064,0.80555 40,3.84375 4.6668,1.10157 9.17424,2.37253 13.28125,4.3125 1.51565,0.7196 2.92229,1.48481 4.125,2.375 0.80531,0.6229 1.4797,1.20382 1.90625,1.78125 l 3.6875,6.34375 -5.34375,-0.15625 14.875,9.8125 0.46875,-0.28125 -1.03125,-17.8125 -2.53125,4.71875 -3.78125,-6.53125 -0.21875,-0.375 -0.0625,0.0312 c -1.09841,-1.47894 -2.35263,-2.62923 -3.59375,-3.5 -1.74592,-1.2645 -3.55253,-2.2636 -5.34375,-3.09375 -4.81731,-2.24238 -9.81868,-3.70666 -14.75,-4.84375 -12.02691,-2.7956 -24.31318,-3.95279 -36.53125,-4.0625 z"
       style="opacity:0.3;fill:#008000;fill-opacity:1;stroke:none;display:inline"
       inkscape:connector-curvature="0" />
    <text
       sodipodi:linespacing="125%"
       id="text4047"
       y="289.38586"
       x="158.58318"
       style="font-size:18px;font-style:normal;font-weight:normal;line-height:125%;letter-spacing:0px;word-spacing:0px;fill:#000000;fill-opacity:1;stroke:none;display:inline;font-family:Sans"
       xml:space="preserve"><tspan
         style="fill:#000000;fill-opacity:1"
         y="289.38586"
         x="158.58318"
         id="tspan4049"
         sodipodi:role="line">Definition domain of the simulation</tspan></text>
    <path
       inkscape:connector-curvature="0"
       id="path4051"
       d="m 536.44457,406.72987 0,-149.26012"
       style="fill:none;stroke:#868686;stroke-width:0.99699998;stroke-linecap:butt;stroke-linejoin:miter;stroke-miterlimit:4;stroke-opacity:1;stroke-dasharray:0.997, 2.991;stroke-dashoffset:0;display:inline" />
    <path
       inkscape:connector-curvature="0"
       id="path4053"
       d="m 56.170987,406.72987 0,-149.26012"
       style="fill:none;stroke:#868686;stroke-width:0.99699998;stroke-linecap:butt;stroke-linejoin:miter;stroke-miterlimit:4;stroke-opacity:1;stroke-dasharray:0.997, 2.991;stroke-dashoffset:0;display:inline" />
    <path
       inkscape:connector-curvature="0"
       id="path4055"
       d="m 519.74659,276.77874 2.8125,4.59375 -83.96875,-0.0312 -0.0312,7.4375 84,0 -2.84375,4.5625 13.9375,-7 0,7 2.03125,0 0,-8.53125 0,-8.03125 -2.03125,0 0,7 -13.90625,-7 z"
       style="fill:#000000;fill-opacity:1;stroke:none;display:inline" />
    <path
       inkscape:connector-curvature="0"
       id="path4057"
       d="m 56.684086,276.77874 0,16.5625 2,0 0,-7.125 14.218749,7.125 -2.84375,-4.5625 82.000005,0 -0.0312,-7.4375 -81.968755,0.0312 2.8125,-4.59375 -14.1875,7.15625 0,-7.15625 -2,0 z"
       style="fill:#000000;fill-opacity:1;stroke:none;display:inline" />
    <path
       sodipodi:nodetypes="cssccccsccccccscccccssscssssscssssscsssssccssssssccccccccsccccccsccccsssccssssscssssscssssccssc"
       inkscape:connector-curvature="0"
       id="path4059"
       d="m 70.865217,372.71624 c -0.82125,0.0476 -1.31295,0.56236 -1.86269,1.09375 -0.54974,0.53139 -1.02556,1.41306 -1.40625,2.1875 -0.6091,1.23911 -0.92905,2.25045 -1.0625,2.6875 l -0.16912,0 c -0.21423,-2.17534 -1.7459,-3.95821 -3.78125,-4.5625 l 0,1.0625 c 1.6315,0.61336 2.8125,2.17781 2.8125,4.03125 0,1.85344 -1.181,3.41789 -2.8125,4.03125 l 0,1.0625 c 2.04931,-0.60829 3.58369,-2.42961 3.78125,-4.625 l 0.51287,0 0.375,0 0.125,-0.34375 c 0.23901,-0.70824 0.48859,-1.38987 0.75,-2.03125 0.12178,-0.29879 0.24434,-0.60138 0.375,-0.875 0.006,-0.0127 0.0251,-0.0187 0.0312,-0.0312 0.14466,-0.30055 0.27861,-0.58289 0.4375,-0.84375 0.0371,-0.0608 0.0873,-0.0979 0.125,-0.15625 0.005,-0.008 -0.005,-0.0239 0,-0.0312 0.53573,-0.82588 1.11161,-1.65625 1.76894,-1.65625 0.65732,0 0.62688,0.24327 1.08162,0.75 0.45474,0.50673 0.89334,1.24319 1.25,1.96875 0.71331,1.45111 1.15625,2.90625 1.15625,2.90625 0,0 0.42612,1.54486 1.1875,3.09375 0.38069,0.77444 0.85142,1.53798 1.40625,2.15625 0.55483,0.61827 1.0176,1.125 1.83169,1.125 0.81409,0 1.30742,-0.50673 1.86225,-1.125 0.55483,-0.61827 1.02556,-1.38181 1.40625,-2.15625 0.76139,-1.54889 1.1875,-3.09375 1.1875,-3.09375 0,0 0.44294,-1.45514 1.15625,-2.90625 0.35666,-0.72556 0.76401,-1.46202 1.21875,-1.96875 0.45474,-0.50673 0.70934,-0.75 1.11275,-0.75 0.40341,0 0.65745,0.24327 1.11219,0.75 0.45474,0.50673 0.89334,1.24319 1.25,1.96875 0.71331,1.45111 1.125,2.90625 1.125,2.90625 0,0 0.45737,1.54486 1.21875,3.09375 0.38069,0.77444 0.82017,1.53798 1.375,2.15625 0.55483,0.61827 1.04884,1.125 1.86293,1.125 0.81409,0 1.27617,-0.50673 1.831,-1.125 0.55483,-0.61827 1.02556,-1.38181 1.40625,-2.15625 0.65051,-1.32334 0.98937,-2.45601 1.09375,-2.8125 0,0 0.0744,-0.2195 0.0937,-0.28125 0.10965,-0.34993 0.45619,-1.42281 1.062503,-2.65625 0.35666,-0.72556 0.76401,-1.43077 1.21875,-1.9375 0.45474,-0.50673 0.70894,-0.78125 1.11235,-0.78125 0.40341,0 0.6575,0.27452 1.11224,0.78125 0.45474,0.50673 0.89334,1.21194 1.25,1.9375 0.17833,0.36278 0.32984,0.71909 0.46875,1.0625 0.13891,0.34341 0.27896,0.66101 0.375,0.9375 0.0178,0.0496 0.0135,0.10627 0.0312,0.15625 0.13643,0.4099 0.25,0.78125 0.25,0.78125 0,0 0.0738,0.21813 0.0937,0.28125 l 0.0625,0 c 0.45833,0 0.41719,0 0.87553,0 0.2776,2.09564 1.76967,3.81844 3.75,4.40625 l 0,-1.0625 c -1.6315,-0.61336 -2.8125,-2.17781 -2.8125,-4.03125 0,-1.85344 1.181,-3.41789 2.8125,-4.03125 l 0,-1.0625 c -2.10131,0.62387 -3.6495,2.51062 -3.78125,4.78125 l -0.15675,0 c -0.0611,-0.17751 -0.12588,-0.35502 -0.1875,-0.53125 -0.0299,-0.0826 -0.0913,-0.19132 -0.125,-0.28125 -0.36078,-1.01388 -0.71902,-1.99206 -1.21875,-2.8125 -0.13035,-0.214 -0.28677,-0.40938 -0.4375,-0.59375 -0.0319,-0.0391 -0.061,-0.0873 -0.0937,-0.125 -0.0171,-0.0237 -0.0452,-0.0391 -0.0625,-0.0625 -0.1096,-0.14795 -0.22397,-0.30403 -0.34375,-0.4375 -0.55483,-0.61827 -1.04815,-1.09375 -1.86224,-1.09375 -0.81409,0 -1.30752,0.47548 -1.86235,1.09375 -0.55483,0.61827 -0.994313,1.41306 -1.375003,2.1875 -0.76138,1.54889 -1.21875,3.09375 -1.21875,3.09375 l 0.0312,0 c -0.10965,0.34993 -0.45619,1.42281 -1.0625,2.65625 -0.35666,0.72556 -0.76401,1.43077 -1.21875,1.9375 -0.45474,0.50673 -0.70884,0.78125 -1.11225,0.78125 -0.40341,0 -0.65819,-0.27452 -1.11293,-0.78125 -0.45474,-0.50673 -0.89334,-1.21194 -1.25,-1.9375 -0.71331,-1.45111 -1.125,-2.9375 -1.125,-2.9375 0,0 -0.45737,-1.51361 -1.21875,-3.0625 -0.38069,-0.77444 -0.82017,-1.56923 -1.375,-2.1875 -0.55483,-0.61827 -1.0481,-1.09375 -1.86219,-1.09375 -0.81409,0 -1.30792,0.47548 -1.86275,1.09375 -0.55483,0.61827 -0.99431,1.41306 -1.375,2.1875 -0.76138,1.54889 -1.21875,3.0625 -1.21875,3.0625 0,0 -0.41168,1.48639 -1.125,2.9375 -0.35666,0.72556 -0.79526,1.43077 -1.25,1.9375 -0.45474,0.50673 -0.70884,0.78125 -1.11225,0.78125 -0.40341,0 -0.6582,-0.27452 -1.11294,-0.78125 -0.45474,-0.50673 -0.86209,-1.21194 -1.21875,-1.9375 -0.71294,-1.45141 -1.15613,-2.9376 -1.15613,-2.9376 0,0 -0.42612,-1.51361 -1.1875,-3.0625 -0.38069,-0.77444 -0.85142,-1.56923 -1.40625,-2.1875 -0.55483,-0.61827 -1.01753,-1.09375 -1.83162,-1.09375 z"
       style="font-size:medium;font-style:normal;font-variant:normal;font-weight:normal;font-stretch:normal;text-indent:0;text-align:start;text-decoration:none;line-height:normal;letter-spacing:normal;word-spacing:normal;text-transform:none;direction:ltr;block-progression:tb;writing-mode:lr-tb;text-anchor:start;baseline-shift:baseline;color:#000000;fill:#ff8080;fill-opacity:1;stroke:none;stroke-width:1px;marker:none;visibility:visible;display:inline;overflow:visible;enable-background:accumulate;font-family:Sans;-inkscape-font-specification:Sans" />
    <path
       id="path4061"
       d="m 132.18761,372.71619 c -0.82125,0.0476 -1.51276,0.56236 -2.0625,1.09375 -0.54974,0.53139 -1.02556,1.41306 -1.40625,2.1875 -0.6091,1.23911 -0.92905,2.25045 -1.0625,2.6875 l -0.96875,0 c -0.21423,-2.17534 -1.7459,-3.95821 -3.78125,-4.5625 l 0,1.0625 c 1.6315,0.61336 2.8125,2.17781 2.8125,4.03125 0,1.85344 -1.181,3.41789 -2.8125,4.03125 l 0,1.0625 c 2.04931,-0.60829 3.58369,-2.42961 3.78125,-4.625 l 1.3125,0 0.375,0 0.125,-0.34375 c 0.23901,-0.70824 0.48859,-1.38987 0.75,-2.03125 0.12178,-0.29879 0.24434,-0.60138 0.375,-0.875 0.006,-0.0127 0.025,-0.0187 0.0312,-0.0312 0.14466,-0.30055 0.27861,-0.58289 0.4375,-0.84375 0.0371,-0.0608 0.0873,-0.0979 0.125,-0.15625 0.005,-0.008 -0.005,-0.0239 0,-0.0312 0.53573,-0.82588 1.31142,-1.65625 1.96875,-1.65625 0.65732,0 0.82651,0.24327 1.28125,0.75 0.45474,0.50673 0.89334,1.24319 1.25,1.96875 0.71331,1.45111 1.15625,2.90625 1.15625,2.90625 0,0 0.42612,1.54486 1.1875,3.09375 0.38069,0.77444 0.85142,1.53798 1.40625,2.15625 0.55483,0.61827 1.21716,1.125 2.03125,1.125 0.81409,0 1.50767,-0.50673 2.0625,-1.125 0.55483,-0.61827 1.02556,-1.38181 1.40625,-2.15625 0.76139,-1.54889 1.1875,-3.09375 1.1875,-3.09375 0,0 0.44294,-1.45514 1.15625,-2.90625 0.35666,-0.72556 0.76401,-1.46202 1.21875,-1.96875 0.45474,-0.50673 0.90909,-0.75 1.3125,-0.75 0.40341,0 0.85776,0.24327 1.3125,0.75 0.45474,0.50673 0.89334,1.24319 1.25,1.96875 0.71331,1.45111 1.125,2.90625 1.125,2.90625 0,0 0.45737,1.54486 1.21875,3.09375 0.38069,0.77444 0.82017,1.53798 1.375,2.15625 0.55483,0.61827 1.24841,1.125 2.0625,1.125 0.81409,0 1.47642,-0.50673 2.03125,-1.125 0.55483,-0.61827 1.02556,-1.38181 1.40625,-2.15625 0.65051,-1.32334 0.98937,-2.45601 1.09375,-2.8125 0,0 0.0744,-0.2195 0.0937,-0.28125 0.10965,-0.34993 0.45619,-1.42281 1.0625,-2.65625 0.35666,-0.72556 0.76401,-1.43077 1.21875,-1.9375 0.45474,-0.50673 0.90909,-0.78125 1.3125,-0.78125 0.40341,0 0.85776,0.27452 1.3125,0.78125 0.45474,0.50673 0.89334,1.21194 1.25,1.9375 0.17833,0.36278 0.32984,0.71909 0.46875,1.0625 0.13891,0.34341 0.27896,0.66101 0.375,0.9375 0.0178,0.0496 0.0135,0.10627 0.0312,0.15625 0.13643,0.4099 0.25,0.78125 0.25,0.78125 0,0 0.0738,0.21813 0.0937,0.28125 l 0.0625,0 1,0 0.375,0 c 0.2776,2.09564 1.76967,3.81844 3.75,4.40625 l 0,-1.0625 c -1.6315,-0.61336 -2.8125,-2.17781 -2.8125,-4.03125 0,-1.85344 1.181,-3.41789 2.8125,-4.03125 l 0,-1.0625 c -2.10131,0.62387 -3.6495,2.51062 -3.78125,4.78125 l -0.65625,0 c -0.0611,-0.17751 -0.12588,-0.35502 -0.1875,-0.53125 -0.0299,-0.0826 -0.0913,-0.19132 -0.125,-0.28125 -0.36078,-1.01388 -0.71902,-1.99206 -1.21875,-2.8125 -0.13035,-0.214 -0.28677,-0.40938 -0.4375,-0.59375 -0.0319,-0.0391 -0.061,-0.0873 -0.0937,-0.125 -0.0171,-0.0237 -0.0452,-0.0391 -0.0625,-0.0625 -0.1096,-0.14795 -0.22397,-0.30403 -0.34375,-0.4375 -0.55483,-0.61827 -1.24841,-1.09375 -2.0625,-1.09375 -0.81409,0 -1.50767,0.47548 -2.0625,1.09375 -0.55483,0.61827 -0.99431,1.41306 -1.375,2.1875 -0.76138,1.54889 -1.21875,3.09375 -1.21875,3.09375 l 0.0312,0 c -0.10965,0.34993 -0.45619,1.42281 -1.0625,2.65625 -0.35666,0.72556 -0.76401,1.43077 -1.21875,1.9375 -0.45474,0.50673 -0.90909,0.78125 -1.3125,0.78125 -0.40341,0 -0.85776,-0.27452 -1.3125,-0.78125 -0.45474,-0.50673 -0.89334,-1.21194 -1.25,-1.9375 -0.71331,-1.45111 -1.125,-2.9375 -1.125,-2.9375 0,0 -0.45737,-1.51361 -1.21875,-3.0625 -0.38069,-0.77444 -0.82017,-1.56923 -1.375,-2.1875 -0.55483,-0.61827 -1.24841,-1.09375 -2.0625,-1.09375 -0.81409,0 -1.50767,0.47548 -2.0625,1.09375 -0.55483,0.61827 -0.99431,1.41306 -1.375,2.1875 -0.76138,1.54889 -1.21875,3.0625 -1.21875,3.0625 0,0 -0.41168,1.48639 -1.125,2.9375 -0.35666,0.72556 -0.79526,1.43077 -1.25,1.9375 -0.45474,0.50673 -0.90909,0.78125 -1.3125,0.78125 -0.40341,0 -0.85776,-0.27452 -1.3125,-0.78125 -0.45474,-0.50673 -0.86209,-1.21194 -1.21875,-1.9375 -0.71291,-1.45141 -1.1561,-2.9376 -1.1561,-2.9376 0,0 -0.42612,-1.51361 -1.1875,-3.0625 -0.38069,-0.77444 -0.85142,-1.56923 -1.40625,-2.1875 -0.55483,-0.61827 -1.21716,-1.09375 -2.03125,-1.09375 z"
       style="font-size:medium;font-style:normal;font-variant:normal;font-weight:normal;font-stretch:normal;text-indent:0;text-align:start;text-decoration:none;line-height:normal;letter-spacing:normal;word-spacing:normal;text-transform:none;direction:ltr;block-progression:tb;writing-mode:lr-tb;text-anchor:start;baseline-shift:baseline;color:#000000;fill:#ff8080;fill-opacity:1;stroke:none;stroke-width:1px;marker:none;visibility:visible;display:inline;overflow:visible;enable-background:accumulate;font-family:Sans;-inkscape-font-specification:Sans"
       inkscape:connector-curvature="0" />
    <path
       sodipodi:nodetypes="cssccccsccccccscccccssscssssscssssscscccsssscccssssscssssscssssscssssscssssscsssssccssssscsssssccssssscssssscssssscssssscsssssscccccccccsccccccsccccssscssssscssssscssssscsssssccssssscsssssccssssscssssscssssscsssssccssssscssssscccsccssccscssscccscssssccsscc"
       inkscape:connector-curvature="0"
       id="path4063"
       d="m 263.05308,372.71624 c -0.82125,0.0476 -1.51276,0.56236 -2.0625,1.09375 -0.54974,0.53139 -1.02556,1.41306 -1.40625,2.1875 -0.6091,1.23911 -0.92905,2.25045 -1.0625,2.6875 l -4.96875,0 c -0.21423,-2.17534 -1.74589,-3.95821 -3.78125,-4.5625 l 0,1.0625 c 1.6315,0.61336 2.8125,2.17781 2.8125,4.03125 0,1.85344 -1.181,3.41789 -2.8125,4.03125 l 0,1.0625 c 2.04931,-0.60829 3.58369,-2.42961 3.78125,-4.625 l 5.3125,0 0.375,0 0.125,-0.34375 c 0.23901,-0.70824 0.48859,-1.38987 0.75,-2.03125 0.12178,-0.29879 0.24434,-0.60138 0.375,-0.875 0.006,-0.0127 0.0251,-0.0188 0.0312,-0.0312 0.14466,-0.30055 0.27861,-0.58289 0.4375,-0.84375 0.0371,-0.0608 0.0873,-0.0979 0.125,-0.15625 0.005,-0.008 -0.005,-0.024 0,-0.0312 0.53573,-0.82588 1.31142,-1.65625 1.96875,-1.65625 0.65732,0 0.82651,0.24327 1.28125,0.75 0.45474,0.50673 0.89334,1.24319 1.25,1.96875 0.71331,1.45111 1.15625,2.90625 1.15625,2.90625 0,0 0.42612,1.54486 1.1875,3.09375 0.38069,0.77444 0.85142,1.53798 1.40625,2.15625 0.55483,0.61827 1.21716,1.125 2.03125,1.125 0.81409,0 1.50767,-0.50673 2.0625,-1.125 0.55483,-0.61827 1.02556,-1.38181 1.40625,-2.15625 0.76139,-1.54889 1.1875,-3.09375 1.1875,-3.09375 0,0 0.44294,-1.45514 1.15625,-2.90625 0.35666,-0.72556 0.76401,-1.46202 1.21875,-1.96875 0.45474,-0.50673 0.90909,-0.75 1.3125,-0.75 0.40341,0 0.85776,0.24327 1.3125,0.75 0.45474,0.50673 0.89334,1.24319 1.25,1.96875 0.71331,1.45111 1.125,2.90625 1.125,2.90625 0,0 0.45737,1.54486 1.21875,3.09375 0.38069,0.77444 0.82017,1.53798 1.375,2.15625 0.1446,0.16112 0.30473,0.30193 0.46875,0.4375 0.14366,0.13246 0.30368,0.2418 0.46875,0.34375 0.34451,0.20397 0.71795,0.34375 1.125,0.34375 0.4151,0 0.8142,-0.13265 1.15625,-0.34375 0.32878,-0.20291 0.60307,-0.47823 0.875,-0.78125 0.55483,-0.61827 1.02556,-1.38181 1.40625,-2.15625 0.65051,-1.32334 0.98937,-2.45601 1.09375,-2.8125 0,0 0.0745,-0.2195 0.0937,-0.28125 l 0.0312,0 c 0,0 0.41166,-1.45514 1.125,-2.90625 0.35667,-0.72556 0.79525,-1.46202 1.25,-1.96875 0.45475,-0.50673 0.90909,-0.75 1.3125,-0.75 0.40341,0 0.85774,0.24326 1.3125,0.75 0.45476,0.50674 0.89331,1.24318 1.25,1.96875 0.71337,1.45114 1.125,2.90625 1.125,2.90625 0,0 0.42612,1.54486 1.1875,3.09375 0.38069,0.77444 0.85142,1.53798 1.40625,2.15625 0.55483,0.61827 1.24841,1.125 2.0625,1.125 0.81409,0 1.47642,-0.50673 2.03125,-1.125 0.55483,-0.61827 1.02556,-1.38181 1.40625,-2.15625 0.76138,-1.54889 1.1875,-3.09375 1.1875,-3.09375 0,0 0.41166,-1.45514 1.125,-2.90625 0.35667,-0.72556 0.79525,-1.46202 1.25,-1.96875 0.45475,-0.50673 0.90909,-0.75 1.3125,-0.75 0.40341,0 0.85774,0.24326 1.3125,0.75 0.45476,0.50674 0.86206,1.24318 1.21875,1.96875 0.71337,1.45114 1.15625,2.90625 1.15625,2.90625 0,0 0.42612,1.54486 1.1875,3.09375 0.38069,0.77444 0.85142,1.53798 1.40625,2.15625 0.55483,0.61827 1.21716,1.125 2.03125,1.125 0.81409,0 1.50767,-0.50673 2.0625,-1.125 0.55483,-0.61827 1.02556,-1.38181 1.40625,-2.15625 0.76138,-1.54889 1.1875,-3.09375 1.1875,-3.09375 0,0 0.41166,-1.45514 1.125,-2.90625 0.35667,-0.72556 0.79525,-1.46202 1.25,-1.96875 0.45475,-0.50673 0.90909,-0.75 1.3125,-0.75 0.40341,0 0.82649,0.24326 1.28125,0.75 0.45476,0.50674 0.89331,1.24318 1.25,1.96875 0.71337,1.45114 1.15625,2.90625 1.15625,2.90625 0,0 0.42612,1.54486 1.1875,3.09375 0.38069,0.77444 0.85142,1.53798 1.40625,2.15625 0.55483,0.61827 1.21716,1.125 2.03125,1.125 0.81409,0 1.50767,-0.50673 2.0625,-1.125 0.55483,-0.61827 1.02556,-1.38181 1.40625,-2.15625 0.76138,-1.54889 1.1875,-3.09375 1.1875,-3.09375 l 0.0312,0 c 0,0 0.44291,-1.45514 1.15625,-2.90625 0.35667,-0.72556 0.764,-1.46202 1.21875,-1.96875 0.45475,-0.50673 0.90909,-0.75 1.3125,-0.75 0.40341,0 0.85774,0.24326 1.3125,0.75 0.45476,0.50674 0.89331,1.24318 1.25,1.96875 0.71337,1.45114 1.125,2.90625 1.125,2.90625 0,0 0.45737,1.54486 1.21875,3.09375 0.38069,0.77444 0.82017,1.53798 1.375,2.15625 0.55483,0.61827 1.24841,1.125 2.0625,1.125 0.81409,0 1.50767,-0.50673 2.0625,-1.125 0.55483,-0.61827 0.99431,-1.38181 1.375,-2.15625 0.76138,-1.54889 1.21875,-3.09375 1.21875,-3.09375 l -0.0312,0 c 0,0 0.41166,-1.45514 1.125,-2.90625 0.35667,-0.72556 0.79525,-1.46202 1.25,-1.96875 0.45475,-0.50673 0.90909,-0.75 1.3125,-0.75 0.40341,0 0.85774,0.24326 1.3125,0.75 0.45476,0.50674 0.89331,1.24318 1.25,1.96875 0.71337,1.45114 1.125,2.90625 1.125,2.90625 0,0 0.42612,1.54486 1.1875,3.09375 0.38069,0.77444 0.85142,1.53798 1.40625,2.15625 0.55483,0.61827 1.24841,1.125 2.0625,1.125 0.81409,0 1.47642,-0.50673 2.03125,-1.125 0.55483,-0.61827 1.02556,-1.38181 1.40625,-2.15625 0.76138,-1.54889 1.1875,-3.09375 1.1875,-3.09375 0,0 0.44291,-1.45514 1.15625,-2.90625 0.35667,-0.72556 0.79525,-1.46202 1.25,-1.96875 0.45475,-0.50673 0.87784,-0.75 1.28125,-0.75 0.40341,0 0.85774,0.24326 1.3125,0.75 0.45476,0.50674 0.89331,1.24318 1.25,1.96875 0.71337,1.45114 1.125,2.90625 1.125,2.90625 0,0 0.45737,1.54486 1.21875,3.09375 0.38069,0.77444 0.82017,1.53798 1.375,2.15625 0.55483,0.61827 1.24841,1.125 2.0625,1.125 0.81409,0 1.50767,-0.50673 2.0625,-1.125 0.55483,-0.61827 0.99431,-1.38181 1.375,-2.15625 0.76138,-1.54889 1.21875,-3.09375 1.21875,-3.09375 0.10965,-0.34993 0.51869,-1.67281 1.125,-2.90625 0.35666,-0.72556 0.76401,-1.43077 1.21875,-1.9375 0.45474,-0.50673 0.90909,-0.78125 1.3125,-0.78125 0.40341,0 0.85776,0.27452 1.3125,0.78125 0.45474,0.50673 0.89334,1.21194 1.25,1.9375 0.17833,0.36278 0.32984,0.71909 0.46875,1.0625 0.13891,0.34341 0.27896,0.66101 0.375,0.9375 0.0178,0.0496 0.0136,0.10627 0.0312,0.15625 0.13643,0.4099 0.25,0.78125 0.25,0.78125 0,0 0.0738,0.21813 0.0937,0.28125 l 0.0625,0 1,0 4.28125,0 c 0.18624,2.20874 1.69145,4.04522 3.75,4.65625 l 0,-1.0625 c -1.6315,-0.61336 -2.8125,-2.17781 -2.8125,-4.03125 0,-1.85344 1.181,-3.41789 2.8125,-4.03125 l 0,-1.0625 c -2.02564,0.60141 -3.52425,2.36995 -3.75,4.53125 l -4.59375,0 c -0.0611,-0.17751 -0.12588,-0.35502 -0.1875,-0.53125 -0.0299,-0.0826 -0.0913,-0.19132 -0.125,-0.28125 -0.36078,-1.01388 -0.71902,-1.99206 -1.21875,-2.8125 -0.13035,-0.214 -0.28677,-0.40938 -0.4375,-0.59375 -0.0319,-0.0391 -0.061,-0.0873 -0.0937,-0.125 -0.0171,-0.0237 -0.0452,-0.0391 -0.0625,-0.0625 -0.1096,-0.14795 -0.22397,-0.30403 -0.34375,-0.4375 -0.55483,-0.61827 -1.24841,-1.09375 -2.0625,-1.09375 -0.81409,0 -1.50767,0.47548 -2.0625,1.09375 -0.55483,0.61827 -0.99431,1.41306 -1.375,2.1875 -0.76138,1.54889 -1.1875,3.0625 -1.1875,3.0625 0,0 -0.41169,1.48639 -1.125,2.9375 -0.35666,0.72556 -0.79526,1.43077 -1.25,1.9375 -0.45474,0.50673 -0.90909,0.78125 -1.3125,0.78125 -0.40341,0 -0.85776,-0.27452 -1.3125,-0.78125 -0.45474,-0.50673 -0.86209,-1.21194 -1.21875,-1.9375 -0.71331,-1.45111 -1.15625,-2.9375 -1.15625,-2.9375 0,0 -0.42606,-1.51359 -1.1875,-3.0625 -0.38072,-0.77446 -0.8514,-1.56922 -1.40625,-2.1875 -0.55485,-0.61828 -1.24841,-1.09375 -2.0625,-1.09375 -0.81409,0 -1.47641,0.47548 -2.03125,1.09375 -0.55484,0.61827 -1.02555,1.41306 -1.40625,2.1875 -0.76141,1.54889 -1.1875,3.0625 -1.1875,3.0625 0,0 -0.44294,1.48639 -1.15625,2.9375 -0.35666,0.72556 -0.79526,1.43077 -1.25,1.9375 -0.45474,0.50673 -0.87784,0.78125 -1.28125,0.78125 -0.40341,0 -0.85776,-0.27452 -1.3125,-0.78125 -0.45474,-0.50673 -0.89334,-1.21194 -1.25,-1.9375 -0.71331,-1.45111 -1.125,-2.9375 -1.125,-2.9375 0,0 -0.45731,-1.51359 -1.21875,-3.0625 -0.38072,-0.77446 -0.82015,-1.56922 -1.375,-2.1875 -0.55485,-0.61828 -1.24841,-1.09375 -2.0625,-1.09375 -0.81409,0 -1.50766,0.47548 -2.0625,1.09375 -0.55484,0.61827 -0.9943,1.41306 -1.375,2.1875 -0.76141,1.54889 -1.21875,3.0625 -1.21875,3.0625 l 0.0312,0 c 0,0 -0.44294,1.48639 -1.15625,2.9375 -0.35666,0.72556 -0.76401,1.43077 -1.21875,1.9375 -0.45474,0.50673 -0.90909,0.78125 -1.3125,0.78125 -0.40341,0 -0.85776,-0.27452 -1.3125,-0.78125 -0.45474,-0.50673 -0.89334,-1.21194 -1.25,-1.9375 -0.71331,-1.45111 -1.125,-2.9375 -1.125,-2.9375 0,0 -0.45731,-1.51359 -1.21875,-3.0625 -0.38072,-0.77446 -0.82015,-1.56922 -1.375,-2.1875 -0.55485,-0.61828 -1.24841,-1.09375 -2.0625,-1.09375 -0.81409,0 -1.47641,0.47548 -2.03125,1.09375 -0.55484,0.61827 -1.02555,1.41306 -1.40625,2.1875 -0.76141,1.54889 -1.21875,3.0625 -1.21875,3.0625 l -0.0312,0 c 0,0 -0.41169,1.48639 -1.125,2.9375 -0.35666,0.72556 -0.79526,1.43077 -1.25,1.9375 -0.45474,0.50673 -0.90909,0.78125 -1.3125,0.78125 -0.40341,0 -0.85776,-0.27452 -1.3125,-0.78125 -0.45474,-0.50673 -0.86209,-1.21194 -1.21875,-1.9375 -0.71331,-1.45111 -1.15625,-2.9375 -1.15625,-2.9375 0,0 -0.42606,-1.51359 -1.1875,-3.0625 -0.38072,-0.77446 -0.8514,-1.56922 -1.40625,-2.1875 -0.55485,-0.61828 -1.21716,-1.09375 -2.03125,-1.09375 -0.81409,0 -1.50766,0.47548 -2.0625,1.09375 -0.55484,0.61827 -1.02555,1.41306 -1.40625,2.1875 -0.76141,1.54889 -1.1875,3.0625 -1.1875,3.0625 0,0 -0.41169,1.48639 -1.125,2.9375 -0.35666,0.72556 -0.79526,1.43077 -1.25,1.9375 -0.45474,0.50673 -0.90909,0.78125 -1.3125,0.78125 -0.40341,0 -0.82651,-0.27452 -1.28125,-0.78125 -0.45474,-0.50673 -0.89334,-1.21194 -1.25,-1.9375 -0.71331,-1.45111 -1.125,-2.9375 -1.125,-2.9375 0,0 -0.45731,-1.51359 -1.21875,-3.0625 -0.38072,-0.77446 -0.8514,-1.56922 -1.40625,-2.1875 -0.55485,-0.61828 -1.21716,-1.09375 -2.03125,-1.09375 -0.81409,0 -1.50766,0.47548 -2.0625,1.09375 -0.55484,0.61827 -0.9943,1.41306 -1.375,2.1875 -0.76141,1.54889 -1.21875,3.0625 -1.21875,3.0625 l 0.0312,0 c 0,0 -0.44294,1.48639 -1.15625,2.9375 -0.35666,0.72556 -0.79526,1.43077 -1.25,1.9375 -0.45474,0.50673 -0.87784,0.78125 -1.28125,0.78125 -0.40341,0 -0.85776,-0.27452 -1.3125,-0.78125 -0.45474,-0.50673 -0.89334,-1.21194 -1.25,-1.9375 -0.71331,-1.45111 -1.125,-2.9375 -1.125,-2.9375 0,0 -0.45731,-1.51359 -1.21875,-3.0625 -0.38072,-0.77446 -0.82015,-1.56922 -1.375,-2.1875 -0.55485,-0.61828 -1.24841,-1.09375 -2.0625,-1.09375 -0.81409,0 -1.50766,0.47548 -2.0625,1.09375 -0.55484,0.61827 -0.9943,1.41306 -1.375,2.1875 -0.76141,1.54889 -1.21875,3.0625 -1.21875,3.0625 l 0.0312,0 c 0,0 -0.11724,0.25429 -0.125,0.28125 -0.10965,0.34993 -0.45619,1.42281 -1.0625,2.65625 -0.24966,0.50789 -0.51429,1.01065 -0.8125,1.4375 -0.0717,0.0986 -0.1455,0.19122 -0.21875,0.28125 -0.0598,0.0753 -0.126,0.15022 -0.1875,0.21875 -0.45474,0.50673 -0.90909,0.78125 -1.3125,0.78125 -0.39632,0 -0.83453,-0.29146 -1.28125,-0.78125 -0.008,-0.009 -0.0233,0.009 -0.0312,0 -0.45474,-0.50673 -0.89334,-1.21194 -1.25,-1.9375 -0.71331,-1.45111 -1.125,-2.9375 -1.125,-2.9375 0,0 -0.45737,-1.51361 -1.21875,-3.0625 -0.38069,-0.77444 -0.82017,-1.56923 -1.375,-2.1875 -0.55483,-0.61827 -1.24841,-1.09375 -2.0625,-1.09375 -0.40705,0 -0.78049,0.11635 -1.125,0.3125 -0.16439,0.0976 -0.32509,0.21072 -0.46875,0.34375 -0.16402,0.1365 -0.32415,0.27638 -0.46875,0.4375 -0.55483,0.61827 -0.99431,1.41306 -1.375,2.1875 -0.76138,1.54889 -1.21875,3.0625 -1.21875,3.0625 0,0 -0.41168,1.48639 -1.125,2.9375 -0.35666,0.72556 -0.79526,1.43077 -1.25,1.9375 -0.45474,0.50673 -0.90909,0.78125 -1.3125,0.78125 -0.40341,0 -0.85776,-0.27452 -1.3125,-0.78125 -0.45474,-0.50673 -0.86209,-1.21194 -1.21875,-1.9375 -0.71306,-1.45131 -1.15625,-2.9375 -1.15625,-2.9375 0,0 -0.42612,-1.51361 -1.1875,-3.0625 -0.38069,-0.77444 -0.85142,-1.56923 -1.40625,-2.1875 -0.55483,-0.61827 -1.21716,-1.09375 -2.03125,-1.09375 z"
       style="font-size:medium;font-style:normal;font-variant:normal;font-weight:normal;font-stretch:normal;text-indent:0;text-align:start;text-decoration:none;line-height:normal;letter-spacing:normal;word-spacing:normal;text-transform:none;direction:ltr;block-progression:tb;writing-mode:lr-tb;text-anchor:start;baseline-shift:baseline;color:#000000;fill:#ff8080;fill-opacity:1;stroke:none;stroke-width:1px;marker:none;visibility:visible;display:inline;overflow:visible;enable-background:accumulate;font-family:Sans;-inkscape-font-specification:Sans" />
    <path
       inkscape:connector-curvature="0"
       id="path4065"
       d="m 472.99664,374.57553 a 0.72894185,0.72894185 0 0 0 -0.375,0.21875 l -0.6875,0.71875 a 0.72894185,0.72894185 0 0 0 0.0312,1.03125 l 2.875,2.875 -2.875,2.875 a 0.72894185,0.72894185 0 0 0 0,1 l 0.6875,0.6875 a 0.72894185,0.72894185 0 0 0 1,0 l 2.90625,-2.90625 2.90625,2.90625 a 0.72894185,0.72894185 0 0 0 1,0 l 0.6875,-0.6875 a 0.72894185,0.72894185 0 0 0 0,-1 l -2.875,-2.875 2.875,-2.875 a 0.72894185,0.72894185 0 0 0 0.0312,-1.03125 l -0.6874,-0.71875 a 0.72894185,0.72894185 0 0 0 -1.03125,0 l -2.90625,2.90625 -2.90625,-2.90625 a 0.72894185,0.72894185 0 0 0 -0.65625,-0.21875 z"
       style="font-size:medium;font-style:normal;font-variant:normal;font-weight:normal;font-stretch:normal;text-indent:0;text-align:start;text-decoration:none;line-height:normal;letter-spacing:normal;word-spacing:normal;text-transform:none;direction:ltr;block-progression:tb;writing-mode:lr-tb;text-anchor:start;baseline-shift:baseline;color:#000000;fill:#008000;fill-opacity:1;stroke:none;stroke-width:1px;marker:none;visibility:visible;display:inline;overflow:visible;enable-background:accumulate;font-family:Sans;-inkscape-font-specification:Sans" />
    <path
       inkscape:connector-curvature="0"
       id="path4067"
       d="m 533.18417,374.57553 a 0.72894185,0.72894185 0 0 0 -0.375,0.21875 l -0.6875,0.71875 a 0.72894185,0.72894185 0 0 0 0.0312,1.03125 l 2.875,2.875 -2.875,2.875 a 0.72894185,0.72894185 0 0 0 0,1 l 0.6875,0.6875 a 0.72894185,0.72894185 0 0 0 1,0 l 2.90625,-2.90625 2.90625,2.90625 a 0.72894185,0.72894185 0 0 0 1,0 l 0.6875,-0.6875 a 0.72894185,0.72894185 0 0 0 0,-1 l -2.875,-2.875 2.875,-2.875 a 0.72894185,0.72894185 0 0 0 0.0312,-1.03125 l -0.6874,-0.71875 a 0.72894185,0.72894185 0 0 0 -1.03125,0 l -2.90625,2.90625 -2.90625,-2.90625 a 0.72894185,0.72894185 0 0 0 -0.65625,-0.21875 z"
       style="font-size:medium;font-style:normal;font-variant:normal;font-weight:normal;font-stretch:normal;text-indent:0;text-align:start;text-decoration:none;line-height:normal;letter-spacing:normal;word-spacing:normal;text-transform:none;direction:ltr;block-progression:tb;writing-mode:lr-tb;text-anchor:start;baseline-shift:baseline;color:#000000;fill:#008000;fill-opacity:1;stroke:none;stroke-width:1px;marker:none;visibility:visible;display:inline;overflow:visible;enable-background:accumulate;font-family:Sans;-inkscape-font-specification:Sans" />
    <path
       inkscape:connector-curvature="0"
       id="path4069"
       d="m 239.07817,374.41061 a 0.72894185,0.72894185 0 0 0 -0.375,0.21875 l -0.6875,0.71875 a 0.72894185,0.72894185 0 0 0 0.0312,1.03125 l 2.875,2.875 -2.875,2.875 a 0.72894185,0.72894185 0 0 0 0,1 l 0.6875,0.6875 a 0.72894185,0.72894185 0 0 0 1,0 l 2.90625,-2.90625 2.90625,2.90625 a 0.72894185,0.72894185 0 0 0 1,0 l 0.6875,-0.6875 a 0.72894185,0.72894185 0 0 0 0,-1 l -2.875,-2.875 2.875,-2.875 a 0.72894185,0.72894185 0 0 0 0.0312,-1.03125 l -0.6874,-0.71875 a 0.72894185,0.72894185 0 0 0 -1.03125,0 l -2.90625,2.90625 -2.90625,-2.90625 a 0.72894185,0.72894185 0 0 0 -0.65625,-0.21875 z"
       style="font-size:medium;font-style:normal;font-variant:normal;font-weight:normal;font-stretch:normal;text-indent:0;text-align:start;text-decoration:none;line-height:normal;letter-spacing:normal;word-spacing:normal;text-transform:none;direction:ltr;block-progression:tb;writing-mode:lr-tb;text-anchor:start;baseline-shift:baseline;color:#000000;fill:#008000;fill-opacity:1;stroke:none;stroke-width:1px;marker:none;visibility:visible;display:inline;overflow:visible;enable-background:accumulate;font-family:Sans;-inkscape-font-specification:Sans" />
    <path
       inkscape:connector-curvature="0"
       id="path4071"
       d="m 177.07817,374.41061 a 0.72894185,0.72894185 0 0 0 -0.375,0.21875 l -0.6875,0.71875 a 0.72894185,0.72894185 0 0 0 0.0312,1.03125 l 2.875,2.875 -2.875,2.875 a 0.72894185,0.72894185 0 0 0 0,1 l 0.6875,0.6875 a 0.72894185,0.72894185 0 0 0 1,0 l 2.90625,-2.90625 2.90625,2.90625 a 0.72894185,0.72894185 0 0 0 1,0 l 0.6875,-0.6875 a 0.72894185,0.72894185 0 0 0 0,-1 l -2.875,-2.875 2.875,-2.875 a 0.72894185,0.72894185 0 0 0 0.0312,-1.03125 l -0.6874,-0.71875 a 0.72894185,0.72894185 0 0 0 -1.03125,0 l -2.90625,2.90625 -2.90625,-2.90625 a 0.72894185,0.72894185 0 0 0 -0.65625,-0.21875 z"
       style="font-size:medium;font-style:normal;font-variant:normal;font-weight:normal;font-stretch:normal;text-indent:0;text-align:start;text-decoration:none;line-height:normal;letter-spacing:normal;word-spacing:normal;text-transform:none;direction:ltr;block-progression:tb;writing-mode:lr-tb;text-anchor:start;baseline-shift:baseline;color:#000000;fill:#008000;fill-opacity:1;stroke:none;stroke-width:1px;marker:none;visibility:visible;display:inline;overflow:visible;enable-background:accumulate;font-family:Sans;-inkscape-font-specification:Sans" />
    <path
       inkscape:connector-curvature="0"
       id="path4073"
       d="m 113.07817,374.41061 a 0.72894185,0.72894185 0 0 0 -0.375,0.21875 l -0.6875,0.71875 a 0.72894185,0.72894185 0 0 0 0.0312,1.03125 l 2.875,2.875 -2.875,2.875 a 0.72894185,0.72894185 0 0 0 0,1 l 0.6875,0.6875 a 0.72894185,0.72894185 0 0 0 1,0 l 2.90625,-2.90625 2.90625,2.90625 a 0.72894185,0.72894185 0 0 0 1,0 l 0.6875,-0.6875 a 0.72894185,0.72894185 0 0 0 0,-1 l -2.875,-2.875 2.875,-2.875 a 0.72894185,0.72894185 0 0 0 0.0312,-1.03125 l -0.6874,-0.71875 a 0.72894185,0.72894185 0 0 0 -1.03125,0 l -2.90625,2.90625 -2.90625,-2.90625 a 0.72894185,0.72894185 0 0 0 -0.65625,-0.21875 z"
       style="font-size:medium;font-style:normal;font-variant:normal;font-weight:normal;font-stretch:normal;text-indent:0;text-align:start;text-decoration:none;line-height:normal;letter-spacing:normal;word-spacing:normal;text-transform:none;direction:ltr;block-progression:tb;writing-mode:lr-tb;text-anchor:start;baseline-shift:baseline;color:#000000;fill:#008000;fill-opacity:1;stroke:none;stroke-width:1px;marker:none;visibility:visible;display:inline;overflow:visible;enable-background:accumulate;font-family:Sans;-inkscape-font-specification:Sans" />
    <path
       inkscape:connector-curvature="0"
       id="path4075"
       d="m 53.133647,374.41061 a 0.72894185,0.72894185 0 0 0 -0.375,0.21875 l -0.6875,0.71875 a 0.72894185,0.72894185 0 0 0 0.0312,1.03125 l 2.875,2.875 -2.875,2.875 a 0.72894185,0.72894185 0 0 0 0,1 l 0.6875,0.6875 a 0.72894185,0.72894185 0 0 0 1,0 l 2.90625,-2.90625 2.90625,2.90625 a 0.72894185,0.72894185 0 0 0 1,0 l 0.6875,-0.6875 a 0.72894185,0.72894185 0 0 0 0,-1 l -2.875,-2.875 2.875,-2.875 a 0.72894185,0.72894185 0 0 0 0.0312,-1.03125 l -0.6874,-0.71875 a 0.72894185,0.72894185 0 0 0 -1.03125,0 l -2.90625,2.90625 -2.90625,-2.90625 a 0.72894185,0.72894185 0 0 0 -0.65625,-0.21875 z"
       style="font-size:medium;font-style:normal;font-variant:normal;font-weight:normal;font-stretch:normal;text-indent:0;text-align:start;text-decoration:none;line-height:normal;letter-spacing:normal;word-spacing:normal;text-transform:none;direction:ltr;block-progression:tb;writing-mode:lr-tb;text-anchor:start;baseline-shift:baseline;color:#000000;fill:#008000;fill-opacity:1;stroke:none;stroke-width:1px;marker:none;visibility:visible;display:inline;overflow:visible;enable-background:accumulate;font-family:Sans;-inkscape-font-specification:Sans" />
    <path
       sodipodi:nodetypes="cssccccsccccccscccccssscssssscssssscsssssccssssssccccccccsccccccsccccsssccssssscssssscssssccssc"
       inkscape:connector-curvature="0"
       id="path4077"
       d="m 195.83748,372.70752 c -0.82125,0.0476 -1.31295,0.56236 -1.86269,1.09375 -0.54974,0.53139 -1.02556,1.41306 -1.40625,2.1875 -0.6091,1.23911 -0.92905,2.25045 -1.0625,2.6875 l -0.16912,0 c -0.21423,-2.17534 -1.7459,-3.95821 -3.78125,-4.5625 l 0,1.0625 c 1.6315,0.61336 2.8125,2.17781 2.8125,4.03125 0,1.85344 -1.181,3.41789 -2.8125,4.03125 l 0,1.0625 c 2.04931,-0.60829 3.58369,-2.42961 3.78125,-4.625 l 0.51287,0 0.375,0 0.125,-0.34375 c 0.23901,-0.70824 0.48859,-1.38987 0.75,-2.03125 0.12178,-0.29879 0.24434,-0.60138 0.375,-0.875 0.006,-0.0127 0.0251,-0.0187 0.0312,-0.0312 0.14466,-0.30055 0.27861,-0.58289 0.4375,-0.84375 0.0371,-0.0608 0.0873,-0.0979 0.125,-0.15625 0.005,-0.008 -0.005,-0.0239 0,-0.0312 0.53573,-0.82588 1.11161,-1.65625 1.76894,-1.65625 0.65732,0 0.62688,0.24327 1.08162,0.75 0.45474,0.50673 0.89334,1.24319 1.25,1.96875 0.71331,1.45111 1.15625,2.90625 1.15625,2.90625 0,0 0.42612,1.54486 1.1875,3.09375 0.38069,0.77444 0.85142,1.53798 1.40625,2.15625 0.55483,0.61827 1.0176,1.125 1.83169,1.125 0.81409,0 1.30742,-0.50673 1.86225,-1.125 0.55483,-0.61827 1.02556,-1.38181 1.40625,-2.15625 0.76139,-1.54889 1.1875,-3.09375 1.1875,-3.09375 0,0 0.44294,-1.45514 1.15625,-2.90625 0.35666,-0.72556 0.76401,-1.46202 1.21875,-1.96875 0.45474,-0.50673 0.70934,-0.75 1.11275,-0.75 0.40341,0 0.65745,0.24327 1.11219,0.75 0.45474,0.50673 0.89334,1.24319 1.25,1.96875 0.71331,1.45111 1.125,2.90625 1.125,2.90625 0,0 0.45737,1.54486 1.21875,3.09375 0.38069,0.77444 0.82017,1.53798 1.375,2.15625 0.55483,0.61827 1.04884,1.125 1.86293,1.125 0.81409,0 1.27617,-0.50673 1.831,-1.125 0.55483,-0.61827 1.02556,-1.38181 1.40625,-2.15625 0.65051,-1.32334 0.98937,-2.45601 1.09375,-2.8125 0,0 0.0744,-0.2195 0.0937,-0.28125 0.10965,-0.34993 0.45619,-1.42281 1.0625,-2.65625 0.35666,-0.72556 0.76401,-1.43077 1.21875,-1.9375 0.45474,-0.50673 0.70894,-0.78125 1.11235,-0.78125 0.40341,0 0.6575,0.27452 1.11224,0.78125 0.45474,0.50673 0.89334,1.21194 1.25,1.9375 0.17833,0.36278 0.32984,0.71909 0.46875,1.0625 0.13891,0.34341 0.27896,0.66101 0.375,0.9375 0.0178,0.0496 0.0135,0.10627 0.0312,0.15625 0.13643,0.4099 0.25,0.78125 0.25,0.78125 0,0 0.0738,0.21813 0.0937,0.28125 l 0.0625,0 c 0.45833,0 0.41719,0 0.87553,0 0.2776,2.09564 1.76967,3.81844 3.75,4.40625 l 0,-1.0625 c -1.6315,-0.61336 -2.8125,-2.17781 -2.8125,-4.03125 0,-1.85344 1.181,-3.41789 2.8125,-4.03125 l 0,-1.0625 c -2.10131,0.62387 -3.6495,2.51062 -3.78125,4.78125 l -0.15675,0 c -0.0611,-0.17751 -0.12588,-0.35502 -0.1875,-0.53125 -0.0299,-0.0826 -0.0913,-0.19132 -0.125,-0.28125 -0.36078,-1.01388 -0.71902,-1.99206 -1.21875,-2.8125 -0.13035,-0.214 -0.28677,-0.40938 -0.4375,-0.59375 -0.0319,-0.0391 -0.061,-0.0873 -0.0937,-0.125 -0.0171,-0.0237 -0.0452,-0.0391 -0.0625,-0.0625 -0.1096,-0.14795 -0.22397,-0.30403 -0.34375,-0.4375 -0.55483,-0.61827 -1.04815,-1.09375 -1.86224,-1.09375 -0.81409,0 -1.30752,0.47548 -1.86235,1.09375 -0.55483,0.61827 -0.99431,1.41306 -1.375,2.1875 -0.76138,1.54889 -1.21875,3.09375 -1.21875,3.09375 l 0.0312,0 c -0.10965,0.34993 -0.45619,1.42281 -1.0625,2.65625 -0.35666,0.72556 -0.76401,1.43077 -1.21875,1.9375 -0.45474,0.50673 -0.70884,0.78125 -1.11225,0.78125 -0.40341,0 -0.65819,-0.27452 -1.11293,-0.78125 -0.45474,-0.50673 -0.89334,-1.21194 -1.25,-1.9375 -0.71331,-1.45111 -1.125,-2.9375 -1.125,-2.9375 0,0 -0.45737,-1.51361 -1.21875,-3.0625 -0.38069,-0.77444 -0.82017,-1.56923 -1.375,-2.1875 -0.55483,-0.61827 -1.0481,-1.09375 -1.86219,-1.09375 -0.81409,0 -1.30792,0.47548 -1.86275,1.09375 -0.55483,0.61827 -0.99431,1.41306 -1.375,2.1875 -0.76138,1.54889 -1.21875,3.0625 -1.21875,3.0625 0,0 -0.41168,1.48639 -1.125,2.9375 -0.35666,0.72556 -0.79526,1.43077 -1.25,1.9375 -0.45474,0.50673 -0.70884,0.78125 -1.11225,0.78125 -0.40341,0 -0.6582,-0.27452 -1.11294,-0.78125 -0.45474,-0.50673 -0.86209,-1.21194 -1.21875,-1.9375 -0.71294,-1.45141 -1.15613,-2.9376 -1.15613,-2.9376 0,0 -0.42612,-1.51361 -1.1875,-3.0625 -0.38069,-0.77444 -0.85142,-1.56923 -1.40625,-2.1875 -0.55483,-0.61827 -1.01753,-1.09375 -1.83162,-1.09375 z"
       style="font-size:medium;font-style:normal;font-variant:normal;font-weight:normal;font-stretch:normal;text-indent:0;text-align:start;text-decoration:none;line-height:normal;letter-spacing:normal;word-spacing:normal;text-transform:none;direction:ltr;block-progression:tb;writing-mode:lr-tb;text-anchor:start;baseline-shift:baseline;color:#000000;fill:#ff8080;fill-opacity:1;stroke:none;stroke-width:1px;marker:none;visibility:visible;display:inline;overflow:visible;enable-background:accumulate;font-family:Sans;-inkscape-font-specification:Sans" />
    <path
       sodipodi:nodetypes="cssccccsccccccscccccssscssssscssssscsssssccssssssccccccccsccccccsccccsssccssssscssssscssssccssc"
       inkscape:connector-curvature="0"
       id="path4079"
       d="m 430.70905,372.87244 c -0.82125,0.0476 -1.31295,0.56236 -1.86269,1.09375 -0.54974,0.53139 -1.02556,1.41306 -1.40625,2.1875 -0.6091,1.23911 -0.92905,2.25045 -1.0625,2.6875 l -0.16912,0 c -0.21423,-2.17534 -1.7459,-3.95821 -3.78125,-4.5625 l 0,1.0625 c 1.6315,0.61336 2.8125,2.17781 2.8125,4.03125 0,1.85344 -1.181,3.41789 -2.8125,4.03125 l 0,1.0625 c 2.04931,-0.60829 3.58369,-2.42961 3.78125,-4.625 l 0.51287,0 0.375,0 0.125,-0.34375 c 0.23901,-0.70824 0.48859,-1.38987 0.75,-2.03125 0.12178,-0.29879 0.24434,-0.60138 0.375,-0.875 0.006,-0.0127 0.0251,-0.0187 0.0312,-0.0312 0.14466,-0.30055 0.27861,-0.58289 0.4375,-0.84375 0.0371,-0.0608 0.0873,-0.0979 0.125,-0.15625 0.005,-0.008 -0.005,-0.0239 0,-0.0312 0.53573,-0.82588 1.11161,-1.65625 1.76894,-1.65625 0.65732,0 0.62688,0.24327 1.08162,0.75 0.45474,0.50673 0.89334,1.24319 1.25,1.96875 0.71331,1.45111 1.15625,2.90625 1.15625,2.90625 0,0 0.42612,1.54486 1.1875,3.09375 0.38069,0.77444 0.85142,1.53798 1.40625,2.15625 0.55483,0.61827 1.0176,1.125 1.83169,1.125 0.81409,0 1.30742,-0.50673 1.86225,-1.125 0.55483,-0.61827 1.02556,-1.38181 1.40625,-2.15625 0.76139,-1.54889 1.1875,-3.09375 1.1875,-3.09375 0,0 0.44294,-1.45514 1.15625,-2.90625 0.35666,-0.72556 0.76401,-1.46202 1.21875,-1.96875 0.45474,-0.50673 0.70934,-0.75 1.11275,-0.75 0.40341,0 0.65745,0.24327 1.11219,0.75 0.45474,0.50673 0.89334,1.24319 1.25,1.96875 0.71331,1.45111 1.125,2.90625 1.125,2.90625 0,0 0.45737,1.54486 1.21875,3.09375 0.38069,0.77444 0.82017,1.53798 1.375,2.15625 0.55483,0.61827 1.04884,1.125 1.86293,1.125 0.81409,0 1.27617,-0.50673 1.831,-1.125 0.55483,-0.61827 1.02556,-1.38181 1.40625,-2.15625 0.65051,-1.32334 0.98937,-2.45601 1.09375,-2.8125 0,0 0.0744,-0.2195 0.0937,-0.28125 0.10965,-0.34993 0.45619,-1.42281 1.0625,-2.65625 0.35666,-0.72556 0.76401,-1.43077 1.21875,-1.9375 0.45474,-0.50673 0.70894,-0.78125 1.11235,-0.78125 0.40341,0 0.6575,0.27452 1.11224,0.78125 0.45474,0.50673 0.89334,1.21194 1.25,1.9375 0.17833,0.36278 0.32984,0.71909 0.46875,1.0625 0.13891,0.34341 0.27896,0.66101 0.375,0.9375 0.0178,0.0496 0.0135,0.10627 0.0312,0.15625 0.13643,0.4099 0.25,0.78125 0.25,0.78125 0,0 0.0738,0.21813 0.0937,0.28125 l 0.0625,0 c 0.45833,0 0.41719,0 0.87553,0 0.2776,2.09564 1.76967,3.81844 3.75,4.40625 l 0,-1.0625 c -1.6315,-0.61336 -2.8125,-2.17781 -2.8125,-4.03125 0,-1.85344 1.181,-3.41789 2.8125,-4.03125 l 0,-1.0625 c -2.10131,0.62387 -3.6495,2.51062 -3.78125,4.78125 l -0.15675,0 c -0.0611,-0.17751 -0.12588,-0.35502 -0.1875,-0.53125 -0.0299,-0.0826 -0.0913,-0.19132 -0.125,-0.28125 -0.36078,-1.01388 -0.71902,-1.99206 -1.21875,-2.8125 -0.13035,-0.214 -0.28677,-0.40938 -0.4375,-0.59375 -0.0319,-0.0391 -0.061,-0.0873 -0.0937,-0.125 -0.0171,-0.0237 -0.0452,-0.0391 -0.0625,-0.0625 -0.1096,-0.14795 -0.22397,-0.30403 -0.34375,-0.4375 -0.55483,-0.61827 -1.04815,-1.09375 -1.86224,-1.09375 -0.81409,0 -1.30752,0.47548 -1.86235,1.09375 -0.55483,0.61827 -0.99431,1.41306 -1.375,2.1875 -0.76138,1.54889 -1.21875,3.09375 -1.21875,3.09375 l 0.0312,0 c -0.10965,0.34993 -0.45619,1.42281 -1.0625,2.65625 -0.35666,0.72556 -0.76401,1.43077 -1.21875,1.9375 -0.45474,0.50673 -0.70884,0.78125 -1.11225,0.78125 -0.40341,0 -0.65819,-0.27452 -1.11293,-0.78125 -0.45474,-0.50673 -0.89334,-1.21194 -1.25,-1.9375 -0.71331,-1.45111 -1.125,-2.9375 -1.125,-2.9375 0,0 -0.45737,-1.51361 -1.21875,-3.0625 -0.38069,-0.77444 -0.82017,-1.56923 -1.375,-2.1875 -0.55483,-0.61827 -1.0481,-1.09375 -1.86219,-1.09375 -0.81409,0 -1.30792,0.47548 -1.86275,1.09375 -0.55483,0.61827 -0.99431,1.41306 -1.375,2.1875 -0.76138,1.54889 -1.21875,3.0625 -1.21875,3.0625 0,0 -0.41168,1.48639 -1.125,2.9375 -0.35666,0.72556 -0.79526,1.43077 -1.25,1.9375 -0.45474,0.50673 -0.70884,0.78125 -1.11225,0.78125 -0.40341,0 -0.6582,-0.27452 -1.11294,-0.78125 -0.45474,-0.50673 -0.86209,-1.21194 -1.21875,-1.9375 -0.71294,-1.45141 -1.15613,-2.9376 -1.15613,-2.9376 0,0 -0.42612,-1.51361 -1.1875,-3.0625 -0.38069,-0.77444 -0.85142,-1.56923 -1.40625,-2.1875 -0.55483,-0.61827 -1.01753,-1.09375 -1.83162,-1.09375 z"
       style="font-size:medium;font-style:normal;font-variant:normal;font-weight:normal;font-stretch:normal;text-indent:0;text-align:start;text-decoration:none;line-height:normal;letter-spacing:normal;word-spacing:normal;text-transform:none;direction:ltr;block-progression:tb;writing-mode:lr-tb;text-anchor:start;baseline-shift:baseline;color:#000000;fill:#ff8080;fill-opacity:1;stroke:none;stroke-width:1px;marker:none;visibility:visible;display:inline;overflow:visible;enable-background:accumulate;font-family:Sans;-inkscape-font-specification:Sans" />
    <path
       sodipodi:nodetypes="cssccccsccccccscccccssscssssscssssscsssssccssssssccccccccsccccccsccccsssccssssscssssscssssccssc"
       inkscape:connector-curvature="0"
       id="path4081"
       d="m 490.89657,372.87244 c -0.82125,0.0476 -1.31295,0.56236 -1.86269,1.09375 -0.54974,0.53139 -1.02556,1.41306 -1.40625,2.1875 -0.6091,1.23911 -0.92905,2.25045 -1.0625,2.6875 l -0.16912,0 c -0.21423,-2.17534 -1.7459,-3.95821 -3.78125,-4.5625 l 0,1.0625 c 1.6315,0.61336 2.8125,2.17781 2.8125,4.03125 0,1.85344 -1.181,3.41789 -2.8125,4.03125 l 0,1.0625 c 2.04931,-0.60829 3.58369,-2.42961 3.78125,-4.625 l 0.51287,0 0.375,0 0.125,-0.34375 c 0.23901,-0.70824 0.48859,-1.38987 0.75,-2.03125 0.12178,-0.29879 0.24434,-0.60138 0.375,-0.875 0.006,-0.0127 0.0251,-0.0187 0.0312,-0.0312 0.14466,-0.30055 0.27861,-0.58289 0.4375,-0.84375 0.0371,-0.0608 0.0873,-0.0979 0.125,-0.15625 0.005,-0.008 -0.005,-0.0239 0,-0.0312 0.53573,-0.82588 1.11161,-1.65625 1.76894,-1.65625 0.65732,0 0.62688,0.24327 1.08162,0.75 0.45474,0.50673 0.89334,1.24319 1.25,1.96875 0.71331,1.45111 1.15625,2.90625 1.15625,2.90625 0,0 0.42612,1.54486 1.1875,3.09375 0.38069,0.77444 0.85142,1.53798 1.40625,2.15625 0.55483,0.61827 1.0176,1.125 1.83169,1.125 0.81409,0 1.30742,-0.50673 1.86225,-1.125 0.55483,-0.61827 1.02556,-1.38181 1.40625,-2.15625 0.76139,-1.54889 1.1875,-3.09375 1.1875,-3.09375 0,0 0.44294,-1.45514 1.15625,-2.90625 0.35666,-0.72556 0.76401,-1.46202 1.21875,-1.96875 0.45474,-0.50673 0.70934,-0.75 1.11275,-0.75 0.40341,0 0.65745,0.24327 1.11219,0.75 0.45474,0.50673 0.89334,1.24319 1.25,1.96875 0.71331,1.45111 1.125,2.90625 1.125,2.90625 0,0 0.45737,1.54486 1.21875,3.09375 0.38069,0.77444 0.82017,1.53798 1.375,2.15625 0.55483,0.61827 1.04884,1.125 1.86293,1.125 0.81409,0 1.27617,-0.50673 1.831,-1.125 0.55483,-0.61827 1.02556,-1.38181 1.40625,-2.15625 0.65051,-1.32334 0.98937,-2.45601 1.09375,-2.8125 0,0 0.0744,-0.2195 0.0937,-0.28125 0.10965,-0.34993 0.45619,-1.42281 1.0625,-2.65625 0.35666,-0.72556 0.76401,-1.43077 1.21875,-1.9375 0.45474,-0.50673 0.70894,-0.78125 1.11235,-0.78125 0.40341,0 0.6575,0.27452 1.11224,0.78125 0.45474,0.50673 0.89334,1.21194 1.25,1.9375 0.17833,0.36278 0.32984,0.71909 0.46875,1.0625 0.13891,0.34341 0.27896,0.66101 0.375,0.9375 0.0178,0.0496 0.0135,0.10627 0.0312,0.15625 0.13643,0.4099 0.25,0.78125 0.25,0.78125 0,0 0.0738,0.21813 0.0937,0.28125 l 0.0625,0 c 0.45833,0 0.41719,0 0.87553,0 0.2776,2.09564 1.76967,3.81844 3.75,4.40625 l 0,-1.0625 c -1.6315,-0.61336 -2.8125,-2.17781 -2.8125,-4.03125 0,-1.85344 1.181,-3.41789 2.8125,-4.03125 l 0,-1.0625 c -2.10131,0.62387 -3.6495,2.51062 -3.78125,4.78125 l -0.15675,0 c -0.0611,-0.17751 -0.12588,-0.35502 -0.1875,-0.53125 -0.0299,-0.0826 -0.0913,-0.19132 -0.125,-0.28125 -0.36078,-1.01388 -0.71902,-1.99206 -1.21875,-2.8125 -0.13035,-0.214 -0.28677,-0.40938 -0.4375,-0.59375 -0.0319,-0.0391 -0.061,-0.0873 -0.0937,-0.125 -0.0171,-0.0237 -0.0452,-0.0391 -0.0625,-0.0625 -0.1096,-0.14795 -0.22397,-0.30403 -0.34375,-0.4375 -0.55483,-0.61827 -1.04815,-1.09375 -1.86224,-1.09375 -0.81409,0 -1.30752,0.47548 -1.86235,1.09375 -0.55483,0.61827 -0.99431,1.41306 -1.375,2.1875 -0.76138,1.54889 -1.21875,3.09375 -1.21875,3.09375 l 0.0312,0 c -0.10965,0.34993 -0.45619,1.42281 -1.0625,2.65625 -0.35666,0.72556 -0.76401,1.43077 -1.21875,1.9375 -0.45474,0.50673 -0.70884,0.78125 -1.11225,0.78125 -0.40341,0 -0.65819,-0.27452 -1.11293,-0.78125 -0.45474,-0.50673 -0.89334,-1.21194 -1.25,-1.9375 -0.71331,-1.45111 -1.125,-2.9375 -1.125,-2.9375 0,0 -0.45737,-1.51361 -1.21875,-3.0625 -0.38069,-0.77444 -0.82017,-1.56923 -1.375,-2.1875 -0.55483,-0.61827 -1.0481,-1.09375 -1.86219,-1.09375 -0.81409,0 -1.30792,0.47548 -1.86275,1.09375 -0.55483,0.61827 -0.99431,1.41306 -1.375,2.1875 -0.76138,1.54889 -1.21875,3.0625 -1.21875,3.0625 0,0 -0.41168,1.48639 -1.125,2.9375 -0.35666,0.72556 -0.79526,1.43077 -1.25,1.9375 -0.45474,0.50673 -0.70884,0.78125 -1.11225,0.78125 -0.40341,0 -0.6582,-0.27452 -1.11294,-0.78125 -0.45474,-0.50673 -0.86209,-1.21194 -1.21875,-1.9375 -0.71294,-1.45141 -1.15613,-2.9376 -1.15613,-2.9376 0,0 -0.42612,-1.51361 -1.1875,-3.0625 -0.38069,-0.77444 -0.85142,-1.56923 -1.40625,-2.1875 -0.55483,-0.61827 -1.01753,-1.09375 -1.83162,-1.09375 z"
       style="font-size:medium;font-style:normal;font-variant:normal;font-weight:normal;font-stretch:normal;text-indent:0;text-align:start;text-decoration:none;line-height:normal;letter-spacing:normal;word-spacing:normal;text-transform:none;direction:ltr;block-progression:tb;writing-mode:lr-tb;text-anchor:start;baseline-shift:baseline;color:#000000;fill:#ff8080;fill-opacity:1;stroke:none;stroke-width:1px;marker:none;visibility:visible;display:inline;overflow:visible;enable-background:accumulate;font-family:Sans;-inkscape-font-specification:Sans" />
    <g
       id="g4288"
       transform="translate(-7.5034145,255.52874)">
      <path
         sodipodi:nodetypes="ccccc"
         inkscape:connector-curvature="0"
         id="rect4083"
         d="m 12.5,169.5 218,0 0,58.5 -218,0 z"
         style="fill:#f9f9f9;fill-opacity:1;stroke:#000000;display:inline" />
      <text
         xml:space="preserve"
         style="font-size:18px;font-style:normal;font-weight:normal;line-height:125%;letter-spacing:0px;word-spacing:0px;fill:#000000;fill-opacity:1;stroke:none;display:inline;font-family:Sans"
         x="16.439342"
         y="185.11092"
         id="text4085"
         sodipodi:linespacing="125%"><tspan
           style="font-size:16px"
           sodipodi:role="line"
           id="tspan4087"
           x="16.439342"
           y="185.11092">Legend:</tspan></text>
      <g
         transform="translate(-9.9895923,-10.37868)"
         id="g4234">
        <text
           xml:space="preserve"
           style="font-size:18px;font-style:normal;font-weight:normal;line-height:125%;letter-spacing:0px;word-spacing:0px;fill:#000000;fill-opacity:1;stroke:none;display:inline;font-family:Sans"
           x="73.447266"
           y="213.61133"
           id="text4127-7"
           sodipodi:linespacing="125%"><tspan
             sodipodi:role="line"
             id="tspan4129-1"
             x="73.447266"
             y="213.61133"
             style="font-size:12px">Time stamp (consistent state)</tspan></text>
        <path
           inkscape:connector-curvature="0"
           id="path4073-1"
           d="m 48.937551,205.70304 a 0.72894185,0.72894185 0 0 0 -0.375,0.21875 l -0.6875,0.71875 a 0.72894185,0.72894185 0 0 0 0.0312,1.03125 l 2.875,2.875 -2.875,2.875 a 0.72894185,0.72894185 0 0 0 0,1 l 0.6875,0.6875 a 0.72894185,0.72894185 0 0 0 1,0 l 2.90625,-2.90625 2.90625,2.90625 a 0.72894185,0.72894185 0 0 0 1,0 l 0.6875,-0.6875 a 0.72894185,0.72894185 0 0 0 0,-1 l -2.875,-2.875 2.875,-2.875 a 0.72894185,0.72894185 0 0 0 0.0312,-1.03125 l -0.6874,-0.71875 a 0.72894185,0.72894185 0 0 0 -1.03125,0 l -2.90625,2.90625 -2.90625,-2.90625 a 0.72894185,0.72894185 0 0 0 -0.65625,-0.21875 z"
           style="font-size:medium;font-style:normal;font-variant:normal;font-weight:normal;font-stretch:normal;text-indent:0;text-align:start;text-decoration:none;line-height:normal;letter-spacing:normal;word-spacing:normal;text-transform:none;direction:ltr;block-progression:tb;writing-mode:lr-tb;text-anchor:start;baseline-shift:baseline;color:#000000;fill:#008000;fill-opacity:1;stroke:none;stroke-width:1px;marker:none;visibility:visible;display:inline;overflow:visible;enable-background:accumulate;font-family:Sans;-inkscape-font-specification:Sans" />
        <path
           sodipodi:nodetypes="cssccccsccccccscccccssscssccssccssssssccccccccsccccccsccccsssccssccsccsscc"
           inkscape:connector-curvature="0"
           id="path4059-5"
           d="m 38.44685,219.49995 c -0.82125,0.0476 -1.31295,0.56236 -1.86269,1.09375 -0.54974,0.53139 -1.02556,1.41306 -1.40625,2.1875 -0.6091,1.23911 -0.92905,2.25045 -1.0625,2.6875 l -0.16912,0 c -0.21423,-2.17534 -1.7459,-3.95821 -3.78125,-4.5625 l 0,1.0625 c 1.6315,0.61336 2.8125,2.17781 2.8125,4.03125 0,1.85344 -1.181,3.41789 -2.8125,4.03125 l 0,1.0625 c 2.04931,-0.60829 3.58369,-2.42961 3.78125,-4.625 l 0.51287,0 0.375,0 0.125,-0.34375 c 0.23901,-0.70824 0.48859,-1.38987 0.75,-2.03125 0.12178,-0.29879 0.24434,-0.60138 0.375,-0.875 0.006,-0.0127 0.0251,-0.0187 0.0312,-0.0312 0.14466,-0.30055 0.27861,-0.58289 0.4375,-0.84375 0.0371,-0.0608 0.0873,-0.0979 0.125,-0.15625 0.005,-0.008 -0.005,-0.0239 0,-0.0312 0.53573,-0.82588 1.11161,-1.65625 1.76894,-1.65625 0.65732,0 0.62688,0.24327 1.08162,0.75 0.45474,0.50673 0.89334,1.24319 1.25,1.96875 0.71331,1.45111 1.15625,2.90625 1.15625,2.90625 0,0 0.42612,1.54486 1.1875,3.09375 0.38069,0.77444 0.85142,1.53798 1.40625,2.15625 0.55483,0.61827 1.0176,1.125 1.83169,1.125 l -0.11238,0 c 0.81409,0 1.27617,-0.50673 1.831,-1.125 0.55483,-0.61827 1.02556,-1.38181 1.40625,-2.15625 0.65051,-1.32334 0.98937,-2.45601 1.09375,-2.8125 0,0 0.0744,-0.2195 0.0937,-0.28125 0.10965,-0.34993 0.45619,-1.42281 1.0625,-2.65625 0.35666,-0.72556 0.76401,-1.43077 1.21875,-1.9375 0.45474,-0.50673 0.70894,-0.78125 1.11235,-0.78125 0.40341,0 0.6575,0.27452 1.11224,0.78125 0.45474,0.50673 0.89334,1.21194 1.25,1.9375 0.17833,0.36278 0.32984,0.71909 0.46875,1.0625 0.13891,0.34341 0.27896,0.66101 0.375,0.9375 0.0178,0.0496 0.0135,0.10627 0.0312,0.15625 0.13643,0.4099 0.25,0.78125 0.25,0.78125 0,0 0.0738,0.21813 0.0937,0.28125 l 0.0625,0 c 0.45833,0 0.41719,0 0.87553,0 0.2776,2.09564 1.76967,3.81844 3.75,4.40625 l 0,-1.0625 c -1.6315,-0.61336 -2.8125,-2.17781 -2.8125,-4.03125 0,-1.85344 1.181,-3.41789 2.8125,-4.03125 l 0,-1.0625 c -2.10131,0.62387 -3.6495,2.51062 -3.78125,4.78125 l -0.15675,0 c -0.0611,-0.17751 -0.12588,-0.35502 -0.1875,-0.53125 -0.0299,-0.0826 -0.0913,-0.19132 -0.125,-0.28125 -0.36078,-1.01388 -0.71902,-1.99206 -1.21875,-2.8125 -0.13035,-0.214 -0.28677,-0.40938 -0.4375,-0.59375 -0.0319,-0.0391 -0.061,-0.0873 -0.0937,-0.125 -0.0171,-0.0237 -0.0452,-0.0391 -0.0625,-0.0625 -0.1096,-0.14795 -0.22397,-0.30403 -0.34375,-0.4375 -0.55483,-0.61827 -1.04815,-1.09375 -1.86224,-1.09375 -0.81409,0 -1.30752,0.47548 -1.86235,1.09375 -0.55483,0.61827 -0.99431,1.41306 -1.375,2.1875 -0.76138,1.54889 -1.21875,3.09375 -1.21875,3.09375 l 0.0312,0 c -0.10965,0.34993 -0.45619,1.42281 -1.0625,2.65625 -0.35666,0.72556 -0.76401,1.43077 -1.21875,1.9375 -0.45474,0.50673 -0.70884,0.78125 -1.11225,0.78125 l 0.11238,0 c -0.40341,0 -0.6582,-0.27452 -1.11294,-0.78125 -0.45474,-0.50673 -0.86209,-1.21194 -1.21875,-1.9375 -0.71294,-1.45141 -1.15613,-2.9376 -1.15613,-2.9376 0,0 -0.42612,-1.51361 -1.1875,-3.0625 -0.38069,-0.77444 -0.85142,-1.56923 -1.40625,-2.1875 -0.55483,-0.61827 -1.01753,-1.09375 -1.83162,-1.09375 z"
           style="font-size:medium;font-style:normal;font-variant:normal;font-weight:normal;font-stretch:normal;text-indent:0;text-align:start;text-decoration:none;line-height:normal;letter-spacing:normal;word-spacing:normal;text-transform:none;direction:ltr;block-progression:tb;writing-mode:lr-tb;text-anchor:start;baseline-shift:baseline;color:#000000;fill:#ff8080;fill-opacity:1;stroke:none;stroke-width:1px;marker:none;visibility:visible;display:inline;overflow:visible;enable-background:accumulate;font-family:Sans;-inkscape-font-specification:Sans" />
        <text
           xml:space="preserve"
           style="font-size:18px;font-style:normal;font-weight:normal;line-height:125%;letter-spacing:0px;word-spacing:0px;fill:#000000;fill-opacity:1;stroke:none;display:inline;font-family:Sans"
           x="73.447266"
           y="229.11133"
           id="text4127-6"
           sodipodi:linespacing="125%"><tspan
             sodipodi:role="line"
             id="tspan4129-14"
             x="73.447266"
             y="229.11133"
             style="font-size:12px">transitory state</tspan></text>
      </g>
      <path
         sodipodi:nodetypes="ccccccccccc"
         inkscape:connector-curvature="0"
         id="path4242"
         d="m 17.9375,186.46875 0,1 16.8125,0 c -0.172786,-0.30954 -0.282371,-0.63414 -0.34375,-1 z m 24.59375,0 c -0.06153,0.20169 -0.134625,0.39008 -0.21875,0.5625 -0.07537,0.15447 -0.1544,0.29656 -0.25,0.4375 l 31.65625,0 0,-1 z"
         style="font-size:medium;font-style:normal;font-variant:normal;font-weight:normal;font-stretch:normal;text-indent:0;text-align:start;text-decoration:none;line-height:normal;letter-spacing:normal;word-spacing:normal;text-transform:none;direction:ltr;block-progression:tb;writing-mode:lr-tb;text-anchor:start;baseline-shift:baseline;color:#000000;fill:#000000;fill-opacity:1;stroke:none;stroke-width:0.99690074px;marker:none;visibility:visible;display:inline;overflow:visible;enable-background:accumulate;font-family:Sans;-inkscape-font-specification:Sans" />
      <path
         d="m 38.375,176.625 c -0.734378,1e-5 -1.393232,0.19792 -1.9375,0.5625 -0.544273,0.36459 -0.963543,0.86198 -1.25,1.53125 -0.286459,0.66927 -0.40625,1.39584 -0.40625,2.1875 0,1.15105 0.3125,2.14584 0.9375,2.96875 0.624998,0.82292 1.484372,1.25 2.625,1.25 0.916662,0 1.697911,-0.36979 2.3125,-1.09375 0.0052,0.91667 -0.02084,1.52604 -0.09375,1.8125 -0.125006,0.46874 -0.364589,0.83333 -0.71875,1.09375 -0.354171,0.26041 -0.880213,0.375 -1.53125,0.375 -0.60417,0 -1.057294,-0.11459 -1.40625,-0.375 -0.260419,-0.19271 -0.44271,-0.51563 -0.5,-0.9375 l -1.34375,-0.1875 c -0.02083,0.89583 0.265624,1.55469 0.875,2 0.609373,0.44531 1.416664,0.65625 2.40625,0.65625 0.833329,0 1.523432,-0.15625 2.09375,-0.46875 0.570306,-0.3125 0.986972,-0.74219 1.25,-1.28125 0.263013,-0.53906 0.406243,-1.42709 0.40625,-2.71875 l 0,-7.1875 -1.3125,0 0,1 c -0.635422,-0.79166 -1.427088,-1.18749 -2.40625,-1.1875 z m 0.09375,1.15625 c 0.635412,1e-5 1.174474,0.26563 1.625,0.78125 0.450515,0.51563 0.687494,1.29688 0.6875,2.3125 -6e-6,1.0625 -0.218756,1.81511 -0.65625,2.3125 -0.437505,0.4974 -0.979171,0.75 -1.625,0.75 -0.651045,0 -1.192711,-0.24999 -1.625,-0.75 -0.432293,-0.49999 -0.656252,-1.28645 -0.65625,-2.375 -2e-6,-0.99999 0.218748,-1.74218 0.65625,-2.25 0.437497,-0.5078 0.968746,-0.78124 1.59375,-0.78125 z"
         inkscape:href="#path4257"
         id="path4276"
         style="font-size:16px;font-style:normal;font-weight:normal;line-height:125%;letter-spacing:0px;word-spacing:0px;fill:#000000;fill-opacity:1;stroke:none;font-family:Sans"
         xlink:href="#path4257"
         inkscape:original="M 38.375 176.625 C 37.640622 176.62501 36.981768 176.82292 36.4375 177.1875 C 35.893227 177.55209 35.473957 178.04948 35.1875 178.71875 C 34.901041 179.38802 34.78125 180.11459 34.78125 180.90625 C 34.78125 182.0573 35.09375 183.05209 35.71875 183.875 C 36.343748 184.69792 37.203122 185.125 38.34375 185.125 C 39.260412 185.125 40.041661 184.75521 40.65625 184.03125 C 40.661452 184.94792 40.63541 185.55729 40.5625 185.84375 C 40.437494 186.31249 40.197911 186.67708 39.84375 186.9375 C 39.489579 187.19791 38.963537 187.3125 38.3125 187.3125 C 37.70833 187.3125 37.255206 187.19791 36.90625 186.9375 C 36.645831 186.74479 36.46354 186.42187 36.40625 186 L 35.0625 185.8125 C 35.041666 186.70833 35.328124 187.36719 35.9375 187.8125 C 36.546873 188.25781 37.354164 188.46875 38.34375 188.46875 C 39.177079 188.46875 39.867182 188.3125 40.4375 188 C 41.007806 187.6875 41.424472 187.25781 41.6875 186.71875 C 41.950513 186.17969 42.093743 185.29166 42.09375 184 L 42.09375 176.8125 L 40.78125 176.8125 L 40.78125 177.8125 C 40.145828 177.02084 39.354162 176.62501 38.375 176.625 z M 38.46875 177.78125 C 39.104162 177.78126 39.643224 178.04688 40.09375 178.5625 C 40.544265 179.07813 40.781244 179.85938 40.78125 180.875 C 40.781244 181.9375 40.562494 182.69011 40.125 183.1875 C 39.687495 183.6849 39.145829 183.9375 38.5 183.9375 C 37.848955 183.9375 37.307289 183.68751 36.875 183.1875 C 36.442707 182.68751 36.218748 181.90105 36.21875 180.8125 C 36.218748 179.81251 36.437498 179.07032 36.875 178.5625 C 37.312497 178.0547 37.843746 177.78126 38.46875 177.78125 z "
         inkscape:radius="0"
         sodipodi:type="inkscape:offset" />
      <path
         transform="translate(-16,-12.5)"
         d="m 54.375,189.125 c -0.734378,1e-5 -1.393232,0.19792 -1.9375,0.5625 -0.544273,0.36459 -0.963543,0.86198 -1.25,1.53125 -0.286459,0.66927 -0.40625,1.39584 -0.40625,2.1875 0,1.15105 0.3125,2.14584 0.9375,2.96875 0.624998,0.82292 1.484372,1.25 2.625,1.25 0.916662,0 1.697911,-0.36979 2.3125,-1.09375 0.0052,0.91667 -0.02084,1.52604 -0.09375,1.8125 -0.125006,0.46874 -0.364589,0.83333 -0.71875,1.09375 -0.354171,0.26041 -0.880213,0.375 -1.53125,0.375 -0.60417,0 -1.057294,-0.11459 -1.40625,-0.375 -0.260419,-0.19271 -0.44271,-0.51563 -0.5,-0.9375 l -1.34375,-0.1875 c -0.02083,0.89583 0.265624,1.55469 0.875,2 0.609373,0.44531 1.416664,0.65625 2.40625,0.65625 0.833329,0 1.523432,-0.15625 2.09375,-0.46875 0.570306,-0.3125 0.986972,-0.74219 1.25,-1.28125 0.263013,-0.53906 0.406243,-1.42709 0.40625,-2.71875 l 0,-7.1875 -1.3125,0 0,1 c -0.635422,-0.79166 -1.427088,-1.18749 -2.40625,-1.1875 z m 0.09375,1.15625 c 0.635412,1e-5 1.174474,0.26563 1.625,0.78125 0.450515,0.51563 0.687494,1.29688 0.6875,2.3125 -6e-6,1.0625 -0.218756,1.81511 -0.65625,2.3125 -0.437505,0.4974 -0.979171,0.75 -1.625,0.75 -0.651045,0 -1.192711,-0.24999 -1.625,-0.75 -0.432293,-0.49999 -0.656252,-1.28645 -0.65625,-2.375 -2e-6,-0.99999 0.218748,-1.74218 0.65625,-2.25 0.437497,-0.5078 0.968746,-0.78124 1.59375,-0.78125 z"
         id="path4280"
         style="font-size:16px;font-style:normal;font-weight:normal;line-height:125%;letter-spacing:0px;word-spacing:0px;fill:#000000;fill-opacity:1;stroke:none;font-family:Sans"
         inkscape:original="M 54.375 189.125 C 53.640622 189.12501 52.981768 189.32292 52.4375 189.6875 C 51.893227 190.05209 51.473957 190.54948 51.1875 191.21875 C 50.901041 191.88802 50.78125 192.61459 50.78125 193.40625 C 50.78125 194.5573 51.09375 195.55209 51.71875 196.375 C 52.343748 197.19792 53.203122 197.625 54.34375 197.625 C 55.260412 197.625 56.041661 197.25521 56.65625 196.53125 C 56.661452 197.44792 56.63541 198.05729 56.5625 198.34375 C 56.437494 198.81249 56.197911 199.17708 55.84375 199.4375 C 55.489579 199.69791 54.963537 199.8125 54.3125 199.8125 C 53.70833 199.8125 53.255206 199.69791 52.90625 199.4375 C 52.645831 199.24479 52.46354 198.92187 52.40625 198.5 L 51.0625 198.3125 C 51.041666 199.20833 51.328124 199.86719 51.9375 200.3125 C 52.546873 200.75781 53.354164 200.96875 54.34375 200.96875 C 55.177079 200.96875 55.867182 200.8125 56.4375 200.5 C 57.007806 200.1875 57.424472 199.75781 57.6875 199.21875 C 57.950513 198.67969 58.093743 197.79166 58.09375 196.5 L 58.09375 189.3125 L 56.78125 189.3125 L 56.78125 190.3125 C 56.145828 189.52084 55.354162 189.12501 54.375 189.125 z M 54.46875 190.28125 C 55.104162 190.28126 55.643224 190.54688 56.09375 191.0625 C 56.544265 191.57813 56.781244 192.35938 56.78125 193.375 C 56.781244 194.4375 56.562494 195.19011 56.125 195.6875 C 55.687495 196.1849 55.145829 196.4375 54.5 196.4375 C 53.848955 196.4375 53.307289 196.18751 52.875 195.6875 C 52.442707 195.18751 52.218748 194.40105 52.21875 193.3125 C 52.218748 192.31251 52.437498 191.57032 52.875 191.0625 C 53.312497 190.5547 53.843746 190.28126 54.46875 190.28125 z "
         inkscape:radius="0"
         sodipodi:type="inkscape:offset" />
      <path
         d="m 35.048717,185.79842 1.367188,0.20312 c 0.05729,0.42187 0.216143,0.72917 0.476562,0.92188 0.348956,0.26041 0.825518,0.39062 1.429688,0.39062 0.651037,0 1.153641,-0.13021 1.507812,-0.39062 0.354161,-0.26042 0.593744,-0.62501 0.71875,-1.09375 0.07291,-0.28646 0.106765,-0.88802 0.101563,-1.80469 -0.614589,0.72396 -1.380213,1.08594 -2.296875,1.08594 -1.140628,0 -2.02344,-0.41146 -2.648438,-1.23438 -0.625,-0.82291 -0.9375,-1.80989 -0.9375,-2.96094 0,-0.79166 0.143229,-1.52213 0.429688,-2.1914 0.286457,-0.66927 0.701821,-1.18619 1.246094,-1.55078 0.544268,-0.36458 1.18359,-0.54687 1.917968,-0.54688 0.979162,1e-5 1.786453,0.39584 2.421875,1.1875 l 0,-1 1.296875,0 0,7.17188 c -7e-6,1.29166 -0.131518,2.20703 -0.394531,2.74609 -0.263028,0.53906 -0.679694,0.96484 -1.25,1.27734 -0.570318,0.3125 -1.27214,0.46875 -2.105469,0.46875 -0.989586,0 -1.789064,-0.22266 -2.398437,-0.66797 -0.609376,-0.44531 -0.903647,-1.11588 -0.882813,-2.01171 z m 1.164063,-4.98438 c -2e-6,1.08855 0.216144,1.88282 0.648437,2.38281 0.432289,0.50001 0.973955,0.75 1.625,0.75 0.645829,0 1.187495,-0.24869 1.625,-0.74609 0.437494,-0.49739 0.656244,-1.27734 0.65625,-2.33984 -6e-6,-1.01562 -0.225266,-1.78125 -0.675781,-2.29688 -0.450526,-0.51562 -0.993494,-0.77343 -1.628906,-0.77344 -0.625004,10e-6 -1.156253,0.25392 -1.59375,0.76172 -0.437502,0.50782 -0.656252,1.26173 -0.65625,2.26172 z"
         style="font-size:16px;font-style:normal;font-weight:normal;line-height:125%;letter-spacing:0px;word-spacing:0px;fill:#000000;fill-opacity:1;stroke:none;font-family:Sans"
         id="path4257"
         inkscape:connector-curvature="0" />
    </g>
    <path
       style="font-size:medium;font-style:normal;font-variant:normal;font-weight:normal;font-stretch:normal;text-indent:0;text-align:start;text-decoration:none;line-height:normal;letter-spacing:normal;word-spacing:normal;text-transform:none;direction:ltr;block-progression:tb;writing-mode:lr-tb;text-anchor:start;baseline-shift:baseline;color:#000000;fill:#008000;fill-opacity:1;stroke:none;stroke-width:1px;marker:none;visibility:visible;display:inline;overflow:visible;enable-background:accumulate;font-family:Sans;-inkscape-font-specification:Sans"
       d="m 412.80909,374.57553 a 0.72894185,0.72894185 0 0 0 -0.375,0.21875 l -0.6875,0.71875 a 0.72894185,0.72894185 0 0 0 0.0312,1.03125 l 2.875,2.875 -2.875,2.875 a 0.72894185,0.72894185 0 0 0 0,1 l 0.6875,0.6875 a 0.72894185,0.72894185 0 0 0 1,0 l 2.90625,-2.90625 2.90625,2.90625 a 0.72894185,0.72894185 0 0 0 1,0 l 0.6875,-0.6875 a 0.72894185,0.72894185 0 0 0 0,-1 l -2.875,-2.875 2.875,-2.875 a 0.72894185,0.72894185 0 0 0 0.0312,-1.03125 l -0.6874,-0.71875 a 0.72894185,0.72894185 0 0 0 -1.03125,0 l -2.90625,2.90625 -2.90625,-2.90625 a 0.72894185,0.72894185 0 0 0 -0.65625,-0.21875 z"
       id="path3050"
       inkscape:connector-curvature="0" />
  </g>
</svg>
